<?xml version="1.0" encoding="utf-8"?>
<!-- Generator: Adobe Illustrator 15.0.2, SVG Export Plug-In . SVG Version: 6.00 Build 0)  -->
<!DOCTYPE svg PUBLIC "-//W3C//DTD SVG 1.1//EN" "http://www.w3.org/Graphics/SVG/1.1/DTD/svg11.dtd">
<svg version="1.1" id="layer_1" xmlns="http://www.w3.org/2000/svg" xmlns:xlink="http://www.w3.org/1999/xlink" x="0px" y="0px"
	 width="1800px" height="620px" viewBox="0 0 1800 620" enable-background="new 0 0 1800 620" xml:space="preserve">
<rect fill="#FFFFFF" width="1800" height="620"/>
<g>
	<ellipse fill="#EDF1F4" cx="1128.943" cy="520.021" rx="183.891" ry="4.695"/>
	<g>
		<path fill="#544F5B" d="M1010.463,510.434l-1.451-3.333l9.492-20.104l-10.988-32.557l-9.08,62.843l-3.122-0.188
			c0,0-2.917-50.473-3.526-61.91c-0.411-7.728,0-20.058,0-20.058c1.003,0.044,27.821-1.282,27.821-1.282
			c1.374,7.382,9.252,47.293,8.87,52.101C1027.817,494.279,1010.463,510.434,1010.463,510.434z"/>
		<path fill="#3B343F" d="M1009.012,507.101l9.492-20.104l-10.943-32.738c0,0,5.584-1.955,6.898-3.975c0,0-0.865,2.854-3.622,5.161
			l11.51,31.313c0,0-12.765,18.874-12.765,22.446L1009.012,507.101z"/>
		<path fill="#3B343F" d="M996.212,517.206l-0.926-0.563c0,0-2.987-47.209-3.498-62.967c-0.183-5.642,0-18.551,0-18.551l8.466-0.454
			c0,0-2.187,11.264-3.223,23.022C996.219,466.922,994.446,500.72,996.212,517.206z"/>
		<g>
			<path fill="#7059A1" d="M1009.171,506.947l-2.295,1.539l7.736,8.189c0,0-0.538-4.528-2.99-7.129
				c-0.229,0.274-2.466-1.24-2.421-2.494L1009.171,506.947z"/>
			
				<rect x="1004.831" y="512.46" transform="matrix(-0.6867 -0.7269 0.7269 -0.6867 1331.5548 1599.5603)" fill="#5D4A93" width="11.266" height="0.772"/>
		</g>
		<g>
			<path fill="#7059A1" d="M995.08,516.352l-0.458,2.727h11.266c0,0-3.661-2.719-7.235-2.723c0.042,0.354-2.595,0.941-3.476,0.047
				L995.08,516.352z"/>
			<rect x="994.622" y="519.078" fill="#5D4A93" width="11.266" height="0.771"/>
		</g>
		<path fill="#F5B379" d="M1015.373,389.678c0,0,19.564-9.668,25.271-9.222c5.707,0.445,7.439,6.255,5.285,8.953
			c-1.347,1.686-15.005,8.621-24.409,9.891C1015.877,400.062,1016.575,390.214,1015.373,389.678z"/>
		<path fill="#F5B379" d="M1025.884,360.317c0,0,19.457,18.636,20.549,24.254c1.093,5.618-5.307,8.696-8.469,7.333
			c-2.336-1.008-10.061-19.763-17.277-31.767C1023.701,358.895,1025.884,360.317,1025.884,360.317z"/>
		<path fill="#7DC7E7" d="M1010.305,388.148c0,0,6.682-3.62,13.6-4.869c0,0,4.48,11.527,3.525,17.002c0,0-17.618,4.123-18.863,2.701
			C1007.32,401.56,1010.305,388.148,1010.305,388.148z"/>
		<path fill="#855E4F" d="M999.017,380.065c0,0-5.146-3.897-4.441-5.933s5.48,2.73,5.48,2.73L999.017,380.065z"/>
		<path fill="#F5B379" d="M1012.084,379.291c-0.133,0.338-0.257,0.656-0.349,0.953c-0.256,0.811-0.451,1.611-0.574,2.391
			c-0.144,0.779-0.226,1.518-0.267,2.205c-0.144,2.216,0.082,3.806,0.082,3.806c-6.236,3.077-12.996-1.159-12.996-1.159
			c0.297-0.872,0.533-1.938,0.718-3.006c0.379-2.185,0.533-4.38,0.564-5.016c0.01-0.041,0.01-0.072,0.01-0.103
			c0.01-0.052,0.01-0.071,0.01-0.071H1012.084z"/>
		<path fill="#F29866" d="M1012.084,379.291c-0.133,0.338-0.257,0.656-0.349,0.953c-0.359,1.016-0.523,1.796-0.574,2.391
			c-0.144,0.779-0.226,1.518-0.267,2.205c-2.964,1.303-6.308,1.826-8.739,1.303c-1.569-0.328-2.759-1.098-3.457-1.662
			c0.379-2.185,0.533-4.38,0.564-5.016c0.01-0.041,0.01-0.072,0.01-0.103c0.01-0.052,0.01-0.071,0.01-0.071H1012.084z"/>
		<path fill="#F5B379" d="M997.334,375.829c0,0,1.829,6.082,3.856,7.967c2.184,2.03,11.681,2.054,13.501-1.442
			c1.612-3.096-0.405-19.921-1.152-21.272c-0.747-1.351-12.735-5.894-16.424-0.021C993.425,366.931,997.334,375.829,997.334,375.829
			z"/>
		<path fill="#855E4F" d="M1014.835,356.884c-1.377-2.453-17.507-7.56-21.512,2.128c-0.759-1.029-1.112-2.23-1.029-3.543
			c0.041-0.656-0.984-0.604-1.025,0.049c-0.094,1.494,0.334,2.883,1.183,4.063c-0.999,0.246-1.963,0.552-2.867,1.082
			c-0.571,0.334-0.021,1.2,0.548,0.867c0.762-0.447,1.583-0.713,2.425-0.924c-1.161,1.504-2.226,8.543,1.431,13.488
			c0.989,1.338,3.642,1.563,4.424,1.299c3.627-1.22,3.594-8.093,1.285-13.246c3.524-2.098,10.585-2.959,13.841-1.065
			C1014.917,361.883,1015.841,358.677,1014.835,356.884z"/>
		<path fill="#F5B379" d="M998.801,372.342c-0.708-1.01-3.315-2.147-4.166-1.021c-1.616,2.14,0.273,6.181,3.904,5.289
			C999.863,376.286,999.415,373.218,998.801,372.342z"/>
		<path fill="#F29866" d="M1010.318,371.095c0.638,0.935,1.157,1.703,1.812,2.416l0.283,0.308l-0.235,0.32
			c-0.196,0.269-0.482,0.434-0.75,0.503c-0.268,0.08-0.53,0.08-0.775,0.045c-0.484-0.079-0.843-0.27-1.267-0.441
			c0.424-0.202,0.9-0.205,1.263-0.287c0.359-0.073,0.643-0.234,0.733-0.391l0.047,0.628
			C1010.608,373.399,1010.1,372.229,1010.318,371.095z"/>
		<path fill="#FFFFFF" d="M1003.857,368.292c-0.031-0.889,2.56-1.6,4.123-0.687c0.649,0.379,0.002,2.495-1.86,2.561
			C1004.545,370.223,1003.883,369.027,1003.857,368.292z"/>
		<circle fill="#613D44" cx="1006.086" cy="368.671" r="1.207"/>
		<circle fill="#FFFFFF" cx="1006.982" cy="367.98" r="0.408"/>
		<path fill="#FFFFFF" d="M1010.305,368.113c-0.001-0.887,2.394-1.576,3.797-0.654c0.583,0.384-0.074,2.492-1.782,2.543
			C1010.875,370.046,1010.305,368.849,1010.305,368.113z"/>
		<circle fill="#613D44" cx="1012.37" cy="368.527" r="1.208"/>
		<circle fill="#FFFFFF" cx="1013.279" cy="367.854" r="0.408"/>
		<path fill="#855E4F" d="M1002.536,364.829c0.155-0.542,4.817-1.845,5.249-1.566c0.372,0.24,0.523,1.235,0.457,2.32
			c-0.016,0.265-0.261,0.468-0.521,0.413c-1.153-0.245-3.46,0.227-4.273,0.409c-0.176,0.039-0.353-0.041-0.437-0.2
			C1002.804,365.81,1002.461,365.092,1002.536,364.829z"/>
		<path fill="#855E4F" d="M1015.646,364.387c-0.212-0.522-4.761-1.41-5.133-1.098c-0.32,0.27-0.341,1.266-0.146,2.332
			c0.048,0.261,0.304,0.439,0.542,0.363c1.056-0.341,3.286-0.072,4.074,0.038c0.17,0.023,0.328-0.071,0.387-0.235
			C1015.514,365.379,1015.75,364.64,1015.646,364.387z"/>
		<path fill="#7DC7E7" d="M997.604,385.85c0,0-7.459,3.576-10.536,5.97c0,0,4.999,37.282,4.229,47.882
			c0,0,24.205-0.388,28.992-5.857c0,0-0.207-21.934-1.813-30.571c-1.544-8.306-3.16-12.807-6.92-15.2
			C1011.555,388.072,1005.81,391.834,997.604,385.85z"/>
		<path fill="#67B2D0" d="M988.817,410.81c0,0,3.503,24.361,2.479,28.892c0,0,6.947-0.943,11.283-2.382
			c0,0-8.59-16.967-8.107-25.305c0.741-12.77-8.106-18.341-8.106-18.341S990.356,407.22,988.817,410.81z"/>
		<path fill="#F29866" d="M997.604,373.109c0,0-1.767-1.543-2.323-1.012c-1.223,1.171,0.432,3.174,1.019,3.526
			c0,0-0.145-1.59,0.264-2.048C996.973,373.119,997.604,373.109,997.604,373.109z"/>
		<path fill="#F29866" d="M1008.566,381.467c0.182-0.312,0.47-0.476,0.779-0.567c0.305-0.074,0.691-0.073,0.959,0.184
			c-0.328,0.137-0.556,0.223-0.832,0.3C1009.198,381.445,1008.922,381.504,1008.566,381.467z"/>
		<path fill="#F5B379" d="M981.966,407.246c-7.171,1.073-15.244-0.598-23.464-2.959c-2.207-0.634,2.524-9.769,3.467-9.846
			c6.476-0.529,23.358-1.637,23.358-1.637S982.75,400.007,981.966,407.246z"/>
		<path fill="#F5B379" d="M957.473,403.488c-1.565-1.494-1.639-4.426-0.587-8.735c0.822-3.372,8.012-19.587,8.012-19.587l5.2-0.189
			c0,0-1.767,22.121-4.148,25.229C963.567,403.315,960.165,406.058,957.473,403.488z"/>
		<path fill="#7DC7E7" d="M989.344,391.479c0,0-5.667-0.55-13.311,0.916c0,0,0.222,8.844,1.5,17.504l12.412-1.488
			C989.945,408.41,993.408,399.117,989.344,391.479z"/>
		<g>
			<path fill="#3B343F" d="M1007.439,389.778c0,0,2.226-0.672,2.876-0.664c0.65,0.008,0.455,3.28,0.455,3.28
				s-1.279,0.566-1.991,0.563C1008.067,392.954,1007.12,390.663,1007.439,389.778z"/>
			<path fill="#3B343F" d="M1008.78,392.958c0,0,2.525,12.735,2.375,17.79c-0.041,1.396,1.952,2.822,1.952,2.822
				s1.478-1.76,1.668-3.043c0.19-1.284-0.687-14.013-4.004-18.133L1008.78,392.958z"/>
		</g>
		<path fill="#FFFFFF" d="M997.282,385.359c0,0,4.94,3.417,11.578,3.429c0,0-1.174,2.385-1.49,4.081
			C1007.369,392.869,998.776,390.447,997.282,385.359z"/>
		<path fill="#FFFFFF" d="M1011.333,387.537c0,0-0.509,0.861-2.473,1.251l3.163,2.856c0,0,0.044-3.444-0.001-3.938
			S1011.333,387.537,1011.333,387.537z"/>
		<g>
			<path fill="#F5B379" d="M963.738,367.742c-1.524-1.253-1.65,5.438-1.186,6.502c0.38,0.871,1.035,1.547,1.895,1.945
				c0.406,0.188,1.708,0.236,2.071,0.475c0.494,0.325,3.861,0.15,3.6-2.311c-0.378-1.862-0.517-3.781-2.286-4.738
				C967.368,369.365,965.344,369.063,963.738,367.742z"/>
			<path fill="#F5B379" d="M962.572,363.837c0.064-0.431,0.044-0.941,0.497-1.134c0.169-0.072,0.381-0.047,0.504,0.103
				c0.795,0.965,0.743,1.915,0.748,3.105c0.004,1.285,0.278,2.189,1.086,3.178c0.652,0.798,1.411,1.522,2.156,2.232
				c0.393,0.374-0.247,0.923-0.637,0.552c-0.152-0.145-0.309-0.293-0.465-0.441c-0.021,0.291-0.363,0.471-0.654,0.316
				c-1.632-0.863-3.327-2.34-3.505-4.294C962.194,366.279,962.4,364.992,962.572,363.837z"/>
			<path fill="#F5B379" d="M957.827,368.728c-0.16-0.403-0.433-0.836-0.138-1.229c0.111-0.147,0.306-0.232,0.487-0.165
				c1.172,0.437,1.603,1.285,2.204,2.313c0.647,1.11,1.337,1.756,2.532,2.206c0.964,0.363,1.983,0.61,2.984,0.851
				c0.527,0.127,0.249,0.923-0.274,0.797c-0.204-0.049-0.415-0.099-0.624-0.148c0.128,0.263-0.015,1.296-0.344,1.309
				c-1.845,0.07-4.116-1.064-5.25-2.666C958.724,371.031,958.258,369.814,957.827,368.728z"/>
			<path fill="#F5B379" d="M958.564,374.291c-0.352-0.256-0.813-0.475-0.774-0.966c0.015-0.184,0.135-0.359,0.324-0.399
				c1.224-0.258,2.041,0.229,3.098,0.776c1.141,0.592,2.069,0.769,3.319,0.51c1.01-0.208,2.003-0.545,2.977-0.876
				c0.514-0.176,0.704,0.646,0.194,0.819c-0.199,0.067-0.403,0.138-0.606,0.208c0.248,0.153,1.135,0.992,0.865,1.179
				c-1.521,1.046-4.503,1.411-6.317,0.665C960.554,375.758,959.509,374.979,958.564,374.291z"/>
			<path fill="#F5B379" d="M959.594,365.621c-0.061-0.431-0.224-0.915,0.156-1.228c0.142-0.117,0.352-0.153,0.513-0.045
				c1.036,0.7,1.254,1.626,1.595,2.767c0.368,1.231,0.886,2.021,1.941,2.741c0.852,0.581,1.784,1.061,2.7,1.531
				c0.482,0.247,0.024,0.954-0.455,0.709c-0.187-0.096-0.379-0.194-0.571-0.291c0.062,0.284-0.25,0.973-0.572,0.907
				c-1.81-0.366-3.82-1.723-4.543-3.546C959.923,368.07,959.757,366.777,959.594,365.621z"/>
			<path fill="#F5B379" d="M966.842,365.858c0.144-0.215,0.494-0.267,0.666-0.05c0.781,0.982,1.989,2.072,2.292,3.339
				c0.294,1.228-0.05,2.646-0.317,3.851c-0.067,0.301-0.353,0.34-0.568,0.226c-0.132,0.076-0.296,0.089-0.424-0.017
				c-1.223-1.002-0.543-2.258-0.822-3.591C967.39,368.273,965.873,367.306,966.842,365.858z"/>
			<path fill="#F29866" d="M964.3,369.771c0,0-2.626,1.414-2.325,4.473C962.733,371.934,964.3,369.771,964.3,369.771z"/>
			<path fill="#F29866" d="M966.417,370.476c0,0-1.142,1.212-0.268,3.183c0,0-0.824-1.551-0.71-2.166
				C965.579,370.733,966.417,370.476,966.417,370.476z"/>
		</g>
		<g>
			<path fill="#F5B379" d="M1021.433,357.513c-1.057,1.712,0.253,3.755,1.248,5.33c1,2.263,3.138,0.653,3.404,0.126
				c0.196-0.389,1.3-1.078,1.559-1.443c0.546-0.773,0.777-1.687,0.673-2.631c-0.127-1.154-3.572-6.893-4.268-5.046
				C1023.314,355.795,1021.71,357.064,1021.433,357.513z"/>
			<path fill="#F5B379" d="M1023.113,349.881c-0.27-0.341-0.507-0.793-0.996-0.734c-0.183,0.022-0.354,0.149-0.386,0.34
				c-0.208,1.233,0.31,2.03,0.9,3.064c0.637,1.116,0.85,2.037,0.643,3.297c-0.168,1.017-0.464,2.022-0.757,3.01
				c-0.154,0.52,0.674,0.677,0.827,0.161c0.06-0.201,0.122-0.409,0.184-0.614c0.163,0.242,0.549,0.227,0.725-0.052
				c0.984-1.563,1.718-3.688,0.899-5.47C1024.658,351.811,1023.837,350.798,1023.113,349.881z"/>
			<path fill="#F5B379" d="M1029.664,351.757c-0.062-0.43-0.041-0.94-0.493-1.134c-0.169-0.073-0.381-0.049-0.504,0.1
				c-0.799,0.963-0.75,1.913-0.757,3.104c-0.009,1.285-0.285,2.188-1.096,3.174c-0.655,0.797-1.416,1.518-2.163,2.226
				c-0.394,0.373,0.244,0.924,0.634,0.554c0.152-0.144,0.311-0.292,0.467-0.439c0.02,0.291,0.659,1.115,0.95,0.963
				c1.635-0.858,3.038-2.975,3.222-4.928C1030.034,354.201,1029.832,352.914,1029.664,351.757z"/>
			<path fill="#F5B379" d="M1031.798,356.947c0.177-0.397,0.468-0.817,0.189-1.223c-0.104-0.152-0.296-0.245-0.48-0.186
				c-1.189,0.387-1.656,1.216-2.299,2.218c-0.694,1.081-1.41,1.696-2.624,2.096c-0.979,0.323-2.008,0.526-3.018,0.725
				c-0.532,0.104-0.288,0.911,0.24,0.807c0.206-0.04,0.418-0.081,0.629-0.121c-0.138,0.256-0.49,1.426-0.162,1.452
				c1.84,0.149,4.608-1.021,5.808-2.572C1030.804,359.21,1031.321,358.014,1031.798,356.947z"/>
			<path fill="#F5B379" d="M1026.583,349.943c-0.162-0.402-0.262-0.904-0.747-0.985c-0.182-0.031-0.382,0.042-0.467,0.216
				c-0.549,1.124-0.277,2.036-0.004,3.194c0.295,1.251,0.24,2.194-0.316,3.344c-0.449,0.928-1.018,1.809-1.577,2.673
				c-0.295,0.455,0.455,0.84,0.747,0.389c0.114-0.176,0.233-0.357,0.35-0.537c0.088,0.277,0.702,0.719,0.948,0.502
				c1.386-1.22,2.453-3.398,2.171-5.34C1027.52,352.231,1027.019,351.028,1026.583,349.943z"/>
			<path fill="#F5B379" d="M1020.418,353.762c-0.231-0.113-0.561,0.016-0.602,0.289c-0.188,1.241-0.692,2.788-0.323,4.037
				c0.356,1.211,1.362,2.27,2.193,3.18c0.208,0.229,0.476,0.12,0.605-0.086c0.152-0.001,0.301-0.071,0.359-0.227
				c0.562-1.478-0.654-2.229-1.077-3.522C1021.147,356.129,1021.98,354.533,1020.418,353.762z"/>
			<path fill="#F29866" d="M1024.572,355.889c0,0,2.981-0.084,4.245,2.718C1027.008,356.98,1024.572,355.889,1024.572,355.889z"/>
			<path fill="#F29866" d="M1023.088,357.554c0,0,1.594,0.481,1.818,2.625c0,0-0.058-1.756-0.463-2.232
				C1023.943,357.359,1023.088,357.554,1023.088,357.554z"/>
		</g>
		<g>
			<path fill="#855E4F" d="M1011.061,379.516c-1.9-0.48-3.56-0.21-3.72-0.15c0.1-0.27,0.43-1.029,0.99-1.659
				c0.541-0.63,1.3-1.13,2.27-0.921c0.22,0.041,0.43,0.19,0.58,0.421C1011.491,377.666,1011.571,378.485,1011.061,379.516z"/>
			<path fill="#FFFFFF" d="M1008.331,377.706c0.541-0.63,1.3-1.13,2.27-0.921c0.22,0.041,0.43,0.19,0.58,0.421
				c-0.14,0.26-0.3,0.579-0.3,0.579C1010.471,377.936,1009.241,377.836,1008.331,377.706L1008.331,377.706z"/>
		</g>
	</g>
	<g>
		<path fill="#D3E0EA" d="M1286.396,520.348h-175.518c-4.314,0-7.998-3.496-8.227-7.811l-7.275-136.547
			c-0.23-4.313,3.081-7.811,7.395-7.811h175.518c4.314,0,7.998,3.497,8.228,7.811l7.275,136.547
			C1294.02,516.852,1290.709,520.348,1286.396,520.348z"/>
		<g>
			<g>
				<g>
					<path fill="#BED0E2" d="M1287.652,367.785c-0.001,0.008-0.001,0.008-0.002,0.017c-0.579,5.517-5.527,9.994-11.044,9.994
						c-0.598,0-1.173-0.052-1.725-0.155c4.771-0.823,8.79-4.937,9.307-9.855H1287.652z"/>
					<path fill="#F0F4F7" d="M1264.417,520.882H1087.83c-4.34,0-7.489-3.519-7.033-7.858l14.439-137.379
						c0.456-4.34,4.344-7.858,8.684-7.858h176.588c4.34,0,7.488,3.519,7.032,7.858l-14.439,137.379
						C1272.645,517.363,1268.757,520.882,1264.417,520.882z"/>
					<g>
						<path fill="#544F5B" d="M1117.149,379.16c0.203-1.932-1.198-3.498-3.13-3.498s-3.663,1.566-3.866,3.498
							s1.199,3.498,3.131,3.498S1116.947,381.092,1117.149,379.16z"/>
						<path fill="#544F5B" d="M1156.131,379.16c0.203-1.932-1.199-3.498-3.131-3.498s-3.663,1.566-3.866,3.498
							s1.199,3.498,3.131,3.498S1155.928,381.092,1156.131,379.16z"/>
						<path fill="#544F5B" d="M1195.113,379.16c0.203-1.932-1.199-3.498-3.131-3.498s-3.663,1.566-3.866,3.498
							s1.199,3.498,3.131,3.498S1194.91,381.092,1195.113,379.16z"/>
						<path fill="#544F5B" d="M1234.094,379.16c0.203-1.932-1.198-3.498-3.131-3.498c-1.932,0-3.663,1.566-3.866,3.498
							c-0.203,1.932,1.199,3.498,3.131,3.498S1233.891,381.092,1234.094,379.16z"/>
						<path fill="#544F5B" d="M1273.076,379.16c0.203-1.932-1.198-3.498-3.131-3.498c-1.932,0-3.663,1.566-3.866,3.498
							s1.199,3.498,3.131,3.498C1271.142,382.658,1272.873,381.092,1273.076,379.16z"/>
					</g>
					<path fill="#BED0E2" d="M1112.958,381.054c-6.316-1.143-10.401-6.724-9.713-13.27c0.781-7.433,7.463-13.479,14.895-13.479
						c7.433,0,12.843,6.047,12.062,13.479h-3.464c0.581-5.522-3.44-10.015-8.962-10.015s-10.486,4.492-11.066,10.015
						c-0.511,4.864,2.522,9.011,7.212,9.859c0,0,0.317,0.729-0.104,1.933C1113.397,380.781,1112.958,381.054,1112.958,381.054z"/>
					<path fill="#BED0E2" d="M1152.319,381.054c-6.316-1.143-10.4-6.724-9.712-13.27c0.781-7.433,7.463-13.479,14.895-13.479
						c7.433,0,12.843,6.047,12.063,13.479h-3.464c0.581-5.522-3.44-10.015-8.962-10.015c-5.521,0-10.486,4.492-11.066,10.015
						c-0.511,4.864,2.522,9.011,7.212,9.859c0,0,0.317,0.729-0.104,1.933C1152.76,380.781,1152.319,381.054,1152.319,381.054z"/>
					<path fill="#BED0E2" d="M1191.682,381.054c-6.316-1.143-10.401-6.724-9.712-13.27c0.781-7.433,7.463-13.479,14.895-13.479
						c7.432,0,12.843,6.047,12.062,13.479h-3.464c0.581-5.522-3.44-10.015-8.962-10.015s-10.486,4.492-11.066,10.015
						c-0.511,4.864,2.522,9.011,7.212,9.859c0,0,0.317,0.729-0.104,1.933C1192.122,380.781,1191.682,381.054,1191.682,381.054z"/>
					<path fill="#BED0E2" d="M1231.043,381.054c-6.316-1.143-10.4-6.724-9.712-13.27c0.781-7.433,7.463-13.479,14.895-13.479
						c7.432,0,12.843,6.047,12.062,13.479h-3.464c0.58-5.522-3.44-10.015-8.962-10.015c-5.522,0-10.486,4.492-11.066,10.015
						c-0.512,4.864,2.522,9.011,7.212,9.859c0,0,0.317,0.729-0.103,1.933C1231.484,380.781,1231.043,381.054,1231.043,381.054z"/>
					<path fill="#BED0E2" d="M1287.652,367.785h-3.464c0.032-0.304,0.047-0.606,0.052-0.91c0.009-0.493-0.019-0.97-0.083-1.429
						c-0.034-0.251-0.078-0.493-0.132-0.728c-0.027-0.147-0.056-0.286-0.103-0.424c-0.863-3.24-3.446-5.69-6.858-6.349
						c-0.595-0.112-1.212-0.173-1.844-0.173c-5.518,0-10.483,4.485-11.064,10.012c-0.512,4.867,2.526,9.007,7.218,9.855
						c0,0,0.313,0.727-0.108,1.939c-0.421,1.204-0.856,1.473-0.856,1.473c-6.323-1.144-10.405-6.721-9.717-13.268
						c0.781-7.432,7.461-13.477,14.893-13.477c7.257,0,12.576,5.751,12.108,12.922
						C1287.683,367.412,1287.672,367.594,1287.652,367.785z"/>
					<g>
						<path fill="#BED0E2" d="M1124.945,508.248c-0.179,0-0.309-0.146-0.291-0.324l12.304-117.06
							c0.019-0.179,0.18-0.324,0.358-0.324c0.179,0,0.309,0.146,0.291,0.324l-12.304,117.06
							C1125.285,508.103,1125.125,508.248,1124.945,508.248z"/>
						<path fill="#BED0E2" d="M1159.446,508.248c-0.179,0-0.309-0.146-0.29-0.324l12.303-117.06c0.019-0.179,0.18-0.324,0.359-0.324
							c0.179,0,0.309,0.146,0.29,0.324l-12.303,117.06C1159.786,508.103,1159.625,508.248,1159.446,508.248z"/>
						<path fill="#BED0E2" d="M1193.947,508.248c-0.179,0-0.31-0.146-0.291-0.324l12.303-117.06c0.019-0.179,0.18-0.324,0.359-0.324
							c0.179,0,0.309,0.146,0.29,0.324l-12.303,117.06C1194.286,508.103,1194.125,508.248,1193.947,508.248z"/>
						<path fill="#BED0E2" d="M1228.447,508.248c-0.179,0-0.309-0.146-0.291-0.324l12.304-117.06
							c0.019-0.179,0.18-0.324,0.358-0.324s0.31,0.146,0.29,0.324l-12.303,117.06
							C1228.787,508.103,1228.626,508.248,1228.447,508.248z"/>
					</g>
					<g>
						<path fill="#BED0E2" d="M1268.225,414.851H1104.8c-0.179,0-0.31-0.146-0.291-0.324s0.18-0.325,0.358-0.325h163.425
							c0.179,0,0.31,0.146,0.29,0.325C1268.565,414.705,1268.405,414.851,1268.225,414.851z"/>
						<path fill="#BED0E2" d="M1264.561,449.719h-163.426c-0.179,0-0.309-0.146-0.29-0.325c0.019-0.179,0.179-0.324,0.358-0.324
							h163.425c0.18,0,0.31,0.146,0.291,0.324C1264.9,449.572,1264.74,449.719,1264.561,449.719z"/>
						<path fill="#BED0E2" d="M1260.896,484.586h-163.425c-0.179,0-0.309-0.146-0.291-0.324c0.019-0.179,0.18-0.324,0.359-0.324
							h163.425c0.179,0,0.309,0.146,0.29,0.324S1261.075,484.586,1260.896,484.586z"/>
					</g>
				</g>
				<g>
					<polygon fill="#D64579" points="1194.296,478.583 1166.433,478.583 1168.919,454.925 1196.783,454.925 					"/>
					<path fill="#EA5081" d="M1192.163,479.746c0,0-15.186,1.318-27.863,0c2.598-11.272,4.62-24.821,4.62-24.821h27.864
						L1192.163,479.746z"/>
					<path fill="#FFFFFF" d="M1192.023,459.75h-18.833c-0.54,0-0.932-0.438-0.875-0.979l0,0c0.057-0.54,0.541-0.978,1.081-0.978
						h18.833c0.54,0,0.932,0.438,0.875,0.978l0,0C1193.047,459.312,1192.563,459.75,1192.023,459.75z"/>
					<path fill="#FFFFFF" d="M1190.802,462.963H1172.1c-0.33,0-0.57-0.268-0.535-0.598l0.08-0.761
						c0.035-0.33,0.331-0.598,0.661-0.598h18.703c0.33,0,0.57,0.268,0.535,0.598l-0.08,0.761
						C1191.428,462.695,1191.132,462.963,1190.802,462.963z"/>
					<path fill="#FFFFFF" d="M1177.223,468.606h-6.147c-0.541,0-0.932-0.438-0.875-0.978l0,0c0.057-0.541,0.541-0.979,1.081-0.979
						h6.147c0.541,0,0.932,0.438,0.875,0.979l0,0C1178.248,468.169,1177.764,468.606,1177.223,468.606z"/>
					<path fill="#FFFFFF" d="M1188.884,468.606h-8.354c-0.54,0-0.932-0.438-0.875-0.978l0,0c0.057-0.541,0.541-0.979,1.081-0.979
						h8.354c0.54,0,0.932,0.438,0.875,0.979l0,0C1189.908,468.169,1189.424,468.606,1188.884,468.606z"/>
					<path fill="#FFFFFF" d="M1175.133,472.1h-4.425c-0.54,0-0.932-0.438-0.875-0.979l0,0c0.057-0.54,0.541-0.978,1.081-0.978h4.425
						c0.541,0,0.932,0.438,0.875,0.978l0,0C1176.157,471.661,1175.673,472.1,1175.133,472.1z"/>
					<path fill="#FFFFFF" d="M1188.517,472.1h-10.14c-0.54,0-0.932-0.438-0.875-0.979l0,0c0.057-0.54,0.541-0.978,1.081-0.978h10.14
						c0.54,0,0.932,0.438,0.875,0.978l0,0C1189.541,471.661,1189.057,472.1,1188.517,472.1z"/>
				</g>
				<g>
					<polygon fill="#D64579" points="1260.669,512.852 1232.806,512.852 1235.293,489.193 1263.157,489.193 					"/>
					<path fill="#EA5081" d="M1258.537,514.015c0,0-15.187,1.319-27.863,0c2.598-11.272,4.62-24.821,4.62-24.821h27.863
						L1258.537,514.015z"/>
					<path fill="#FFFFFF" d="M1258.397,494.019h-18.834c-0.54,0-0.932-0.438-0.875-0.979l0,0c0.057-0.54,0.541-0.978,1.081-0.978
						h18.833c0.54,0,0.933,0.438,0.876,0.978l0,0C1259.42,493.58,1258.937,494.019,1258.397,494.019z"/>
					<path fill="#FFFFFF" d="M1257.175,497.231h-18.702c-0.33,0-0.57-0.268-0.535-0.598l0.08-0.761
						c0.034-0.33,0.33-0.598,0.661-0.598h18.702c0.33,0,0.569,0.268,0.535,0.598l-0.08,0.761
						C1257.801,496.964,1257.505,497.231,1257.175,497.231z"/>
					<path fill="#FFFFFF" d="M1243.597,502.875h-6.148c-0.54,0-0.932-0.438-0.875-0.978l0,0c0.057-0.54,0.541-0.979,1.081-0.979
						h6.147c0.54,0,0.933,0.438,0.875,0.979l0,0C1244.621,502.438,1244.137,502.875,1243.597,502.875z"/>
					<path fill="#FFFFFF" d="M1255.257,502.875h-8.354c-0.54,0-0.932-0.438-0.875-0.978l0,0c0.057-0.54,0.54-0.978,1.081-0.978
						h8.354c0.54,0,0.933,0.438,0.875,0.978l0,0C1256.281,502.438,1255.797,502.875,1255.257,502.875z"/>
					<path fill="#FFFFFF" d="M1241.507,506.368h-4.426c-0.54,0-0.932-0.438-0.875-0.978l0,0c0.057-0.541,0.541-0.979,1.081-0.979
						h4.425c0.54,0,0.932,0.438,0.875,0.979l0,0C1242.531,505.93,1242.047,506.368,1241.507,506.368z"/>
					<path fill="#FFFFFF" d="M1254.89,506.368h-10.141c-0.54,0-0.932-0.438-0.875-0.978l0,0c0.057-0.541,0.541-0.979,1.081-0.979
						h10.14c0.54,0,0.933,0.438,0.876,0.979l0,0C1255.914,505.931,1255.43,506.368,1254.89,506.368z"/>
				</g>
				<path fill="#EA5081" d="M1148.563,447.458c-8.532,0-14.744-6.941-13.847-15.474c0.896-8.531,8.567-15.473,17.1-15.473
					c8.532,0,14.743,6.941,13.846,15.473C1164.766,440.517,1157.095,447.458,1148.563,447.458z M1151.65,418.086
					c-7.664,0-14.555,6.234-15.36,13.898c-0.806,7.664,4.774,13.9,12.438,13.9c7.665,0,14.554-6.236,15.36-13.9
					S1159.314,418.086,1151.65,418.086z"/>
			</g>
			<g>
				<path fill="#544F5B" d="M1184.51,409.672h-2.869l1.136-10.812c-1.151,0.979-2.462,1.705-3.934,2.175l0.273-2.604
					c0.774-0.244,1.637-0.709,2.587-1.394s1.636-1.482,2.059-2.395h2.327L1184.51,409.672z"/>
				<path fill="#544F5B" d="M1195.227,394.644c1.45,0,2.529,0.518,3.236,1.552c0.845,1.226,1.118,3.258,0.819,6.096
					c-0.297,2.832-1.001,4.867-2.112,6.105c-0.917,1.021-2.1,1.531-3.55,1.531c-1.456,0-2.572-0.56-3.345-1.68
					c-0.774-1.119-1.01-3.115-0.709-5.988c0.296-2.817,1-4.846,2.11-6.084C1192.594,395.154,1193.778,394.644,1195.227,394.644z
					 M1194.977,397.022c-0.347,0-0.668,0.111-0.964,0.332c-0.295,0.222-0.548,0.618-0.758,1.189c-0.275,0.742-0.505,1.99-0.69,3.747
					c-0.185,1.756-0.223,2.963-0.115,3.619c0.108,0.657,0.285,1.094,0.531,1.312c0.246,0.219,0.543,0.327,0.89,0.327
					c0.347,0,0.668-0.11,0.964-0.332c0.295-0.221,0.548-0.618,0.758-1.189c0.274-0.734,0.504-1.98,0.689-3.736
					c0.184-1.757,0.223-2.963,0.114-3.619c-0.107-0.657-0.284-1.096-0.53-1.317C1195.62,397.134,1195.324,397.022,1194.977,397.022z
					"/>
			</g>
			<g>
				<path fill="#544F5B" d="M1145.675,438.686h-2.869l1.136-10.813c-1.151,0.98-2.462,1.705-3.935,2.176l0.274-2.604
					c0.774-0.245,1.636-0.71,2.587-1.395c0.949-0.684,1.636-1.482,2.058-2.394h2.327L1145.675,438.686z"/>
				<path fill="#544F5B" d="M1155.589,438.686l0.316-3.012h-6.126l0.264-2.512l7.492-9.505h2.409l-0.998,9.495h1.858l-0.266,2.521
					h-1.858l-0.316,3.012H1155.589z M1156.17,433.152l0.538-5.115l-3.979,5.115H1156.17z"/>
			</g>
			<g>
				<path fill="#544F5B" d="M1248.735,439.495h-2.868l1.137-10.812c-1.151,0.979-2.463,1.704-3.935,2.175l0.273-2.604
					c0.774-0.245,1.637-0.71,2.587-1.395c0.949-0.684,1.637-1.481,2.059-2.394h2.327L1248.735,439.495z"/>
				<path fill="#544F5B" d="M1254.295,427.396l0.28-2.664h9.812l-0.219,2.083c-0.895,0.796-1.838,1.94-2.832,3.43
					c-0.993,1.49-1.798,3.075-2.414,4.753c-0.614,1.678-0.988,3.177-1.121,4.497h-2.767c0.266-2.069,0.914-4.179,1.946-6.329
					c1.034-2.151,2.313-4.074,3.839-5.77H1254.295z"/>
			</g>
		</g>
	</g>
	<g>
		<g>
			<polygon fill="#7DC7E7" points="1089.846,519.717 1067.048,519.717 1062.436,494.254 1094.458,494.254 			"/>
			<ellipse fill="#7DC7E7" cx="1078.447" cy="519.717" rx="11.399" ry="2.787"/>
			<ellipse fill="#67B2D0" cx="1078.447" cy="494.254" rx="16.011" ry="3.079"/>
			<ellipse fill="#544F5B" cx="1078.447" cy="494.254" rx="14.857" ry="2.15"/>
		</g>
		<g>
			<g>
				<path fill="#AFC737" d="M1071.687,455.723c-0.074,0.173-0.147,0.333-0.209,0.505c0,0-0.185-0.062-0.529-0.172
					c-2.584-0.874-13.881-4.886-16.109-9.095l8.922,0.382l-10.411-3.643c-1.267-3.225-2.03-6.817-1.932-10.817l7.273,0.554
					l-6.965-3.987c0.529-3.581,1.772-7.47,3.962-11.666c0,0,7.199,1.907,13.524,10.165l-3.396,5.255l4.578-3.618
					c1.821,2.67,3.507,5.907,4.886,9.832C1077.064,444.537,1073.791,450.641,1071.687,455.723z"/>
			</g>
			<g>
				<path fill="#AFC737" d="M1078.748,476.373c0.032,0.227,0.067,0.438,0.084,0.658c0,0,0.236-0.013,0.675-0.033
					c3.307-0.201,17.821-1.308,21.771-5.531l-10.576-2.392l13.359-0.956c2.511-3.375,4.549-7.343,5.706-12.061l-8.699-1.666
					l9.431-2.455c0.52-4.365,0.3-9.317-0.931-14.932c0,0-9.043-0.057-19.083,7.607l2.308,7.238l-4.213-5.696
					c-2.984,2.55-5.989,5.806-8.854,9.968C1076.006,461.554,1077.899,469.748,1078.748,476.373z"/>
			</g>
			<g>
				<path fill="#AFC737" d="M1076.924,482.418c0.2-0.036,0.387-0.075,0.583-0.099c0,0-0.02-0.21-0.054-0.601
					c-0.296-2.938-1.792-15.826-5.693-19.195l-1.758,9.505l-1.322-11.865c-3.095-2.118-6.701-3.793-10.944-4.657l-1.177,7.807
					l-2.52-8.313c-3.906-0.309-8.309,0.062-13.267,1.355c0,0,0.27,8.057,7.449,16.729l6.366-2.311l-4.925,3.953
					c2.376,2.568,5.382,5.131,9.19,7.535C1063.821,485.383,1071.053,483.407,1076.924,482.418z"/>
			</g>
			<path fill="#A3B20B" d="M1094.577,454.787c-2.455,4.063-6.037,7.281-8.938,11.013c-2.643,3.399-4.989,7.011-7.311,10.632
				c-0.356-2.945-0.849-5.871-1.584-8.751c-1.672-6.55-4.652-12.783-7.204-19.023c-2.751-6.729-5.511-13.455-8.278-20.179
				c-0.241-0.587-1.209-0.33-0.964,0.266c2.705,6.574,5.403,13.15,8.094,19.73c2.496,6.104,5.402,12.2,7.149,18.572
				c1.369,4.993,1.976,10.135,2.344,15.289c-5.113-2.146-9.657-5.471-14.26-8.518c-4.586-3.034-9.369-5.919-12.92-10.197
				c-0.411-0.496-1.115,0.215-0.707,0.707c3.605,4.343,8.468,7.274,13.123,10.354c4.786,3.167,9.495,6.591,14.837,8.764
				c0.093,1.423,0.174,2.845,0.247,4.266c0.115,2.256,0.221,4.513,0.332,6.769c0.334,0.026,0.668,0.045,1.003,0.056
				c-0.112-2.274-0.218-4.55-0.334-6.824c-0.077-1.507-0.162-3.017-0.262-4.526c0.003-0.047,0-0.092-0.009-0.138
				c-0.114-1.703-0.255-3.404-0.434-5.102c0.046-0.034,0.09-0.073,0.126-0.13c2.721-4.25,5.445-8.517,8.622-12.447
				c2.727-3.375,5.935-6.341,8.192-10.077C1095.773,454.74,1094.909,454.236,1094.577,454.787z"/>
		</g>
	</g>
</g>
</svg>
