<?xml version="1.0" encoding="utf-8"?>
<!-- Generator: Adobe Illustrator 21.1.0, SVG Export Plug-In . SVG Version: 6.00 Build 0)  -->
<svg version="1.1" xmlns="http://www.w3.org/2000/svg" xmlns:xlink="http://www.w3.org/1999/xlink" x="0px" y="0px"
	 viewBox="0 0 2340 1560" style="enable-background:new 0 0 2340 1560;" xml:space="preserve">
<style type="text/css">
	.st0{fill:transparent}
	.st1{fill:#68A78E;}
	.st2{fill:#515151;}
	.st3{fill:#66A88E;}
	.st4{fill:#EEECEA;}
	.st5{fill:#FFFFFF;}
	.st6{fill:#EB422E;}
	.st7{fill:#68A58C;}
	.st8{fill:#F4A72B;}
	.st9{fill:none;stroke:#D04F59;stroke-width:2;stroke-miterlimit:10;}
	.st10{fill:none;stroke:#4D57A5;stroke-width:2;stroke-miterlimit:10;}
	.st11{fill:#D04F59;}
	.st12{fill:#4D57A5;}
	.st13{fill:#A6A8AB;}
	.st14{fill:#FDBD58;}
	.st15{fill:#929497;}
	.st16{fill:#EED8C4;}
	.st17{fill:#CF5C2A;}
	.st18{fill:#CD8F67;}
	.st19{fill:#FFFBF7;}
	.st20{fill:#D2D6E2;}
	.st21{fill:#D9727A;}
	.st22{fill:#9AB3DD;}
	.st23{fill:#EF6858;}
	.st24{fill:#86B7A3;}
	.st25{fill:#F6B955;}
	.st26{fill:#AEC0E8;}
	.st27{fill:#BBBDBF;}
	.st28{fill:none;stroke:#4D57A5;stroke-miterlimit:10;}
	.st29{fill:#231F20;}
	.st30{fill:#CD8F67;stroke:#FFFFFF;stroke-width:2;stroke-miterlimit:10;}
	.st31{fill:none;stroke:#FFFFFF;stroke-width:2;stroke-miterlimit:10;}
	.st32{fill:#7A7E80;}
	.st33{fill:none;stroke:#FFFFFF;stroke-miterlimit:10;}
	.st34{fill:#F8BC8B;}
	.st35{fill:#172F33;}
	.st36{fill:#3E5757;}
	.st37{fill:#2F4141;}
	.st38{fill:#EC9A71;}
	.st39{fill:#FDD192;}
	.st40{fill:#D99873;}
	.st41{fill:#7F6949;}
	.st42{fill:#383128;}
	.st43{fill:#682E15;}
	.st44{fill:#39332E;}
	.st45{fill:#D5A681;}
	.st46{fill:#514C47;}
	.st47{fill:#A1988F;}
	.st48{fill:#8C8C8C;}
	.st49{fill:#865844;}
	.st50{fill:#F9B995;}
	.st51{fill:#232021;}
	.st52{fill:#402840;}
	.st53{fill:#301E30;}
	.st54{display:none;}
	.st55{display:inline;fill-rule:evenodd;clip-rule:evenodd;fill:#F1B0AB;}
	.st56{fill:#DFCEB6;}
	.st57{fill:#70675B;}
	.st58{fill:none;stroke:#FFFFFF;stroke-width:0.105;stroke-miterlimit:10;}
</style>
<g id="Background">
	<rect class="st0" width="2340" height="1560"/>
	<g>
		<path class="st1" d="M872.4,1052.7c-7.9,41.3-170.6,50.5-294.5,32.1c-192.1-28.5-376.7-136.1-364.6-181.9
			c11.2-42.2,189.6-31.1,293.7-13.9C686.2,918.6,881.5,1005.4,872.4,1052.7z"/>
		<path class="st1" d="M737.4,1024.2c-31.9,27.3-164.8-67.1-250.1-158.9C355,723.1,278,523.8,316.1,495.6
			c35.1-25.9,167.5,94.1,238.1,172.5C675.7,803.2,774,992.9,737.4,1024.2z"/>
		<path class="st1" d="M822.6,1021.5c-28.3,13.7-106.3-79.7-150.6-162.2c-68.6-127.9-86.5-286.5-53.6-299.6
			c30.3-12.1,103.2,99.8,139.3,169.8C819.9,850.1,855,1005.9,822.6,1021.5z"/>
		<g>
			<path class="st2" d="M346.4,927.9c18.4,7.8,37,15.2,55.7,22.3c18.7,7.1,37.5,13.8,56.5,20.1c19,6.3,38,12.3,57.2,17.8
				c9.6,2.8,19.2,5.4,28.9,8c4.8,1.3,9.7,2.5,14.5,3.8l7.3,1.9l7.3,1.8l14.6,3.5l14.6,3.3c4.9,1.1,9.8,2.2,14.6,3.2
				c4.9,1,9.8,2.1,14.7,3.1c19.6,4,39.3,7.4,59,10.7c19.7,3.2,39.5,5.9,59.4,8.3c19.8,2.4,39.7,4.4,59.7,6.1
				c-19.9-1.4-39.9-3.2-59.7-5.3c-19.9-2.2-39.7-4.8-59.5-7.9c-39.5-6.1-78.8-14-117.6-23.5l-7.3-1.8l-7.3-1.9
				c-4.8-1.3-9.7-2.5-14.5-3.8c-9.6-2.7-19.3-5.2-28.9-8.1c-9.6-2.8-19.2-5.6-28.7-8.7c-9.5-3-19-6.1-28.5-9.3
				c-18.9-6.4-37.7-13.3-56.4-20.5C383.2,943.6,364.7,936,346.4,927.9z"/>
		</g>
		<g>
			<path class="st2" d="M649.6,626.5c5.4,19.2,11.2,38.4,17.4,57.4c6.2,19,12.7,37.9,19.6,56.6c7,18.7,14.2,37.4,21.9,55.8
				c3.8,9.3,7.8,18.4,11.8,27.6c2,4.6,4.1,9.1,6.1,13.7l3.1,6.8l3.2,6.8l6.3,13.6l6.5,13.5c2.2,4.5,4.4,9,6.7,13.4
				c2.3,4.5,4.4,8.9,6.8,13.4c9.1,17.8,18.7,35.3,28.5,52.7c9.8,17.4,20.1,34.6,30.6,51.5c10.5,17,21.4,33.8,32.6,50.4
				c-11.4-16.4-22.5-33.1-33.2-50c-10.7-16.9-21.1-34-31-51.4c-19.9-34.7-38.3-70.3-55.2-106.5l-3.2-6.8l-3.1-6.8
				c-2-4.6-4.1-9.1-6.1-13.7c-3.9-9.2-8-18.3-11.7-27.6c-3.8-9.2-7.6-18.5-11.2-27.8c-3.6-9.3-7.1-18.7-10.5-28.1
				c-6.8-18.8-13.2-37.7-19.3-56.8C660.3,665,654.8,645.8,649.6,626.5z"/>
		</g>
		<g>
			<path class="st2" d="M390.9,598.4c18.6,17.5,36.8,35.3,54.8,53.5c17.9,18.2,35.5,36.7,52.8,55.5c34.5,37.6,67.5,76.6,99.3,116.5
				c15.8,20,31.3,40.4,46.4,60.9c15.1,20.6,29.9,41.4,44.2,62.5c14.3,21.1,28.3,42.5,41.9,64.1c13.5,21.6,26.7,43.5,39.5,65.6
				c-13-22-26.3-43.7-40.1-65.2c-13.7-21.5-27.8-42.8-42.2-63.8c-28.8-42.1-59.1-83.1-90.8-123.1l-11.9-14.9c-4-5-8-9.9-12.1-14.8
				c-8.1-9.9-16.2-19.7-24.5-29.4c-16.5-19.4-33.4-38.6-50.5-57.5c-17.2-18.9-34.6-37.4-52.4-55.7C427.4,634,409.3,616,390.9,598.4z
				"/>
		</g>
	</g>
	<g>
		<path class="st3" d="M1905.5,1141.4c28,8.2,59.9-22.1,100.9-60.9c32.9-31.2,85.7-81.2,85.2-146.1c-0.3-34.9-15.8-58.2,0-81.7
			c11.9-17.8,27.5-14.4,45.2-27.8c44.5-33.8,56.4-131.5,7.1-187c-6.5-7.3-31.9-30.4-71.5-27.5c-35.2,2.6-63.3,20.9-73.8,49.8
			c-13.3,36.5,0.6,54.7-14.8,81.2c-15.6,27-48.4,23.7-73,36.5C1816.4,827,1830,1119.3,1905.5,1141.4z"/>
		<g>
			<path class="st2" d="M2082.9,720.5c-11.9,13.4-23.4,27.2-34.4,41.3c-11,14.1-21.6,28.6-31.7,43.4c-20.2,29.6-38.6,60.4-54.8,92.4
				c-8.1,16-15.8,32.2-22.9,48.6c-7.1,16.5-13.6,33.2-19.6,50c-6,16.9-11.5,33.9-16.4,51.2c-5,17.2-9.4,34.6-13.2,52.1
				c3.6-17.6,7.8-35,12.5-52.3c4.8-17.3,10.1-34.4,16-51.4c5.9-17,12.4-33.7,19.5-50.2c7-16.5,14.7-32.8,22.8-48.8
				c8.1-16,16.8-31.7,26-47.1c9.2-15.4,18.9-30.5,29.1-45.3c10.2-14.7,20.9-29.2,32.1-43.2C2059.1,747.4,2070.8,733.7,2082.9,720.5z
				"/>
		</g>
		<g>
			<path class="st2" d="M1945.5,986.6c5.5-0.3,11-0.8,16.4-1.7c5.4-0.8,10.8-1.9,16.1-3.5c2.7-0.7,5.2-1.6,7.9-2.4
				c1.3-0.4,2.6-1,3.9-1.4c1.3-0.5,2.6-0.9,3.8-1.5l3.8-1.7l1.9-0.8l1.8-1l3.6-1.9l0.9-0.5l0.9-0.5l1.8-1.1l3.5-2.1
				c1.1-0.8,2.2-1.6,3.4-2.3c1.1-0.8,2.3-1.5,3.4-2.4l3.2-2.6c1-0.9,2.2-1.7,3.2-2.6l3-2.8c2-1.9,3.9-3.8,5.8-5.9
				c3.7-4.1,7-8.4,10-13c3.1-4.6,5.7-9.4,8.1-14.4c-2.1,5.1-4.6,10-7.5,14.8c-2.9,4.7-6.2,9.2-9.8,13.4
				c-7.3,8.3-15.9,15.6-25.4,21.3c-9.5,5.6-19.9,9.9-30.6,12.6C1967.6,985.3,1956.5,986.7,1945.5,986.6z"/>
		</g>
		<g>
			<path class="st2" d="M1943.7,812.7c-4.2,4.6-8.3,9.4-11.9,14.5c-1.8,2.5-3.6,5.1-5.3,7.7c-1.7,2.6-3.3,5.3-4.8,8
				c-1.5,2.7-3,5.5-4.3,8.3c-0.7,1.4-1.3,2.8-1.9,4.3l-1.9,4.3c-0.7,1.4-1.1,2.9-1.7,4.4l-1.6,4.4l-1.4,4.5c-0.4,1.5-1,3-1.3,4.5
				c-3.2,12.1-5,24.5-5.2,37c-0.2,6.2,0,12.5,0.6,18.7c0.5,6.2,1.4,12.4,2.5,18.6c-2.9-12.2-4.3-24.8-4.2-37.4l0-2.4l0.1-2.4
				c0.1-1.6,0.1-3.1,0.2-4.7c0.3-3.1,0.5-6.3,1-9.4l0.7-4.7l0.9-4.6l0.4-2.3c0.2-0.8,0.4-1.5,0.5-2.3l1.1-4.6c0.3-1.5,0.9-3,1.3-4.5
				l1.4-4.5l1.6-4.4c0.6-1.5,1-3,1.7-4.4l1.9-4.3c0.6-1.4,1.3-2.9,2-4.3c1.4-2.8,2.9-5.6,4.5-8.3c3.2-5.4,6.7-10.6,10.5-15.6
				C1935.1,821.8,1939.2,817,1943.7,812.7z"/>
		</g>
	</g>
	<g>
		<path class="st4" d="M762.5,237H1878c24.9,0,45,20.2,45,45V1323H717.5l0-1040.9C717.5,257.2,737.7,237,762.5,237z"/>
		<rect x="717.5" y="350.2" class="st5" width="1205.4" height="972.6"/>
		<circle class="st6" cx="773.1" cy="294.6" r="22"/>
		<circle class="st7" cx="841.2" cy="294.6" r="22"/>
		<circle class="st8" cx="912.5" cy="294.6" r="22"/>
		<circle class="st9" cx="890.5" cy="491.7" r="113.2"/>
		<path class="st10" d="M980.5,423.2c6.2,8.2,19,27.3,22.4,55.3c1.1,9.6,2.8,34-9.6,60.8c-7.7,16.7-18,28.1-24.9,34.6"/>
		<path class="st11" d="M1064.2,450h-22.7c-5.2,0-9.4-4.2-9.4-9.4v-22.7c0-5.2,4.2-9.4,9.4-9.4h22.7c5.2,0,9.4,4.2,9.4,9.4v22.7
			C1073.6,445.7,1069.4,450,1064.2,450z"/>
		<path class="st12" d="M1064.2,551.5h-22.7c-5.2,0-9.4-4.2-9.4-9.4v-22.7c0-5.2,4.2-9.4,9.4-9.4h22.7c5.2,0,9.4,4.2,9.4,9.4v22.7
			C1073.6,547.3,1069.4,551.5,1064.2,551.5z"/>
		<path class="st13" d="M1354.2,426.2h-266.4c-3.2,0-5.9-2.6-5.9-5.9v-3c0-3.2,2.6-5.9,5.9-5.9h266.4c3.2,0,5.9,2.6,5.9,5.9v3
			C1360.1,423.5,1357.4,426.2,1354.2,426.2z"/>
		<path class="st13" d="M1254.6,447h-166.8c-3.2,0-5.9-2.6-5.9-5.9v-3c0-3.2,2.6-5.9,5.9-5.9h166.8c3.2,0,5.9,2.6,5.9,5.9v3
			C1260.5,444.3,1257.9,447,1254.6,447z"/>
		<path class="st13" d="M1364.8,529h-266.4c-3.2,0-5.9-2.6-5.9-5.9v-3c0-3.2,2.6-5.9,5.9-5.9h266.4c3.2,0,5.9,2.6,5.9,5.9v3
			C1370.7,526.3,1368,529,1364.8,529z"/>
		<path class="st13" d="M1265.2,549.8h-166.8c-3.2,0-5.9-2.6-5.9-5.9v-3c0-3.2,2.6-5.9,5.9-5.9h166.8c3.2,0,5.9,2.6,5.9,5.9v3
			C1271.1,547.1,1268.4,549.8,1265.2,549.8z"/>
		<path class="st14" d="M969.8,806H811.1c-18.7,0-33.9-15.2-33.9-33.9v-79.7c0-18.7,15.2-33.9,33.9-33.9h158.7
			c18.7,0,33.9,15.2,33.9,33.9v79.7C1003.7,790.8,988.5,806,969.8,806z"/>
		<path class="st13" d="M1364.8,674.9h-325.4c-3.2,0-5.9-2.6-5.9-5.9v-3c0-3.2,2.6-5.9,5.9-5.9h325.4c3.2,0,5.9,2.6,5.9,5.9v3
			C1370.7,672.3,1368,674.9,1364.8,674.9z"/>
		<path class="st13" d="M1364.8,702h-325.4c-3.2,0-5.9-2.6-5.9-5.9v-3c0-3.2,2.6-5.9,5.9-5.9h325.4c3.2,0,5.9,2.6,5.9,5.9v3
			C1370.7,699.4,1368,702,1364.8,702z"/>
		<path class="st13" d="M1846.9,752.8h-373.5c-3.2,0-5.9-2.6-5.9-5.9v-3c0-3.2,2.6-5.9,5.9-5.9h373.5c3.2,0,5.9,2.6,5.9,5.9v3
			C1852.7,750.1,1850.1,752.8,1846.9,752.8z"/>
		<path class="st15" d="M1836.5,709h-352.7c-9,0-16.3-7.3-16.3-16.3v-24.3c0-9,7.3-16.3,16.3-16.3h352.7c9,0,16.3,7.3,16.3,16.3
			v24.3C1852.7,701.8,1845.5,709,1836.5,709z"/>
		<path class="st13" d="M1846.9,789.5h-373.5c-3.2,0-5.9-2.6-5.9-5.9v-3c0-3.2,2.6-5.9,5.9-5.9h373.5c3.2,0,5.9,2.6,5.9,5.9v3
			C1852.7,786.9,1850.1,789.5,1846.9,789.5z"/>
		<path class="st13" d="M1846.9,822h-373.5c-3.2,0-5.9-2.6-5.9-5.9v-3c0-3.2,2.6-5.9,5.9-5.9h373.5c3.2,0,5.9,2.6,5.9,5.9v3
			C1852.7,819.3,1850.1,822,1846.9,822z"/>
		<path class="st13" d="M1846.9,858.7h-373.5c-3.2,0-5.9-2.6-5.9-5.9v-3c0-3.2,2.6-5.9,5.9-5.9h373.5c3.2,0,5.9,2.6,5.9,5.9v3
			C1852.7,856.1,1850.1,858.7,1846.9,858.7z"/>
		<path class="st13" d="M1846.9,897.4h-373.5c-3.2,0-5.9-2.6-5.9-5.9v-3c0-3.2,2.6-5.9,5.9-5.9h373.5c3.2,0,5.9,2.6,5.9,5.9v3
			C1852.7,894.8,1850.1,897.4,1846.9,897.4z"/>
		<path class="st13" d="M1846.9,934.2h-373.5c-3.2,0-5.9-2.6-5.9-5.9v-3c0-3.2,2.6-5.9,5.9-5.9h373.5c3.2,0,5.9,2.6,5.9,5.9v3
			C1852.7,931.6,1850.1,934.2,1846.9,934.2z"/>
		<path class="st13" d="M1846.9,972.9h-373.5c-3.2,0-5.9-2.6-5.9-5.9v-3c0-3.2,2.6-5.9,5.9-5.9h373.5c3.2,0,5.9,2.6,5.9,5.9v3
			C1852.7,970.3,1850.1,972.9,1846.9,972.9z"/>
		<path class="st13" d="M1846.9,1009.7h-373.5c-3.2,0-5.9-2.6-5.9-5.9v-3c0-3.2,2.6-5.9,5.9-5.9h373.5c3.2,0,5.9,2.6,5.9,5.9v3
			C1852.7,1007,1850.1,1009.7,1846.9,1009.7z"/>
		<path class="st16" d="M1815.3,632.5h-315.7c-19.2,0-34.8-15.6-34.8-34.8V421.2c0-19.2,15.6-34.8,34.8-34.8h315.7
			c19.2,0,34.8,15.6,34.8,34.8v176.5C1850.1,616.9,1834.5,632.5,1815.3,632.5z"/>
		<g>
			<g>
				<path class="st17" d="M1651.2,500.5H1538c-11.8,0-21.4-9.6-21.4-21.4v-45.2c0-11.8,9.6-21.4,21.4-21.4h113.2
					c11.8,0,21.4,9.6,21.4,21.4v45.2C1672.6,490.9,1663,500.5,1651.2,500.5z"/>
				<path class="st18" d="M1776.9,500.5h-63.2c-11.8,0-21.4-9.6-21.4-21.4v-45.2c0-11.8,9.6-21.4,21.4-21.4h63.2
					c11.8,0,21.4,9.6,21.4,21.4v45.2C1798.3,490.9,1788.7,500.5,1776.9,500.5z"/>
			</g>
			<g>
				<path class="st14" d="M1663.7,520h113.2c11.8,0,21.4,9.6,21.4,21.4v45.2c0,11.8-9.6,21.4-21.4,21.4h-113.2
					c-11.8,0-21.4-9.6-21.4-21.4v-45.2C1642.3,529.6,1651.9,520,1663.7,520z"/>
				<path class="st18" d="M1538,520h63.2c11.8,0,21.4,9.6,21.4,21.4v45.2c0,11.8-9.6,21.4-21.4,21.4H1538
					c-11.8,0-21.4-9.6-21.4-21.4v-45.2C1516.6,529.6,1526.2,520,1538,520z"/>
			</g>
			<g>
				<g>
					<path class="st19" d="M1732.4,470.9c-1.5,0.8-4.6,1.5-8.6,1.5c-9.2,0-16.1-5.8-16.1-16.5c0-10.2,6.9-17.1,17-17.1
						c4.1,0,6.6,0.9,7.7,1.5l-1,3.4c-1.6-0.8-3.9-1.4-6.6-1.4c-7.6,0-12.7,4.9-12.7,13.5c0,8,4.6,13.1,12.5,13.1
						c2.6,0,5.2-0.5,6.9-1.4L1732.4,470.9z"/>
					<path class="st19" d="M1737.1,466.8c1.9,1.2,4.6,2.1,7.6,2.1c4.3,0,6.8-2.3,6.8-5.6c0-3-1.7-4.8-6.1-6.5
						c-5.3-1.9-8.6-4.6-8.6-9.2c0-5.1,4.2-8.9,10.6-8.9c3.3,0,5.8,0.8,7.2,1.6l-1.2,3.4c-1.1-0.6-3.2-1.5-6.2-1.5
						c-4.5,0-6.1,2.7-6.1,4.9c0,3,2,4.5,6.5,6.3c5.5,2.1,8.3,4.8,8.3,9.6c0,5-3.7,9.4-11.4,9.4c-3.1,0-6.6-0.9-8.3-2.1L1737.1,466.8
						z"/>
					<path class="st19" d="M1761,466.8c1.9,1.2,4.6,2.1,7.6,2.1c4.3,0,6.8-2.3,6.8-5.6c0-3-1.7-4.8-6.1-6.5
						c-5.3-1.9-8.6-4.6-8.6-9.2c0-5.1,4.2-8.9,10.6-8.9c3.3,0,5.8,0.8,7.2,1.6l-1.2,3.4c-1.1-0.6-3.2-1.5-6.2-1.5
						c-4.5,0-6.1,2.7-6.1,4.9c0,3,2,4.5,6.5,6.3c5.5,2.1,8.3,4.8,8.3,9.6c0,5-3.7,9.4-11.4,9.4c-3.1,0-6.6-0.9-8.3-2.1L1761,466.8z"
						/>
				</g>
			</g>
			<g>
				<g>
					<path class="st19" d="M1531.6,547c2-0.3,4.7-0.6,8.1-0.6c4.2,0,7.2,1,9.1,2.7c1.8,1.5,2.9,3.9,2.9,6.8c0,3-0.9,5.3-2.5,7
						c-2.2,2.4-5.9,3.6-10,3.6c-1.3,0-2.4,0-3.4-0.3v13.1h-4.2V547z M1535.9,562.8c0.9,0.2,2.1,0.3,3.5,0.3c5.1,0,8.2-2.5,8.2-7
						c0-4.3-3-6.4-7.7-6.4c-1.8,0-3.2,0.1-4,0.3V562.8z"/>
					<path class="st19" d="M1561.6,546.7v13.6h15.8v-13.6h4.3v32.6h-4.3V564h-15.8v15.3h-4.2v-32.6H1561.6z"/>
					<path class="st19" d="M1588.9,547c2-0.3,4.7-0.6,8.1-0.6c4.2,0,7.2,1,9.1,2.7c1.8,1.5,2.9,3.9,2.9,6.8c0,3-0.9,5.3-2.5,7
						c-2.2,2.4-5.9,3.6-10,3.6c-1.3,0-2.4,0-3.4-0.3v13.1h-4.2V547z M1593.2,562.8c0.9,0.2,2.1,0.3,3.5,0.3c5.1,0,8.2-2.5,8.2-7
						c0-4.3-3-6.4-7.7-6.4c-1.8,0-3.2,0.1-4,0.3V562.8z"/>
				</g>
			</g>
			<g>
				<g>
					<path class="st19" d="M1685.3,546.7h4.2v21.8c0,8.7-4.3,11.3-9.9,11.3c-1.5,0-3.4-0.3-4.5-0.8l0.6-3.4c0.9,0.3,2.1,0.6,3.5,0.6
						c3.8,0,6-1.7,6-8.1V546.7z"/>
					<path class="st19" d="M1701.8,569l-3.4,10.3h-4.4l11.1-32.6h5.1l11.1,32.6h-4.5l-3.5-10.3H1701.8z M1712.5,565.7l-3.2-9.4
						c-0.7-2.1-1.2-4.1-1.7-6h-0.1c-0.5,1.9-1,3.9-1.6,5.9l-3.2,9.4H1712.5z"/>
					<path class="st19" d="M1730.8,579.3l-10.6-32.6h4.5l5.1,16.1c1.4,4.4,2.6,8.4,3.5,12.2h0.1c0.9-3.8,2.3-7.9,3.7-12.1l5.5-16.1
						h4.5l-11.7,32.6H1730.8z"/>
					<path class="st19" d="M1753.1,569l-3.4,10.3h-4.4l11.1-32.6h5.1l11.1,32.6h-4.5l-3.5-10.3H1753.1z M1763.8,565.7l-3.2-9.4
						c-0.7-2.1-1.2-4.1-1.7-6h-0.1c-0.5,1.9-1,3.9-1.6,5.9l-3.2,9.4H1763.8z"/>
				</g>
			</g>
			<g>
				<g>
					<path class="st19" d="M1545.4,439.3V453h15.8v-13.6h4.3v32.6h-4.3v-15.3h-15.8v15.3h-4.2v-32.6H1545.4z"/>
					<path class="st19" d="M1579,442.9h-9.9v-3.6h24.2v3.6h-10v29h-4.3V442.9z"/>
					<path class="st19" d="M1624.3,457.6c-0.2-4.5-0.5-10-0.5-14.1h-0.1c-1.1,3.8-2.5,7.9-4.1,12.4l-5.8,15.8h-3.2l-5.3-15.5
						c-1.5-4.6-2.9-8.8-3.8-12.7h-0.1c-0.1,4.1-0.3,9.5-0.6,14.4l-0.9,14h-4l2.3-32.6h5.4l5.6,15.8c1.4,4,2.5,7.6,3.3,11h0.1
						c0.8-3.3,2-6.9,3.4-11l5.8-15.8h5.4l2,32.6h-4.1L1624.3,457.6z"/>
					<path class="st19" d="M1635.7,439.3h4.2v29.1h13.9v3.5h-18.2V439.3z"/>
				</g>
			</g>
		</g>
	</g>
	<g>
		<path class="st20" d="M1338.1,921.9V742.7c0-13.4-10.9-24.3-24.3-24.3H653.2c-13.4,0-24.3,10.9-24.3,24.3v179.2v376.5v24.4h709.4
			V921.9H1338.1z"/>
		<rect x="650.7" y="783.7" class="st5" width="662.1" height="539.2"/>
		<path class="st21" d="M756.1,852.8h-44.6c-6.2,0-11.3-5.1-11.3-11.3v-10.7c0-6.2,5.1-11.3,11.3-11.3h44.6
			c6.2,0,11.3,5.1,11.3,11.3v10.7C767.4,847.7,762.4,852.8,756.1,852.8z"/>
		<path class="st21" d="M756.1,921.9h-44.6c-6.2,0-11.3-5.1-11.3-11.3v-10.7c0-6.2,5.1-11.3,11.3-11.3h44.6
			c6.2,0,11.3,5.1,11.3,11.3v10.7C767.4,916.9,762.4,921.9,756.1,921.9z"/>
		<path class="st21" d="M756.1,997.4h-44.6c-6.2,0-11.3-5.1-11.3-11.3v-10.7c0-6.2,5.1-11.3,11.3-11.3h44.6
			c6.2,0,11.3,5.1,11.3,11.3v10.7C767.4,992.3,762.4,997.4,756.1,997.4z"/>
		<path class="st21" d="M756.1,1079.2h-44.6c-6.2,0-11.3-5.1-11.3-11.3v-10.7c0-6.2,5.1-11.3,11.3-11.3h44.6
			c6.2,0,11.3,5.1,11.3,11.3v10.7C767.4,1074.1,762.4,1079.2,756.1,1079.2z"/>
		<path class="st22" d="M756.1,1154.6h-44.6c-6.2,0-11.3-5.1-11.3-11.3v-10.7c0-6.2,5.1-11.3,11.3-11.3h44.6
			c6.2,0,11.3,5.1,11.3,11.3v10.7C767.4,1149.6,762.4,1154.6,756.1,1154.6z"/>
		<path class="st22" d="M756.1,1236.4h-44.6c-6.2,0-11.3-5.1-11.3-11.3v-10.7c0-6.2,5.1-11.3,11.3-11.3h44.6
			c6.2,0,11.3,5.1,11.3,11.3v10.7C767.4,1231.3,762.4,1236.4,756.1,1236.4z"/>
		<path class="st13" d="M1281.8,843.8H815.2c-4.5,0-8.1-3.6-8.1-8.1l0,0c0-4.5,3.6-8.1,8.1-8.1h466.5c4.5,0,8.1,3.6,8.1,8.1l0,0
			C1289.9,840.2,1286.2,843.8,1281.8,843.8z"/>
		<path class="st13" d="M985.1,913.3H815.2c-4.5,0-8.1-3.6-8.1-8.1l0,0c0-4.5,3.6-8.1,8.1-8.1h169.9c4.5,0,8.1,3.6,8.1,8.1l0,0
			C993.2,909.7,989.6,913.3,985.1,913.3z"/>
		<path class="st13" d="M1194.2,913.3h-166.8c-4.5,0-8.1-3.6-8.1-8.1l0,0c0-4.5,3.6-8.1,8.1-8.1h166.8c4.5,0,8.1,3.6,8.1,8.1l0,0
			C1202.3,909.7,1198.7,913.3,1194.2,913.3z"/>
		<path class="st13" d="M1131.9,988.8H815.2c-4.5,0-8.1-3.6-8.1-8.1l0,0c0-4.5,3.6-8.1,8.1-8.1h316.7c4.5,0,8.1,3.6,8.1,8.1l0,0
			C1140,985.2,1136.3,988.8,1131.9,988.8z"/>
		<path class="st13" d="M1156.2,1070.6h-341c-4.5,0-8.1-3.6-8.1-8.1l0,0c0-4.5,3.6-8.1,8.1-8.1h341c4.5,0,8.1,3.6,8.1,8.1l0,0
			C1164.3,1067,1160.7,1070.6,1156.2,1070.6z"/>
		<path class="st13" d="M1037.5,1146H815.2c-4.5,0-8.1-3.6-8.1-8.1v0c0-4.5,3.6-8.1,8.1-8.1h222.3c4.5,0,8.1,3.6,8.1,8.1v0
			C1045.6,1142.4,1042,1146,1037.5,1146z"/>
		<path class="st13" d="M1037.5,1227.8H815.2c-4.5,0-8.1-3.6-8.1-8.1l0,0c0-4.5,3.6-8.1,8.1-8.1h222.3c4.5,0,8.1,3.6,8.1,8.1l0,0
			C1045.6,1224.2,1042,1227.8,1037.5,1227.8z"/>
		<path class="st13" d="M1278.6,1227.8h-197.2c-4.5,0-8.1-3.6-8.1-8.1l0,0c0-4.5,3.6-8.1,8.1-8.1h197.2c4.5,0,8.1,3.6,8.1,8.1l0,0
			C1286.7,1224.2,1283.1,1227.8,1278.6,1227.8z"/>
		<circle class="st23" cx="666.8" cy="757.3" r="15.5"/>
		<circle class="st24" cx="717.5" cy="757.3" r="15.5"/>
		<circle class="st25" cx="767.4" cy="757.3" r="15.5"/>
	</g>
</g>
<g id="Character">
	<g>
		<path class="st4" d="M717.2,1114.7H319.2c-7.2,0-12.9,5.8-12.9,12.9v52.8v125.7v16.9h423.8v-16.9v-125.7v-52.8
			C730.1,1120.5,724.3,1114.7,717.2,1114.7z"/>
		<rect x="319.3" y="1144.3" class="st5" width="395.7" height="178.1"/>
		<rect x="333.9" y="1171" class="st22" width="134.1" height="134.1"/>
		<path class="st13" d="M695.5,1206.6H493.7c-2.9,0-5.2-2.3-5.2-5.2l0,0c0-2.9,2.3-5.2,5.2-5.2h201.8c2.9,0,5.2,2.3,5.2,5.2l0,0
			C700.8,1204.3,698.4,1206.6,695.5,1206.6z"/>
		<path class="st13" d="M695.5,1238.1H493.7c-2.9,0-5.2-2.3-5.2-5.2l0,0c0-2.9,2.3-5.2,5.2-5.2h201.8c2.9,0,5.2,2.3,5.2,5.2l0,0
			C700.8,1235.7,698.4,1238.1,695.5,1238.1z"/>
		<path class="st13" d="M613,1275.8H493.7c-2.9,0-5.2-2.3-5.2-5.2l0,0c0-2.9,2.3-5.2,5.2-5.2H613c2.9,0,5.2,2.3,5.2,5.2l0,0
			C618.2,1273.5,615.9,1275.8,613,1275.8z"/>
	</g>
	<g>
		<path class="st26" d="M2074.3,1128.5h-737.7c-13.1,0-23.7,10.6-23.7,23.7V1323H2098v-170.7
			C2098,1139.2,2087.4,1128.5,2074.3,1128.5z"/>
		<rect x="1335.5" y="1166.3" class="st5" width="737.1" height="156.6"/>
		<circle class="st5" cx="1343.7" cy="1149.4" r="8.3"/>
		<circle class="st5" cx="1376.3" cy="1149.4" r="8.3"/>
		<g>
			<g>
				<path class="st27" d="M1539.9,1198.3c16.1,0,32.1,0,48.2,0c38.6,0,77.1,0,115.7,0c46.8,0,93.7,0,140.5,0c40.3,0,80.7,0,121,0
					c13.3,0,26.6,0,39.9,0c4.1,0,8.3,0,12.4,0c1.9,0,4.6,0.5,6.5,0c0.2-0.1,0.6,0,0.8,0c0.7,0,0.7-1.1,0-1.1c-16.1,0-32.1,0-48.2,0
					c-38.6,0-77.1,0-115.7,0c-46.8,0-93.7,0-140.5,0c-40.3,0-80.7,0-121,0c-13.3,0-26.6,0-39.9,0c-4.1,0-8.3,0-12.4,0
					c-1.9,0-4.6-0.5-6.5,0c-0.2,0.1-0.6,0-0.8,0C1539.1,1197.1,1539.1,1198.3,1539.9,1198.3L1539.9,1198.3z"/>
			</g>
		</g>
		<g>
			<g>
				<path class="st27" d="M1539.9,1214.5c16.1,0,32.1,0,48.2,0c38.6,0,77.1,0,115.7,0c46.8,0,93.7,0,140.5,0c40.3,0,80.7,0,121,0
					c13.3,0,26.6,0,39.9,0c4.1,0,8.3,0,12.4,0c1.9,0,4.6,0.5,6.5,0c0.2-0.1,0.6,0,0.8,0c0.7,0,0.7-1.1,0-1.1c-16.1,0-32.1,0-48.2,0
					c-38.6,0-77.1,0-115.7,0c-46.8,0-93.7,0-140.5,0c-40.3,0-80.7,0-121,0c-13.3,0-26.6,0-39.9,0c-4.1,0-8.3,0-12.4,0
					c-1.9,0-4.6-0.5-6.5,0c-0.2,0.1-0.6,0-0.8,0C1539.1,1213.4,1539.1,1214.5,1539.9,1214.5L1539.9,1214.5z"/>
			</g>
		</g>
		<g>
			<g>
				<path class="st27" d="M1539.9,1236c16.1,0,32.1,0,48.2,0c38.6,0,77.1,0,115.7,0c46.8,0,93.7,0,140.5,0c40.3,0,80.7,0,121,0
					c13.3,0,26.6,0,39.9,0c4.1,0,8.3,0,12.4,0c1.9,0,4.6,0.5,6.5,0c0.2-0.1,0.6,0,0.8,0c0.7,0,0.7-1.1,0-1.1c-16.1,0-32.1,0-48.2,0
					c-38.6,0-77.1,0-115.7,0c-46.8,0-93.7,0-140.5,0c-40.3,0-80.7,0-121,0c-13.3,0-26.6,0-39.9,0c-4.1,0-8.3,0-12.4,0
					c-1.9,0-4.6-0.5-6.5,0c-0.2,0.1-0.6,0-0.8,0C1539.1,1234.9,1539.1,1236,1539.9,1236L1539.9,1236z"/>
			</g>
		</g>
		<g>
			<g>
				<path class="st27" d="M1539.9,1252.3c16.1,0,32.1,0,48.2,0c38.6,0,77.1,0,115.7,0c46.8,0,93.7,0,140.5,0c40.3,0,80.7,0,121,0
					c13.3,0,26.6,0,39.9,0c4.1,0,8.3,0,12.4,0c1.9,0,4.6,0.5,6.5,0c0.2-0.1,0.6,0,0.8,0c0.7,0,0.7-1.1,0-1.1c-16.1,0-32.1,0-48.2,0
					c-38.6,0-77.1,0-115.7,0c-46.8,0-93.7,0-140.5,0c-40.3,0-80.7,0-121,0c-13.3,0-26.6,0-39.9,0c-4.1,0-8.3,0-12.4,0
					c-1.9,0-4.6-0.5-6.5,0c-0.2,0.1-0.6,0-0.8,0C1539.1,1251.1,1539.1,1252.3,1539.9,1252.3L1539.9,1252.3z"/>
			</g>
		</g>
		<g>
			<g>
				<path class="st27" d="M1539.9,1273.8c16.1,0,32.1,0,48.2,0c38.6,0,77.1,0,115.7,0c46.8,0,93.7,0,140.5,0c40.3,0,80.7,0,121,0
					c13.3,0,26.6,0,39.9,0c4.1,0,8.3,0,12.4,0c1.9,0,4.6,0.5,6.5,0c0.2-0.1,0.6,0,0.8,0c0.7,0,0.7-1.1,0-1.1c-16.1,0-32.1,0-48.2,0
					c-38.6,0-77.1,0-115.7,0c-46.8,0-93.7,0-140.5,0c-40.3,0-80.7,0-121,0c-13.3,0-26.6,0-39.9,0c-4.1,0-8.3,0-12.4,0
					c-1.9,0-4.6-0.5-6.5,0c-0.2,0.1-0.6,0-0.8,0C1539.1,1272.6,1539.1,1273.8,1539.9,1273.8L1539.9,1273.8z"/>
			</g>
		</g>
		<g>
			<g>
				<path class="st27" d="M1539.9,1290c16.1,0,32.1,0,48.2,0c38.6,0,77.1,0,115.7,0c46.8,0,93.7,0,140.5,0c40.3,0,80.7,0,121,0
					c13.3,0,26.6,0,39.9,0c4.1,0,8.3,0,12.4,0c1.9,0,4.6,0.5,6.5,0c0.2-0.1,0.6,0,0.8,0c0.7,0,0.7-1.1,0-1.1c-16.1,0-32.1,0-48.2,0
					c-38.6,0-77.1,0-115.7,0c-46.8,0-93.7,0-140.5,0c-40.3,0-80.7,0-121,0c-13.3,0-26.6,0-39.9,0c-4.1,0-8.3,0-12.4,0
					c-1.9,0-4.6-0.5-6.5,0c-0.2,0.1-0.6,0-0.8,0C1539.1,1288.9,1539.1,1290,1539.9,1290L1539.9,1290z"/>
			</g>
		</g>
		<path class="st28" d="M1539.9,1233.1c8.5-2,22.2-3.9,36.9,0.8c29.3,9.2,30.4,33.9,51.9,40.1c28.8,8.3,41.5-32.1,92-40.1
			c37.6-6,48.4,13.6,77.8,1.6c30.8-12.6,32.5-39.5,51.9-39.3c26.5,0.3,29.9,51.1,64.5,57.4c20.7,3.8,29.3-12.7,71.5-17.3
			c16-1.7,29.5-1,38.5,0"/>
		<circle class="st12" cx="1541.8" cy="1232.8" r="5.4"/>
		<circle class="st12" cx="1635.1" cy="1275.1" r="5.4"/>
		<circle class="st12" cx="1752" cy="1235.5" r="5.4"/>
		<circle class="st12" cx="1827.1" cy="1214" r="5.4"/>
		<circle class="st12" cx="1850.5" cy="1196.1" r="5.4"/>
		<circle class="st12" cx="1920.4" cy="1254.3" r="5.4"/>
		<circle class="st12" cx="2024.9" cy="1235.5" r="5.4"/>
	</g>
	<g>
		<g>
			<g>
				<path class="st29" d="M248.7,1322.9c10.3,0,20.6,0,31,0c27.8,0,55.7,0,83.5,0c41.3,0,82.6,0,123.8,0c50.4,0,100.7,0,151.1,0
					c55,0,109.9,0,164.9,0c55.9,0,111.7,0,167.6,0c51.7,0,103.5,0,155.2,0c43.9,0,87.8,0,131.6,0c31.5,0,63.1,0,94.6,0
					c14.9,0,29.9,0.6,44.7,0c0.6,0,1.3,0,2,0c0.8,0,0.8-1.3,0-1.3c-10.3,0-20.6,0-31,0c-27.8,0-55.7,0-83.5,0
					c-41.3,0-82.6,0-123.8,0c-50.4,0-100.7,0-151.1,0c-55,0-109.9,0-164.9,0c-55.9,0-111.7,0-167.6,0c-51.7,0-103.5,0-155.2,0
					c-43.9,0-87.8,0-131.6,0c-31.5,0-63.1,0-94.6,0c-14.9,0-29.9-0.6-44.7,0c-0.6,0-1.3,0-2,0
					C247.9,1321.7,247.9,1322.9,248.7,1322.9L248.7,1322.9z"/>
			</g>
		</g>
		<g>
			<g>
				<path class="st29" d="M1496.2,1323.6c20.7,0,41.5,0,62.2,0c49.8,0,99.6,0,149.3,0c59.8,0,119.7,0,179.5,0c52,0,104,0,156,0
					c17.1,0,34.1,0,51.2,0c5.4,0,10.7,0,16.1,0c2.6,0,5.8,0.5,8.4,0c0.3-0.1,0.7,0,1,0c0.8,0,0.8-1.3,0-1.3c-20.7,0-41.5,0-62.2,0
					c-49.8,0-99.6,0-149.3,0c-59.8,0-119.7,0-179.5,0c-52,0-104,0-156,0c-17.1,0-34.1,0-51.2,0c-5.4,0-10.7,0-16.1,0
					c-2.6,0-5.8-0.5-8.4,0c-0.3,0.1-0.7,0-1,0C1495.4,1322.4,1495.4,1323.6,1496.2,1323.6L1496.2,1323.6z"/>
			</g>
		</g>
		<g>
			<g>
				<path class="st29" d="M2137.4,1322.9c4.6,0,9.3,0,13.9,0c0.8,0,0.8-1.3,0-1.3c-4.6,0-9.3,0-13.9,0
					C2136.6,1321.7,2136.6,1322.9,2137.4,1322.9L2137.4,1322.9z"/>
			</g>
		</g>
	</g>
	<g>
		<path class="st18" d="M825.5,1319.1H773c-15.2,0-27.5-12.3-27.5-27.5v-52.6c0-15.2,12.3-27.5,27.5-27.5h52.6
			c15.2,0,27.5,12.3,27.5,27.5v52.6C853,1306.8,840.7,1319.1,825.5,1319.1z"/>
		<g>
			<circle class="st30" cx="798.1" cy="1267.1" r="23.3"/>
			<rect x="793.5" y="1233.3" class="st5" width="11.6" height="11.6"/>
			<rect x="793.5" y="1290.3" class="st5" width="11.6" height="11.6"/>
			<rect x="763.3" y="1262.4" class="st5" width="11.6" height="11.6"/>
			<rect x="821.4" y="1262.4" class="st5" width="11.6" height="11.6"/>
			
				<rect x="771.8" y="1241.4" transform="matrix(0.6501 0.7598 -0.7598 0.6501 1219.7635 -154.4418)" class="st5" width="11.6" height="11.6"/>
			
				<rect x="814.7" y="1243.8" transform="matrix(-0.7071 0.7071 -0.7071 -0.7071 2284.2207 1552.9077)" class="st5" width="11.6" height="11.6"/>
			
				<rect x="774.1" y="1282.7" transform="matrix(0.6501 0.7598 -0.7598 0.6501 1251.8962 -141.7385)" class="st5" width="11.6" height="11.6"/>
			
				<rect x="812.6" y="1281.6" transform="matrix(-0.7071 0.7071 -0.7071 -0.7071 2307.3743 1619.0659)" class="st5" width="11.6" height="11.6"/>
		</g>
	</g>
	<g>
		<path class="st21" d="M750.1,1319.1h-36.8c-15.2,0-27.5-12.3-27.5-27.5v-36.8c0-15.2,12.3-27.5,27.5-27.5h36.8
			c15.2,0,27.5,12.3,27.5,27.5v36.8C777.6,1306.8,765.3,1319.1,750.1,1319.1z"/>
		<circle class="st31" cx="739.8" cy="1264.9" r="17.7"/>
		
			<rect x="708.9" y="1282.7" transform="matrix(0.746 0.666 -0.666 0.746 1044.5251 -146.1035)" class="st5" width="9.7" height="26.8"/>
	</g>
	<g>
		<path class="st32" d="M2092.7,1319.1h-36.8c-15.2,0-27.5-12.3-27.5-27.5v-36.8c0-15.2,12.3-27.5,27.5-27.5h36.8
			c15.2,0,27.5,12.3,27.5,27.5v36.8C2120.2,1306.8,2107.9,1319.1,2092.7,1319.1z"/>
		<polyline class="st33" points="2095,1251.7 2057.9,1275.1 2095,1298.5 		"/>
		<circle class="st5" cx="2095" cy="1252.4" r="7.8"/>
		<circle class="st5" cx="2056.9" cy="1275.1" r="7.8"/>
		<circle class="st5" cx="2092.9" cy="1297.3" r="7.8"/>
	</g>
	<g>
		<g>
			
				<rect x="1253.2" y="1240.5" transform="matrix(-0.97 0.2433 -0.2433 -0.97 2811.8733 2180.4736)" class="st34" width="36.1" height="46.8"/>
			<path class="st35" d="M1300.3,1278l-42,10.5c-12.4,9.8-26.2,17.8-42,23.5c0,0-9,8,2.7,10.6c11.7,2.6,86.1-17.5,86.1-17.5
				C1308.2,1297,1306.6,1288,1300.3,1278z"/>
			
				<rect x="1194.5" y="1251.7" transform="matrix(-1 6.010114e-03 -6.010114e-03 -1 2432.6958 2542.8848)" class="st34" width="36.1" height="46.8"/>
			<path class="st35" d="M1234.2,1294.6l-43.3,0.3c-14.4,6.6-29.7,11.1-46.4,12.8c0,0-10.7,5.6,0.1,10.9s87.8,3.4,87.8,3.4
				C1237.3,1314.9,1237.9,1305.8,1234.2,1294.6z"/>
			<path class="st36" d="M1271,1046.8c-3.3-1.7-0.8-53.4-0.8-53.4s22.5-135.8,15-140c-7.5-4.2-109.2,11.6-109.2,11.6
				c0,6.7,4.2,239.3,4.2,239.3s2.5,38.4,6.7,56.7c4.2,18.3,0,100,0,100v0c1.5,4.5,4.4,10.4,10,15c11.5,9.4,29.8,9.7,46.2,0.7l0,0
				c3.8,2.7,9.3,5.6,16.3,6.8c21.3,3.8,37.3-11.5,39.2-13.3C1298.5,1270.3,1274.3,1048.5,1271,1046.8z"/>
			<g>
				<path class="st37" d="M1189.8,944.1c1.4,6.9,2.7,13.8,4,20.7l3.7,20.7l3.5,20.8l1.7,10.4c0.5,3.5,1.1,6.9,1.6,10.4
					c-0.7-3.4-1.4-6.9-2-10.3l-1.9-10.4l-3.7-20.7l-3.5-20.8C1191.9,958,1190.8,951.1,1189.8,944.1z"/>
			</g>
			<g>
				<polygon class="st37" points="1214,1057.5 1217.9,1084.9 1221.7,1112.3 1229,1167.1 1236.2,1221.9 1239.7,1249.3 1243,1276.8 
					1239.2,1249.4 1235.4,1222 1228,1167.2 1220.9,1112.4 1217.4,1085 				"/>
			</g>
		</g>
		<g>
			<path class="st38" d="M1138.2,620l-22.7-30.9l-34.3-89.4c-3.5-13.3-17.8-41.4-24.4-56.1c-4.5-10-8.4-13.4-11.2-14.3
				c-1.9-0.7-3.8,1.3-3.3,3.5c1.4,6.5,4.7,21.6,6.4,29.2c1.6,7.1,3.5,18,4.5,22.8c-1.6-3.7-5.8-10-7.3-10.1
				c-1.8-0.1-3.1,19.8-1.1,23.6c1.5,3,4.9,7.3,8.4,10.7l-0.2,0.2l38.8,106.7l32.8,42.5l17.5-33.8L1138.2,620z"/>
			<path class="st39" d="M1290.9,846.9c-4-24.4-6-36.6-6.3-37.5c-2.7-8.9-3.9-24.1-6.3-54.4c-1.5-18.8-2.3-29.5-2.2-42.2
				c0.8-0.1,1.4-0.1,1.4-0.1s3.7-15.6,0.2-26.7c2.8-26.9,7.5-40-0.4-46.1c-6.7-5.1-21.3-4.2-29.5-1c-1.5,0.6-6.7,2.8-14.1,4.5
				c-4.8,1.1-7.2,1.7-9.1,1.4c-8.2-1.2-10.6-10.3-15.5-10.6l0-0.1c0,0-0.1,0-0.1,0.1c-0.2,0-0.3-0.1-0.5-0.1
				c-1.4,0.1-2.5,0.9-3.5,2.2c-8.2,3.8-14.8,3.5-17.6,3.2c-12-1.2-20.9-9.3-23.6-11.9c-6.6-6.4-7.6-11.5-12.8-12.4
				c-2.3-0.4-5.8,0-12.6,5.5c-2.5,2.1-26.4,21.7-20.4,38.8c1.5,4.4,5.4,7.5,13.1,13.7c9.4,7.6,14.8,9.2,22.5,14.5
				c5.7,3.9,13.3,10.3,20.7,20.9c0.6,0.2,1.1,0.3,1.5,0.3c-0.9,2.5-1.9,5.3-2.8,9.5c-2.2,10.1-2.8,17-4.7,47.5
				c-2.4,39.1-2.1,37.5-2.6,40.7c-1.7,10.3-4.1,19.1-3.1,32.7c0.7,10.5,2.8,15.9,5.8,20.1c1.4,1.9,5.5,7.3,14.7,11.1
				c24.3,10.1,38.4-9.3,69.7-4.8c0,0,10.8,1.6,24.1-1.1c6.3-1.2,10.3-2.9,12.6-6.3C1292.1,854.4,1291.3,849.4,1290.9,846.9z"/>
			<path class="st38" d="M1241.9,715.5l3.6,66.8c0,0.7,0,1.5-0.2,2.2L1224.5,888c-0.5,2.6,0.2,5.2,1.8,7.2l6.6,8
				c1.1,1.4,2.6,2.3,4.3,2.8l0,0c4.6,1.3,9.4-1.3,10.8-5.9l32.2-108.3c0.1-0.4,0.2-0.7,0.3-1.1c0.3-2.1,1.2-10.2-0.1-26.1
				c-1.1-13.5-2.3-37.9-2.8-50.7c-0.2-4.7-4-8.3-8.7-8.3l-27.4,7.4C1241.7,713.8,1241.8,714.7,1241.9,715.5z"/>
			<path class="st40" d="M1113.3,589.2c-0.5,0-3.1,0.1-5.2,2.2c-1.9,1.9-2.1,4.2-2.2,4.8"/>
			<path class="st40" d="M1247.2,781.8c1-0.8,2.9-2.1,5.7-2.6c2.2-0.4,4.1-0.2,5.2,0"/>
			<g>
				<path class="st41" d="M1199,646.6c-2.1,4.4-4,8.9-5.8,13.4c-1.8,4.5-3.5,9.1-4.9,13.8c-1.5,4.6-2.7,9.3-3.9,14.1
					c-1.1,4.7-2,9.5-2.8,14.4c0.2-2.4,0.5-4.9,0.8-7.3c0.4-2.4,0.8-4.8,1.3-7.2c1-4.8,2.2-9.5,3.7-14.2c1.5-4.7,3.2-9.3,5.1-13.8
					C1194.4,655.2,1196.6,650.8,1199,646.6z"/>
			</g>
			<g>
				<path class="st41" d="M1238.1,654.8c-0.8,1.8-1.6,3.7-2.3,5.6c-0.7,1.9-1.3,3.8-1.7,5.8c-0.9,3.9-1.4,7.9-1.4,11.9
					c-0.1,4,0.4,8,1.1,12c0.8,4,2,7.8,3.4,11.6c-0.9-1.8-1.7-3.7-2.4-5.6c-0.7-1.9-1.3-3.9-1.7-5.9c-0.9-4-1.4-8.1-1.4-12.2
					c0.1-4.1,0.6-8.2,1.7-12.1C1234.4,662.1,1236,658.3,1238.1,654.8z"/>
			</g>
			<g>
				<path class="st41" d="M1212.2,649.2c2.1,2.3,4.8,4.1,7.7,4.8c3,0.7,6.1,0.4,9.1-0.7c-1.3,0.9-2.8,1.5-4.4,1.8
					c-1.6,0.3-3.3,0.2-4.9-0.1c-1.6-0.4-3.1-1.1-4.4-2.1C1214,651.8,1212.9,650.6,1212.2,649.2z"/>
			</g>
		</g>
		<g>
			<g>
				<path class="st38" d="M1211.9,605.2c0,0,5.5,29.1,0,32.1c-5.5,3,10.9,9.3,10.9,9.3s25.7-1.5,28.3-9.7c2.6-8.2,0-41.4,0-41.4
					h-40.4L1211.9,605.2z"/>
				<path class="st38" d="M1173.9,554.2c0.3-0.2,0.6-0.5,0.8-0.7l9.5-37.2c4.5-17.4,23.8-27.6,43-22.7l0.8,0.2
					c19.2,4.9,31.3,23.2,26.8,40.6l-5,19.7c1.4,0,2.8,0.3,4.1,1.1c4.2,2.5,4.1,8.3,4,12.5c-0.1,2.7-0.2,7.9-4.3,12.4
					c-1.4,1.6-5.2,5.8-10.7,5.3c-0.4,0-0.7-0.1-1.1-0.2c-4.5,17.4-23.8,27.6-43,22.7l-0.8-0.2c-19.2-4.9-31.3-23.2-26.8-40.6
					l1.3-5.1c-0.1-0.1-0.2-0.1-0.3-0.1c-0.2-0.1-2.7-1.6-2.7-3.4C1169.6,556.6,1171.9,555.7,1173.9,554.2z"/>
				<path class="st40" d="M1243.2,556.3c0.8,0.4,3.6,1.7,5.3,5c1.9,3.6,1.1,7,0.8,7.8"/>
				<path class="st40" d="M1212.6,608.9c0,0,4.2-0.6,6.2-2.6c2-2,3-3,3-3l-8.7,9.5L1212.6,608.9z"/>
			</g>
			<g>
				<path class="st42" d="M1181.7,513.7c3.7,1.3,6.9,0.8,11.4,0c8.6-1.5,9.7-4,14.9-4.5c6.2-0.6,12.8,2.1,16.9,6
					c4.3,4,2.7,6.2,10.4,24.4c0,0,5.9,13.8,11.2,13.7c0.2,0,1,0,2,0.2c0,0,1.9,0.5,3.6,2.2c2.9,3,2.9,10.2,1.5,15.6
					c-1,3.9-2.6,6.2-3.2,7.1c-1.7,2.3-3.5,3.6-4,4c-1,0.7-2.1,1.4-3.8,1.8c-2,0.5-3.1,0-4,0.1c-3.7,0.3-7.7,8-7.6,14.8
					c0.1,7.4,5.8,12.6,9.3,16c5.4,5.3,7.8,4.6,9.7,8.2c3.1,6-1.5,11.7-3,20.1c-2.8,15.8,7.5,29.8,8.9,31.7
					c10.4,13.7,32.5,23.6,45.8,14.9c9.5-6.2,10.6-19.2,10.8-21.6c1.1-12.4-5.4-22.4-11.2-31.3c-5.7-8.9-7.6-8.2-12.3-15.7
					c-8.4-13.3-9.8-26.7-10.4-33.2c-1.6-16.7,2.9-21.8,5.2-44c1.8-17.8,2.6-26.8,0.4-34.7c-5.5-19.7-22.9-35.3-41.7-41.4
					c-5.8-1.9-22.7-7.1-40.6,0.7c-13,5.6-19.7,15.1-23.5,20.5c-7.3,10.2-6,14.9-5.6,16C1174.7,511.1,1181,513.4,1181.7,513.7z"/>
			</g>
		</g>
	</g>
	<g>
		<g>
			<path class="st34" d="M607.7,914.8l32.8,67.2c0,0,8.5,12.7-5.3,20.7c-13.8,8.1-77.7,47.9-77.7,47.9l-14-29.4
				c0,0,44.3-25.7,47.7-31.9c3.4-6.2-26.2-52.7-26.2-52.7L607.7,914.8z"/>
			<path class="st34" d="M349.1,928.8L325,999.6c0,0-6.8,13.6,7.9,19.9c14.7,6.3,83.1,37.7,83.1,37.7l10.2-30.9
				c0,0-47.2-19.9-51.4-25.7c-4.2-5.8,19.4-55.6,19.4-55.6L349.1,928.8z"/>
			<path class="st17" d="M422.5,827.6l-49.3,26.2c0,0-10,4.8-14.2,17.9c-4.2,13.1-18.9,52.9-18.9,52.9s28.3,36.2,58.7,30.9
				c0,0,5.5,26.7,6.4,39.8c0.9,13.1,157.6,11,157.6,11l3.1-62.4c0,0,23.6-5.2,44-29.9l-21-55c0,0-6.8-10-21.5-14.2
				s-37.2-8.3-50.3-17.8C504.2,817.7,422.5,827.6,422.5,827.6z"/>
			<g>
				<path class="st43" d="M401.2,946c1.1-4.4,2.3-8.8,3.5-13.2c1.2-4.4,2.5-8.7,3.7-13.1c1.3-4.3,2.6-8.7,4-13l2.1-6.5
					c0.7-2.2,1.4-4.3,2.2-6.5c-0.5,2.2-1.1,4.4-1.7,6.6L413,907c-1.2,4.4-2.5,8.7-3.7,13.1c-1.3,4.3-2.6,8.7-4,13
					C404,937.4,402.6,941.7,401.2,946z"/>
			</g>
			<g>
				<path class="st43" d="M565,936.6c-1.4-3-2.7-6-3.9-9c-1.3-3-2.5-6-3.7-9.1c-1.2-3-2.4-6.1-3.5-9.1l-1.7-4.6
					c-0.5-1.5-1.1-3.1-1.6-4.6c0.7,1.5,1.3,3,2,4.5l1.9,4.5c1.3,3,2.5,6,3.7,9.1c1.2,3,2.4,6.1,3.5,9.1
					C562.9,930.4,564,933.5,565,936.6z"/>
			</g>
			<g>
				<path class="st43" d="M455.1,865.4c3.9,1.3,7.8,2.4,11.7,3.2c4,0.7,8,1.5,12,1.9c4,0.4,8.1,0.2,11.9-0.9c3.9-1,7.5-2.9,10.8-5.4
					c-1.5,1.4-3.1,2.6-4.9,3.6c-1.8,1-3.7,1.8-5.6,2.5c-3.9,1.2-8.1,1.4-12.2,1.1c-2-0.2-4.1-0.5-6.1-0.9c-2-0.4-4-0.7-6-1.2
					C462.7,868.4,458.8,867.1,455.1,865.4z"/>
			</g>
			<path class="st40" d="M371.6,998.8c-1.2,0-3.6,0.3-6.1,1.7c-1.7,1-2.8,2.2-3.5,3"/>
			<path class="st40" d="M594.6,987.4c0.8-0.7,3.1-2.3,6.5-2.6c3.2-0.3,5.6,0.8,6.5,1.3"/>
		</g>
		<g>
			<g>
				
					<rect x="560.5" y="1251.2" transform="matrix(1 6.010114e-03 -6.010114e-03 1 7.6708 -3.4545)" class="st34" width="36.1" height="46.8"/>
				<path class="st44" d="M556.3,1294.6l43.3,0.3c14.4,6.6,29.7,11.1,46.4,12.8c0,0,10.7,5.6-0.1,10.9s-87.8,3.4-87.8,3.4
					C553.2,1314.9,552.6,1305.8,556.3,1294.6z"/>
			</g>
			<g>
				
					<rect x="381.6" y="1251.2" transform="matrix(-1 6.010114e-03 -6.010114e-03 -1 806.9232 2546.7222)" class="st34" width="36.1" height="46.8"/>
				<path class="st44" d="M421.9,1294.6l-43.3,0.3c-14.4,6.6-29.7,11.1-46.4,12.8c0,0-10.7,5.6,0.1,10.9s87.8,3.4,87.8,3.4
					C425.1,1314.9,425.6,1305.8,421.9,1294.6z"/>
			</g>
			<path class="st45" d="M405.3,1044.9c-26.3-4.8-48.3,0-48.3,0c0,0,0,0-0.1,0c-0.9,0.4-34.4,17.3-24.1,66.2
				c10.4,49,41.3,163.4,41.9,165.9c0,0.1,0,0,0,0.1c0.8,0.7,19.1,15.7,47.4,0.1c0.1,0,0.1-0.1,0.2-0.2c0.3-4.4,9.7-130.8-3.3-152.7
				c-0.1-0.2,0-0.4,0.2-0.4h138.4c0.2,0,0.3,0.2,0.2,0.4c-13,21.9-3.6,148.3-3.3,152.7c0,0.1,0.1,0.2,0.2,0.2
				c28.2,15.6,46.5,0.6,47.4-0.1c0,0,0,0,0-0.1c0.7-2.5,31.5-116.9,41.9-165.9c10.3-48.9-23.2-65.8-24.1-66.2c0,0,0,0-0.1,0
				c-14.8-4.2-29.6-8.2-48.3,0"/>
			<path class="st46" d="M496.4,1105.4c0,0-90.6,0-96.5,0c-5.9,0-5.3-1.9-5.3-1.9l-7.1-17.7h14.2h168.6h14.2l-7.1,17.7
				c0,0,0.6,1.9-5.3,1.9c-5.9,0-96.5,0-96.5,0"/>
			<rect x="398.3" y="993.1" class="st47" width="175.3" height="109.5"/>
			<path class="st5" d="M484.5,1030.4c8.3,0,15.1,6.7,15.1,15.1s-6.7,15.1-15.1,15.1V1030.4z"/>
			<g>
				<path class="st48" d="M419,1124.2c-0.8-0.9-1.1-2-1.6-3.1c-0.4-1.1-0.9-2.1-1.4-3.1c-1.1-2-2.4-3.8-4.1-5.4
					c-0.4-0.4-0.8-0.8-1.3-1.1l-0.6-0.6l-0.7-0.5c-0.5-0.3-0.9-0.7-1.4-1c-0.5-0.3-1-0.6-1.4-0.9c-0.9-0.6-2-1.1-3-1.7
					c-1-0.5-2.1-1-3.1-1.5c1.1,0.3,2.2,0.7,3.3,1.1c1.1,0.5,2.2,0.9,3.2,1.4c2.1,1,4,2.4,5.7,4c1.7,1.6,3.1,3.6,4.1,5.7
					c0.5,1.1,0.9,2.2,1.2,3.3C418.2,1122.1,418.4,1123.2,419,1124.2z"/>
			</g>
			<g>
				<path class="st48" d="M557.6,1123.8c0.2-1.2,0.4-2.5,0.7-3.7c0.3-1.2,0.6-2.5,1-3.7c0.4-1.2,0.9-2.4,1.5-3.6
					c0.3-0.6,0.7-1.1,1.1-1.7c0.5-0.5,1-0.9,1.6-1.3c1.1-0.7,2.2-1.4,3.4-1.9c1.2-0.5,2.4-0.9,3.6-1.2c2.5-0.6,5.1-0.9,7.6-0.7
					c-2.5,0.1-5,0.6-7.4,1.4c-2.4,0.8-4.6,1.8-6.7,3.3c-0.5,0.4-1,0.7-1.4,1.1c-0.4,0.4-0.7,0.9-1,1.5c-0.6,1.1-1.1,2.2-1.5,3.4
					C559.2,1119,558.5,1121.4,557.6,1123.8z"/>
			</g>
		</g>
		<g>
			<g>
				<path class="st34" d="M488.9,843.8h-34c-19.8,0-35.9-16.1-35.9-35.9v-39.2c0-19.8,16.1-35.9,35.9-35.9h34
					c19.8,0,35.9,16.1,35.9,35.9v39.2C524.8,827.7,508.7,843.8,488.9,843.8z"/>
			</g>
			<path class="st34" d="M524.7,789.6c4.3,0,6.4,1.7,7.1,2.4c5.1,4.7,1.2,14.2,0.8,15.3c-0.8,1.9-1.8,4.2-4.3,5.9
				c-2.7,1.8-5.6,1.7-6.7,1.6"/>
			<path class="st34" d="M419.3,791.3c-4.3,0-6.4,1.7-7.1,2.4c-5.1,4.7-1.2,14.2-0.8,15.3c0.8,1.9,1.8,4.2,4.3,5.9
				c2.7,1.8,5.6,1.7,6.7,1.6"/>
			<path class="st42" d="M412.3,793.7c0,0-9-22.4-6.3-35.4c2.6-12.1,14.7-27.2,16.3-29.3c0.1-0.2,0.3-0.3,0.4-0.4
				c1.9-1.8,16-14.4,26-15.1c10.7-0.8,11.1-3.5,34.7,0c23.6,3.5,38,11,41.4,13.4c3.4,2.4,6.9,5.9,6.9,22.8v37.8
				c0,2.5-2.1,4.5-4.6,4.3l-1.9-0.1c-2.3-0.2-4.1-2.1-4-4.4l0.4-12.3c0.1-2.6-2.2-4.8-4.8-4.4c-7.4,1-23.8-1.2-53.3-25.4
				c-1.7-1.4-4.2-1.4-5.8,0.2c-7.7,7.6-29.1,28.4-32.7,28.4c-3.2,0-4.5,9.5-4.9,14.3c-0.1,1.6-1.2,3-2.7,3.6L412.3,793.7z"/>
			<path class="st34" d="M444.9,839c1.6,1.4,0,6.7,0,6.7c0,21.5,60.8,24.7,60.8,0.9l-0.1-7.6H444.9z"/>
			<g>
				<path class="st49" d="M452.7,843.7c1.7,0.5,3.4,1,5.1,1.3c1.7,0.4,3.5,0.7,5.2,1c3.5,0.5,7,0.8,10.5,0.8c3.5,0,7-0.3,10.5-0.8
					c1.7-0.3,3.5-0.6,5.2-1c1.7-0.4,3.4-0.8,5.1-1.3c-1.6,0.7-3.3,1.3-5,1.8c-1.7,0.5-3.4,0.9-5.2,1.3c-3.5,0.7-7.1,1-10.7,1
					c-3.6,0-7.2-0.3-10.7-1C459.5,846.1,456,845.1,452.7,843.7z"/>
			</g>
			<path class="st40" d="M527.2,794.4c0.5,0.1,2.2,0.5,3.2,2c1.2,1.9,0.7,4.9-1.4,7"/>
			<path class="st40" d="M416.5,795c-0.7,0.5-1.9,1.5-2.6,3.2c-1.5,3.5,0.3,6.8,0.6,7.2"/>
		</g>
	</g>
	<g>
		<g>
			<path class="st50" d="M1617.5,874.1c0,0,15.2,31.9,26,37.1c10.9,5.2,16.1,1.5,16.1,1.5l-16.2-65.9l-14.1,19.1L1617.5,874.1z"/>
			<g>
				<path class="st51" d="M1703.2,1323h-37.3c-2.6,0-4.7-1.1-4.7-2.4l1.4-5c0.2-0.8,0.6-1.7,1.2-2.5c0.6-0.8,1.1-1.7,0.9-2.6
					c-0.4-1.7-0.7-6.2-0.8-6.7l-2.7-13.4c0-1.3,2.1-2.4,4.7-2.4h37.3c2.6,0,4.7,1.1,4.7,2.4l-2.6,18.4c-0.2,1.2-0.2,2.4,0.3,3.7
					l2.4,8C1707.9,1321.9,1705.8,1323,1703.2,1323z"/>
				<path class="st51" d="M1776.3,1323H1739c-2.6,0-4.7-1.1-4.7-2.4l1.4-5c0.2-0.8,0.6-1.7,1.2-2.5c0.6-0.8,1.1-1.7,0.9-2.6
					c-0.4-1.7-0.7-6.2-0.8-6.7l-2.7-13.4c0-1.3,2.1-2.4,4.7-2.4h37.3c2.6,0,4.7,1.1,4.7,2.4l-2.6,18.4c-0.2,1.2-0.2,2.4,0.3,3.7
					l2.4,8C1781,1321.9,1778.9,1323,1776.3,1323z"/>
				<path class="st52" d="M1714.6,976.4c-3,19.2,9.3,93.8,9.3,93.8l3.6,231.4c27,18.3,48,9.1,56.8-2.7
					c11.6-13.7-9.4-235.9-9.4-235.9c11.9-29.2,5.5-189.3,5.5-189.3l-136.3,0.6c0,0,0,160.3,12.9,188.9c0,0-12,223,0,236.1
					c13,11.6,32.7,15,56.2,0l-5.5-231.3c0,0,9.2-75.1,5.5-94.2"/>
				<g>
					<path class="st53" d="M1710.8,925.8c0.5,2.8,0.8,5.6,1,8.4c0.1,2.8,0.2,5.6,0,8.5c-0.5-2.8-0.8-5.6-1-8.4
						C1710.6,931.4,1710.5,928.6,1710.8,925.8z"/>
				</g>
			</g>
		</g>
		<g>
			<path class="st50" d="M1810.3,522.9c-1.2,0.8-2.7,0.7-3.8-0.1c-5.4-4.2-17.4-16.7-21.2-18.6c-4.4-2.2-2.2-26.4,0-26.4
				c2.2,0,10.2,10.4,10.3,13.2s-4.3-16.5-7.6-27.5c-2.5-8.4-7.3-25-9.4-32.2c-0.7-2.4,1.4-4.7,3.8-4c3.4,0.9,8.4,4.5,14.4,15.4
				c11.5,20.9,40.3,66.5,32.9,69.2C1824,514,1814.2,520.3,1810.3,522.9z"/>
			<g class="st54">
				<path class="st55" d="M1853.3,553.4l-33.2-58.6c-0.1-8.6-3.6-28-7.2-29.3c-3.9-0.8,2.8,22.6-1,21.2c-11.7-15.3-29-33.4-32-31.8
					c-2,1.1,14.8,18.6,13.4,19.6c-2.3,1.7-23.4-22.4-25.3-18.8c-1.7,3.2,19.3,23.4,17.2,23.9c0.4,3-17.2-18.6-20.2-16.3
					c-1.7,1.3,9.4,14,15.3,23.6c5.9,9.5-17.7-12.6-18.9-10.8c-3.4,5.1,23.7,27.1,35.3,36.5l24.1,49.4L1853.3,553.4z"/>
			</g>
			<path class="st56" d="M1879.2,616.2l-40.9-106.6c-1.5-4-5.7-6.4-9.8-5.6c-16.7,3.5-24.5,16.1-27.4,22.4c-1,2.2-1,4.6-0.2,6.8
				l26.9,70.1c1.7,4.3-0.4,9-4.5,11.1c-14.3,7.2-39.2,32.6-50.1,44.2c-2.8,2.9-7.7,3.4-11.1,1.2c-3.6-2.3-8.9-4.5-15.2-4.2
				c-11.3,0.5-51.5,0.1-59.5,0c-1,0-1.8,0.1-2.7,0.5c-4.6,1.6-21,7.2-39.7,10.3c-3.4,0.6-6.5,2.4-8.7,5.1c-14.5,18-69,85.7-69,85.7
				s-8.8,7.8,0,24.8c7.1,13.7,30.7,68.5,39.5,88.9c1.9,4.5,7.2,6.6,11.6,4.4c8.6-4.2,21.2-12.7,25.1-27.9c0.5-1.9,0.2-3.8-0.6-5.5
				c-4.6-9.8-20.7-44.3-26.7-57.2c-1.4-3-1-6.6,1.1-9.2l9.3-11.4c4.5-5.5,13.3-3.8,15.4,3c5.3,17.9,8,22,7.6,37.4
				c-0.5,18-4.9,37.5-5.4,39.8c0,0.2-0.1,0.3-0.1,0.5l-4.2,24.4c0,0.6-0.1,1.2-0.1,1.8c0.2,3,2.1,11.5,17,20.2
				c18.7,11,24.7,15.4,40.1,17c15.4,1.6,62-12.6,62-12.6s28.6-8.2,23.1-32.9c-5.5-24.7-20.9-54.4-18.1-85.1c1.3-14.6,3-33.3,4.4-49
				v0c0,0,61-52.6,90.6-77.9C1888.6,625.5,1879.2,616.2,1879.2,616.2z M1637.5,681.3c0,0,0,0.1,0,0.2L1637.5,681.3L1637.5,681.3z"/>
			<g>
				<path class="st57" d="M1765.3,669.5c0.3,3.7,0.4,7.5,0.5,11.2c0.1,3.7,0.2,7.5,0.3,11.2c0,3.7,0.1,7.5,0,11.2l-0.1,5.6
					c-0.1,1.9-0.1,3.7-0.2,5.6c-0.1-1.9-0.2-3.7-0.3-5.6l-0.2-5.6c-0.1-3.7-0.2-7.5-0.3-11.2c0-3.7-0.1-7.5,0-11.2
					C1765.1,677,1765.1,673.2,1765.3,669.5z"/>
			</g>
			<g>
				<path class="st57" d="M1641.1,674.8c0.3,5.5,0.5,10.9,0.6,16.4c0.2,5.5,0.2,10.9,0.3,16.4c0,5.5,0.1,10.9,0.1,16.4l0,8.2
					c0,2.7-0.1,5.5-0.1,8.2c-0.2-2.7-0.2-5.5-0.4-8.2l-0.3-8.2c-0.2-5.5-0.2-10.9-0.3-16.4c0-5.5-0.1-10.9-0.1-16.4
					C1640.9,685.7,1640.9,680.3,1641.1,674.8z"/>
			</g>
			<g>
				<path class="st57" d="M1613.3,779.1c-2.5-1-5-1.8-7.6-2.2c-2.6-0.4-5.2-0.3-7.9-0.1c2.5-1,5.3-1.3,8-0.9
					C1608.6,776.3,1611.2,777.4,1613.3,779.1z"/>
			</g>
			<g>
				<path class="st5" d="M1830.6,607.4c2.2-0.9,4.8-1.2,7.2-0.8c2.4,0.4,4.7,1.5,6.5,3.1c-1.9-1.6-4.1-2.6-6.5-3
					C1835.3,606.2,1832.8,606.5,1830.6,607.4z"/>
			</g>
		</g>
		<g>
			<path class="st42" d="M1669.9,634.7c-7.4-5.8-19.5-13.8-27.9-28.4c-13.1-23-13.6-51.9-2.3-73.7c4.6-9,10.7-20.6,22.1-23.8
				c7.3-2,13.7,0.2,24.4-4.6c5.6-2.6,5.4-3.9,10.4-5.8c1.9-0.7,13.3-5,23.8,0c9.6,4.6,15.6,15.6,15.7,27.9c0,0,15.7,12.2,15.7,21.5
				s12.8,69.1-47,93.5C1704.7,641,1684.9,646.4,1669.9,634.7z"/>
			<path class="st57" d="M1667.3,595.8c-3.5-0.6-5.6-5.5-6-8.8c-0.7-4.8,1.5-10.1,5.5-12.6c5.8-3.7,11.3,1.5,18.1-2.7
				c2.6-1.7,2.4-2.8,5.5-4.4c1.4-0.7,5.9-3,11.5-1.6c5.8,1.4,8.8,5.6,9.9,7.1c0.9,1.3,3.5,5.4,3.3,11c0,0.5-0.4,8.1-3.4,8.8
				c-2.6,0.6-3.9-4.4-9.3-7.6c-6.2-3.6-14.7-2.8-20.5-0.1C1673.3,588.9,1671.8,596.6,1667.3,595.8z"/>
			<path class="st42" d="M1721.6,693c-4.7-7.9-6.2-15-9.3-29.1c-0.6-2.6-1.2-5.3-1.7-8h21.7c-1.5-9-4.8-13-7.6-15
				c-3.9-2.7-7.5-2-11.7-5.6c-2.2-1.9-3.6-4.2-4.6-6.2c0-0.7,0-1.3,0-2c1.5-19.9,8.4-25.2,3.8-33.5c-4.3-7.8-15.7-12.8-25.8-10.4
				c-8.1,1.9-12.5,7.7-13.7,9.3c-5.9,7.9-6.4,18.6-3.3,26.4c3.2,8.1,8,7.4,12.1,17c3.2,7.6,2.9,14.6,2.7,17.6
				c-0.6,11.3-5.3,12.5-8.2,25.3c-1.3,5.5-3.6,16.2,0.5,28c1.2,3.5,4.3,11.9,12.6,18.1c8.6,6.5,22.6,10.5,34,4.4
				c1.7-0.9,10.7-5.7,11.5-13.7C1735.6,708,1728.6,704.8,1721.6,693z"/>
			<path class="st58" d="M1705.8,536.2"/>
		</g>
	</g>
	<g>
		<rect x="1385.5" y="1187.5" class="st26" width="109.5" height="109.5"/>
		<g>
			<path class="st7" d="M1465,1244c-1.9-2.1-3.8-4.2-5.8-6.2c-2.2-2.4-3.4-2.5-5.9-0.5c-0.8,0.6-1.6,1.4-2.4,2
				c-3,2.5-4.2,2.4-6.8-0.4c-3.1-3.4-6.2-6.8-9.4-10.2c-2.9-3.1-5.4-2.9-8,0.3c-7.3,8.8-25.6,30.4-29.8,36c-0.5,0.6-0.7,1.4-0.7,2.1
				l0,0c0,4.6,2.1,6.7,6.7,6.7c12.5,0,24.9,0,37.4,0c12.5,0,24.9,0,37.4,0c2.9,0,4.8-0.8,5.8-2.6c1.1-1.9,0.8-4.3-0.6-5.9
				C1479.1,1260.5,1468.5,1247.7,1465,1244z"/>
			<path class="st8" d="M1462.4,1229.6c-5.4,0-9.4-4.1-9.3-9.5c0-5.2,4.3-9.3,9.5-9.2c5.2,0.1,9.4,4.4,9.3,9.5
				C1471.8,1225.5,1467.6,1229.6,1462.4,1229.6z"/>
		</g>
	</g>
	<g>
		<path class="st32" d="M2055.8,1128.3h-87.9c-14.5,0-26.2-11.7-26.2-26.2v-4.9c0-14.5,11.7-26.2,26.2-26.2h87.9
			c14.5,0,26.2,11.7,26.2,26.2v4.9C2082,1116.6,2070.3,1128.3,2055.8,1128.3z"/>
		<g>
			<path class="st0" d="M1967.5,1097.9l22.5-11.6v3.4l-19,9.5v0.1l19,9.5v3.4l-22.5-11.6V1097.9z"/>
			<path class="st0" d="M2003.5,1114.1l13.6-35.2h3.3l-13.6,35.2H2003.5z"/>
			<path class="st0" d="M2056.2,1100.6l-22.5,11.6v-3.4l19.1-9.5v-0.1l-19.1-9.5v-3.4l22.5,11.6V1100.6z"/>
		</g>
	</g>
</g>
</svg>
