<svg xmlns="http://www.w3.org/2000/svg" xmlns:xlink="http://www.w3.org/1999/xlink" viewBox="0 0 4680 3120"><defs><style>.cls-1{fill:#d9d9d9;}.cls-2{fill:#fdb897;}.cls-3{isolation:isolate;}.cls-29,.cls-4{fill:#fff;}.cls-5{fill:#f2f2f2;}.cls-6{opacity:0.6;}.cls-7{fill:#d2e4f7;}.cls-8{fill:#6d6d79;}.cls-9{fill:#fefefe;}.cls-10{fill:none;stroke:#baccc6;stroke-linecap:round;stroke-linejoin:round;stroke-width:1.43px;}.cls-11{fill:#aed1f5;}.cls-12{fill:#f99b7a;}.cls-13{fill:#383838;}.cls-14{fill:#6f320a;}.cls-15{fill:#9c4611;}.cls-16{fill:#262626;}.cls-17{opacity:0.58;}.cls-18{clip-path:url(#clip-path);}.cls-19{fill:#b4b5b7;}.cls-20{clip-path:url(#clip-path-2);}.cls-21{clip-path:url(#clip-path-3);}.cls-22{fill:#5e1212;}.cls-23{fill:#f3693f;}.cls-24{fill:#496fc1;}.cls-25{fill:#034c8a;}.cls-26{fill:#2d538d;}.cls-27{fill:#e27c17;}.cls-28{fill:#ffaa3f;}.cls-29{opacity:0.2;}.cls-30{fill:#303030;}.cls-31{fill:#56585e;}.cls-32{fill:#0a2126;}.cls-33{fill:#004555;}.cls-34{fill:#1e0c00;}.cls-35{fill:#d4611b;}.cls-36{fill:#1980bb;}.cls-37{fill:#e9431b;}.cls-38{fill:#cc321d;}.cls-39{fill:#1b3a5f;}.cls-40{fill:#cef2fa;}.cls-41{fill:#5db9f4;}.cls-42{fill:#00485c;}.cls-43{fill:#f5911f;}.cls-44{clip-path:url(#clip-path-4);}.cls-45{fill:#ffc49a;opacity:0.32;mix-blend-mode:multiply;}.cls-46{clip-path:url(#clip-path-5);}.cls-47{fill:#47405c;}.cls-48{opacity:0.52;}.cls-49{fill:#ffc440;}.cls-50{opacity:0.5;}.cls-51{fill:#488ede;}.cls-52{fill:#3b80d3;}.cls-53{opacity:0.23;}.cls-54{fill:#8bd8fc;}.cls-55{fill:#3dc6bc;}.cls-56{fill:#148f8b;}.cls-57{fill:#fd7322;}</style><clipPath id="clip-path"><path class="cls-1" d="M3603.89,1248.54c7.78,10.65,12.69,23.65,17.68,35.73,6.29,15.23,11.95,30.71,17.23,46.31a746.59,746.59,0,0,1,26,96.35c13.64,70.12,16.39,141.64,20.78,212.76,4.71,76.28,16.7,157.89,8.84,233.9-.75,7.27-86.69-9-94.35-13.46,8.83-34.59,11-75.49,13.74-110.56-16,20.85-30.44,43.23-45.42,64.93-3.87,5.61-8.08,11.51-14.38,14.13-5.35,2.23-11.39,1.74-17.14,1.07a330.1,330.1,0,0,1-182.29-83.14c76.17-47.79,55.48-94.58,44.87-174.22-7.3-54.84-5.32-112.57,10.66-166.32a312.68,312.68,0,0,1,35.37-78.52c16.1-25.35,38.62-48.15,57.16-72l88.89-19.15Z"/></clipPath><clipPath id="clip-path-2"><path class="cls-2" d="M3519,1622c-2.57,22.18-10.13,44.14-19,64.53-4.42,10.13-10,19.55-18.09,27.2-13.58,12.89-31.48,21.07-48.35,28.63-58.95,26.38-38,18.69-76,31.34-75.26,25.08-165,43.79-189.35,48.76-27.19,28.61-49.16,34.69-57.68,36.37a186.1,186.1,0,0,1-30.34,3.73c-8.63.31-17.38-.37-25.94,1.11-13.05,2.26-24.47,9.67-37.22,13-11.4,3-25.2-.53-27.1-14.08-.89-6.38,2.71-11.77,7-16.15,20-20.58,44.63-30.73,47.46-31.68,30.85-10.28,65.47-21.29,104.21-32.32,70.61-47.24,122.2-75.5,161.61-93.77,20.31-9.41,61.71-26.27,90-68.88a206.22,206.22,0,0,0,15.14-26.26Z"/></clipPath><clipPath id="clip-path-3"><path class="cls-2" d="M3485.74,1256.63c-.92-10.93-2.57-22-5.78-32-4.1-12.88-5.31-10.36-17.1-5.84-14.47,5.55-47.56,15.18-49.54-9.48-.07-.91-8.1-47.52-8.74-48.29-2.91-3.5-9.62-2.91-13.51-4.28-21.9-7.77,6.89-39.07,12.11-47.29,4.58-7.23-1-22.67-.91-30.7.09-4.9,2.68-9.21,4.4-13.67,2-5.25,2.29-10.41,2.55-16,.17-3.71.64-7.33,1.11-11,6.29,3.32,4.22-.78,11-.65,7.75.15,9.82,7.2,12.06,13.59,3.85,11,7.15,19.75,15.63,28,7.33,7.12,14,13,16,23.38.67,3.45-2.34,40.89,11.38,31.68,7.4-5,5.56-18.15,9.87-25.39a21.45,21.45,0,0,1,10.47-9.31c6.49-2.45,14.26-.45,19.17,4.44a22.15,22.15,0,0,1,5.81,19.15c-2.24,13.28-15.68,23.57-24.71,32.63,8.56,9.88,16.5,21.32,29.45,25.63,9.72,2.83,18,.67,27.1,6s15,14.2,19.86,23.24l15,28.1c-22.32-10.78-40.32-14.67-59.74.33-9.73,7.52-42.6,19.31-42.08,35C3486.51,1268.24,3486.23,1262.45,3485.74,1256.63Z"/></clipPath><clipPath id="clip-path-4"><path class="cls-2" d="M1478.61,1521.78s23.05,4.25,32.56,6.09,14.58,13.35,16.22,31.05-12.32,21.92-12.32,21.92c-.4,10.23-9.9,12-9.9,12-15.5,15.31-29.18,13.91-30.49,8.59s15.5-15.31,15.5-15.31-34.44-7.38-50.64,13-48.75,21.46-48.75,21.46l-44.59,13.81c-30.31-25.82-15.6-64.89-15.6-64.89l47.37-.57s33.18-28.06,52.83-44.42a34.45,34.45,0,0,1,30.22-7Z"/></clipPath><clipPath id="clip-path-5"><path class="cls-2" d="M921.07,1204.92c-2.13,3.11,53,56.77,58.74,61.7,19.6,16.88,29.66,33.46,42.77,56.47-1.28-13.22-6.84-67.66-3-107.66,2.79-28.71,10.44-50,28-43.24,16.86,6.46,55.37,17.66,57.67-11,.09-1.05,11.91-52.14,12.66-53,3.39-4.07,11.2-3.38,15.73-5,25.51-9-8-45.49-14.1-55.06-5.33-8.42-1.27-29.61-1.42-39-.1-5.71-3.12-10.73-5.12-15.92-6.44-16.77,2.63-37.93-22.5-29.91-21.94,7-43.34,17.18-64.76,25.66-10.07,4-20.26,8-31,9.43-9.83,1.3-20.56.58-28.74,6.18-10.94,7.49-12.54,22.73-12.92,36q-.82,29-.55,58.07C952.94,1136.25,942.78,1173.4,921.07,1204.92Z"/></clipPath></defs><title>04</title><g class="cls-3"><g id="_04" data-name="04"><rect id="_04-2" data-name="04" class="cls-4" width="4680" height="3120"/><rect class="cls-5" x="547.36" y="2345.94" width="3585.27" height="314.06" rx="157.03"/><g class="cls-6"><path class="cls-7" d="M2326.09,2051.14c-.47-4.62-1.17-6.5-.74-8.08,23-84-47.5-108.09-94.46-147.16-7.72-6.43-16.66-4.11-25.08-1.52-11.69,3.59-23.08,8.19-34.83,11.57-46,13.25-46.21,13.26-74.15-24.91-21.75-29.72-39.95-61.49-56-94.72-7.57-15.71-8.72-29.56,6.34-39.14,52.9-33.66,51.37-80,42.11-135.31-6.09-36.46-19.51-56.23-51.55-68.06-9.78-3.61-18.54-9.87-28.1-14.18-12.23-5.5-16-14.41-14.52-27.43a581.15,581.15,0,0,1,34.31-142.46c4.85-12.76,13.47-19.54,25.73-17.08,63.55,12.75,99.83-18.76,131.17-70.16,15.6-25.59,22.82-43.62,12-72.93-21.23-57.27-19.23-58.27,31.91-94.1,26.55-18.58,55.05-33.82,84.23-48,14.81-7.19,27.15-7.43,37.09,6,31.82,43,69.53,56.46,124.89,44.43,40.29-8.75,67.39-19,83.79-59.05,17.13-41.81,20.23-40.53,65.34-33.16,35.48,5.81,69.86,15.59,104.14,26.44,20.89,6.62,31.95,17.94,28.22,39.54-8.71,50.31,12.06,80.1,53.38,111,39.77,29.76,72.8,34.88,113.25,14.51,24.12-12.15,38.25-3.76,52.58,16,25.3,34.81,48,70.88,65.82,110.11,6.32,13.87,7.79,26.13-5.52,34.62-54.54,34.79-55,82.19-43,139.85,7,33.41,17.24,53.7,48.52,64.28,9.84,3.32,18.49,10,28.12,14.09,13.1,5.61,18.19,14.44,16.5,28.84-5.63,48-16.18,94.71-33,140.13-5.51,14.91-15.46,22.14-29.73,19.55-58.11-10.54-90.34,16.61-124.57,62.87-29.45,39.81-20.74,70.1-6.92,105,9.29,23.48,3.13,37.06-15.67,50.89-34.65,25.52-70.75,48.08-110,66-14.85,6.8-27.61,8.11-37-5.84-34.77-51.78-80-51.74-137.65-43.38-44.27,6.43-55.23,31.3-70.59,60.72-19.33,37-19.22,36.7-59.88,30.87a553.07,553.07,0,0,1-116.64-30.07C2335.12,2067.63,2323.68,2063.74,2326.09,2051.14Zm161.46-757.4c-150.75,30.73-241.72,168.56-210.74,319.3,30.7,149.36,168.22,240.63,317.37,210.63,150.4-30.26,243-169.17,212.46-318.62C2775.78,1354.19,2638.13,1263,2487.55,1293.74Z"/></g><g class="cls-6"><path class="cls-7" d="M3062.06,1240.64c-.35-3.47-.88-4.89-.55-6.07,17.29-63.12-35.68-81.18-71-110.52-5.79-4.83-12.5-3.09-18.83-1.14-8.78,2.7-17.33,6.15-26.16,8.69-34.55,10-34.7,10-55.69-18.71-16.33-22.32-30-46.18-42-71.13-5.69-11.8-6.55-22.2,4.76-29.4,39.72-25.28,38.58-60,31.62-101.62-4.57-27.38-14.65-42.23-38.71-51.12-7.35-2.71-13.92-7.41-21.1-10.64-9.19-4.14-12-10.83-10.91-20.6a436.54,436.54,0,0,1,25.77-107c3.64-9.59,10.12-14.68,19.33-12.83,47.71,9.57,75-14.09,98.5-52.69,11.72-19.22,17.14-32.77,9-54.77-15.94-43-14.43-43.77,24-70.67,19.94-14,41.35-25.41,63.26-36.06,11.12-5.4,20.39-5.58,27.86,4.52,23.89,32.31,52.21,42.39,93.78,33.36,30.27-6.57,50.62-14.28,62.94-44.34,12.86-31.41,15.19-30.44,49.06-24.91,26.65,4.36,52.48,11.71,78.21,19.86,15.7,5,24,13.47,21.2,29.69-6.54,37.78,9,60.16,40.09,83.38,29.87,22.35,54.68,26.2,85.05,10.9,18.12-9.13,28.73-2.83,39.5,12,19,26.14,36,53.22,49.42,82.68,4.75,10.42,5.85,19.63-4.14,26-41,26.13-41.29,61.73-32.28,105,5.23,25.08,13,40.33,36.45,48.27,7.38,2.5,13.88,7.49,21.11,10.58,9.85,4.22,13.67,10.84,12.4,21.66a454.33,454.33,0,0,1-24.76,105.24c-4.14,11.2-11.61,16.63-22.32,14.69-43.64-7.92-67.86,12.47-93.56,47.21-22.12,29.9-15.57,52.65-5.19,78.88,7,17.63,2.34,27.83-11.77,38.22-26,19.16-53.14,36.11-82.59,49.59-11.15,5.1-20.73,6.08-27.77-4.4-26.11-38.88-60.1-38.85-103.38-32.57-33.25,4.83-41.48,23.5-53,45.6-14.51,27.79-14.44,27.56-45,23.19a415.79,415.79,0,0,1-87.6-22.59C3068.85,1253,3060.25,1250.1,3062.06,1240.64Zm121.26-568.82c-113.21,23.08-181.53,126.59-158.26,239.8,23.05,112.17,126.33,180.71,238.34,158.18,113-22.72,182.53-127,159.56-239.28C3399.79,717.22,3296.41,648.76,3183.32,671.82Z"/></g><rect class="cls-8" x="1378.87" y="501.1" width="1539.2" height="1107.12" rx="8.27"/><rect class="cls-9" x="1414.11" y="525.39" width="1468.72" height="1058.54" rx="8.27" transform="translate(4296.94 2109.32) rotate(-180)"/><line class="cls-10" x1="2243.08" y1="1307.56" x2="1952.17" y2="1307.56"/><line class="cls-10" x1="2243.08" y1="1349.78" x2="1952.17" y2="1349.78"/><line class="cls-10" x1="2243.08" y1="1392.01" x2="1952.17" y2="1392.01"/><line class="cls-10" x1="2243.08" y1="1434.24" x2="1952.17" y2="1434.24"/><line class="cls-10" x1="2243.08" y1="1476.47" x2="2130.26" y2="1476.47"/><path class="cls-5" d="M2070.91,737.94h415.31a8.71,8.71,0,0,0,0-17.42H2070.91a8.71,8.71,0,0,0,0,17.42Z"/><path class="cls-1" d="M2070.91,798.23h415.31a8.71,8.71,0,0,0,0-17.42H2070.91a8.71,8.71,0,0,0,0,17.42Z"/><path class="cls-5" d="M2070.91,858.52h415.31a8.71,8.71,0,1,0,0-17.42H2070.91a8.71,8.71,0,0,0,0,17.42Z"/><path class="cls-1" d="M2070.91,918.8h415.31a8.71,8.71,0,1,0,0-17.42H2070.91a8.71,8.71,0,0,0,0,17.42Z"/><path class="cls-1" d="M2325.15,979.09h161.07a8.71,8.71,0,0,0,0-17.42H2325.15a8.71,8.71,0,0,0,0,17.42Z"/><g class="cls-6"><path class="cls-7" d="M1878.77,865.85h-38.85a52.7,52.7,0,0,1-1.25-11.38V767.66h101.54v140h-48.32a53.61,53.61,0,0,1-13.12-1.69Z"/></g><path class="cls-11" d="M1878.77,906a53.22,53.22,0,0,1-38.85-40.15h38.85Z"/><g class="cls-6"><path class="cls-7" d="M2723.58,865.85h-38.86a53.34,53.34,0,0,1-1.25-11.38V767.66H2785v140H2736.7a53.48,53.48,0,0,1-13.12-1.69Z"/></g><path class="cls-11" d="M2723.58,906a53.24,53.24,0,0,1-38.86-40.15h38.86Z"/><g class="cls-6"><path class="cls-7" d="M1701.44,1264.47H1618a114.37,114.37,0,0,1-2.68-24.43V1053.7h218v300.58H1729.6a113.67,113.67,0,0,1-28.16-3.64Z"/></g><path class="cls-11" d="M1701.44,1350.64a114.25,114.25,0,0,1-83.41-86.17h83.41Z"/><g class="cls-6"><path class="cls-7" d="M1636.85,828.13h-83.41a114.2,114.2,0,0,1-2.68-24.42V617.37h218V918H1665a114.14,114.14,0,0,1-28.16-3.64Z"/></g><path class="cls-11" d="M1636.85,914.31a114.26,114.26,0,0,1-83.41-86.18h83.41Z"/><path class="cls-12" d="M3044,2267.73c-13.74,67.37-8.32,136.49-17.66,204.6-42.15-16.69-89.92,13.84-133.07,2-11-3,37.15-143.46,46.16-176.42S3044,2267.72,3044,2267.73Z"/><path class="cls-13" d="M2728.21,2536.73c4.72,10.51,79.21,24.7,113.55,25s80.68-19.8,98.06-21.54,15.36,15.41,19.59,15.91c9.47,1.13,77.31.59,77.31.59s8.72-19,14.1-50.4c2.65-15.26,2.43-27.85.57-38.26-3.81-21.58-14.6-33.81-21.46-41.09,0,0-10.63,4.94-23.71,18.67s-81.63-2-81.63-2-2.25-5.52,2.62-14.49-19.91-25.32-35.66-21.46-11.52,24.92-24.17,34.86-101.89,37.57-127.06,40.31c-10.71,1.17-15,10-16.19,20.25C2722.53,2516.79,2726.58,2533.13,2728.21,2536.73Z"/><path d="M2728.21,2536.73c4.72,10.51,79.21,24.7,113.55,25s80.68-19.8,98.06-21.54,15.36,15.41,19.59,15.91c9.47,1.13,77.31.59,77.31.59s8.72-19,14.1-50.4c2.65-15.26,2.43-27.85.57-38.26-92.89,59.9-225,78.19-327.26,35C2722.53,2516.79,2726.58,2533.13,2728.21,2536.73Z"/><path class="cls-12" d="M3201.9,2160c39.45,51.22,91.93,89.89,134.62,138.43-37.8,19.71-45.48,72.45-80.43,95.86-8.88,6-79.15-114.67-97.05-141.36S3201.9,2160,3201.9,2160Z"/><path class="cls-13" d="M3198.91,2550c10.38,3.11,66.3-41.13,87.6-65.39s35.56-69.55,45-83,20.4-1.44,23.36-4.14c6.63-6,48-54.62,48-54.62s-8.15-17.89-27.16-41c-9.22-11.28-18.32-18.86-26.86-23.95-17.68-10.56-33-10.41-42.42-10,0,0-3,10.59-1.31,28.34s-51.66,56.8-51.66,56.8-5.31-1.8-8.7-10.78-30.24-1.42-37.19,12.16,10.63,23.52,9.92,38.62-36,95.56-49.5,115.15c-5.76,8.33-2.13,16.82,4.44,24C3181.24,2541.74,3195.35,2548.92,3198.91,2550Z"/><path d="M3198.91,2550c10.38,3.11,66.3-41.13,87.6-65.39s35.56-69.55,45-83,20.4-1.44,23.36-4.14c6.63-6,48-54.62,48-54.62s-8.15-17.89-27.16-41c-9.22-11.28-18.32-18.86-26.86-23.95-14.55,102.9-82.84,208.12-176.42,254.25C3181.24,2541.74,3195.35,2548.92,3198.91,2550Z"/><path class="cls-13" d="M3163,2302.79c-15.64-.33-30.88-7-45-23.27-50.66-58.29-92.8-117.57-124.73-186.3-16.93-36.43-23.6-70.73-32.82-108.64-4.19-17.26-9.18-33-14-49.75-2.51-8.74-4.5-17.45-4.84-26.37-.45-11.82,3.31-21.81,6.93-32.79,124.91-90.91,249.81-154.53,402.08-191.64,63.09,3.47,169.7,22.78,214.7,53.94s40.71,57.34,48.41,91.9.48,51.53-7.73,79.8a108.08,108.08,0,0,1-34.27,53c-13.48,11.27-30.67,12.55-47.27,13.17-31.45,1.19-63.75-5.26-94.44-11-67.17-12.52-133.25-25.3-201-30.64-16-1.27-30.87.6-45.88-.3s-27.86-3.31-42.28-4.61c-10.91-1-21.4-2.45-31.34,2.32-3.57,1.72-6.83,4.94-7.61,7.95s0,4.58.23,6.55c.88,7.33,4.28,13,7,19.49,6.07,14.27,10.43,27.24,17.54,41.54,13.74,27.63,29.44,53.5,49.56,78.31s39.49,49.1,64.42,71.21c19.79,17.55,47.37,35.53,57.76,59.69C3263.92,2243.61,3211.54,2303.8,3163,2302.79Z"/><path class="cls-2" d="M3551.67,1491.54c-4.18,19.85-12.87,39.09-22.62,56.79-4.85,8.79-10.72,16.85-18.66,23.1-13.37,10.52-30.25,16.4-46.15,21.83-7.43,2.54-14.92,4.94-22.42,7.28-16.26,5.07-32.65,9.8-49,14.69-38.28,11.49-57.84,15.73-63.39,16.8-22.75,4.39-56.3,8.13-99.32,3.19-1.85-.2-3.72-.44-5.6-.68a100.86,100.86,0,0,1-26.87,23.89,98.19,98.19,0,0,1-35.46,13.06c-8.29,1.25-15.14,1.56-27.76.82-2.4-.13-4.8-.36-7.2-.58a95.24,95.24,0,0,0-16.36-.59c-12,.94-23,6.69-34.77,8.62-10.57,1.73-22.75-2.59-23.33-15-.1-2.28.5-4.49,7.65-14,5.62-7.48,10.63-13.39,14.24-17.49,15.68-3.53,28.12-6.85,35.93-9,43-12,67.66-19.76,110.46-29.06,1.38-.25,3.13-.56,5.16-1s4.36-.87,6.89-1.44c47.91-10.62,65.52-27.26,120-56.27,3.11-1.65,6.33-3.34,9.69-5.07,31.07-16.06,49.32-23.18,65.32-36a116.25,116.25,0,0,0,16.23-15.87,151.94,151.94,0,0,0,15.9-22.49Z"/><path class="cls-12" d="M3446,1593.4a68.27,68.27,0,0,1-4.13,7.14c-16.26,5.07-32.65,9.8-49,14.69-38.28,11.49-57.84,15.73-63.39,16.8-22.75,4.39-56.3,8.13-99.32,3.19a553.57,553.57,0,0,0,123-98.76c3.11-1.65,6.33-3.34,9.69-5.07,31.07-16.06,49.32-23.18,65.32-36a29.1,29.1,0,0,1,9.86,6.45c6.33,6.35,9.23,15.29,11.36,24C3454.83,1548.24,3456.24,1572.81,3446,1593.4Z"/><path class="cls-14" d="M3629.13,1190.84a50.24,50.24,0,0,1-17.55,2.32c-2.08,9.35-6.13,14.41-9.14,17.21-3.5,3.25-12.86,6.46-31.6,12.19-20.89,6.39-19.1,7.9-25.86,8.48-21.24,1.82-39.06-18.68-61.09-44a303.49,303.49,0,0,1-23.26-30.94c2.92-5.8,4.95-11.56,4.93-17.18a121.57,121.57,0,0,1,26.85-76.17c4.31-5.33,9.28-10.43,15.63-13,12-4.81,26.28.94,34.58,10.83s11.66,23,13.27,35.83,1.71,25.86,4.66,38.42a87,87,0,0,0,13.14,29.52c8.09,11.67,22.12,22,35.58,17.5C3617,1179.25,3624.14,1183.65,3629.13,1190.84Z"/><path class="cls-15" d="M3647.74,1178.59a39.78,39.78,0,0,1-18.61,12.25,50.24,50.24,0,0,1-17.55,2.32c-2.08,9.35-6.13,14.41-9.14,17.21-3.5,3.25-12.86,6.46-31.6,12.19-20.89,6.39-19.1,7.9-25.86,8.48-21.24,1.82-39.06-18.68-61.09-44a303.49,303.49,0,0,1-23.26-30.94c-4.36-6.55-9.06-14-13.86-22.44a396.49,396.49,0,0,1-18.88-37.43c-1.48-3.36-2.81-6.5-4-9.39a92.86,92.86,0,0,1-26-39c-6.14-18.26-5.44-37.21,2.59-52.73,10.81-20.88,31.58-29.16,38.8-31.65,1.16-2.37,13.13-25.67,39.34-29.91,21.31-3.44,43.26,7.13,55.08,26.76,20.55-9.56,44.64-6.47,61.38,7.87,23.21,19.86,19.16,50.08,18.89,51.93,4.42,2.23,31.42,16.47,40.34,49,7.59,27.68-3,50.23-5.72,55.69C3660.37,1142.09,3659.71,1164.26,3647.74,1178.59Z"/><path class="cls-14" d="M3443.41,1071.78l-12.47,15.47a18.78,18.78,0,0,1-3.05,9c-1.48-3.36-2.81-6.5-4-9.39a92.86,92.86,0,0,1-26-39,93.43,93.43,0,0,0,1.71-10.44c1.2-12.13-2.94-12.77,8.35-16.85,2.54-.91,3.34-4.2,5.55-5.76,4.06-2.83,9.27,1.64,11.72,5.94,4,7,6.45,14.69,8.93,22.33Q3438.76,1057.38,3443.41,1071.78Z"/><path class="cls-13" d="M3678.27,1914.83c-7.66,19.17-18.08,40.62-34.47,53.87-13.77,11.15-32.31,14.86-49.33,17.63-32.23,5.23-65.25,6.11-97.84,5.86-71.35-.56-142.05-5.78-213.42-1.64-16.87,1-33.78,2.4-50.69,1.06-15.92-1.28-31.59-4.5-47.47-6.18-11.25-1.18-23.19-2.26-34.52-.75-.74.09-1.49.21-2.23.32-4.31.72-8.88,1.73-10.92,6a10.32,10.32,0,0,0-.81,2.72c-.25,1.44-.31,2.94-.45,4.31-.85,8.49-1.36,17-2.12,25.53-1.64,18.65-3.54,37.26-5.48,55.88-3.75,36-8.79,71.71-13.82,107.52-4.9,34.86-10.09,69.69-12.93,104.8-2.46,30.43-1.36,63.77-10,93.36a52.47,52.47,0,0,1-2,5.77c-1.71,4.07-4.09,7.65-7.77,9.49a12.75,12.75,0,0,1-5.88,1.34c-11,0-22.71-5.26-33.38-7.76-12.89-3-25.78-6-38.64-9.12q-8.07-2-16.14-4c-15.15-3.91-30.32-8-44.93-13.7a128.68,128.68,0,0,1-13-5.56l-.52-.26h0a41,41,0,0,1-9.33-6.48c-11.26-10.82-4.6-32.75-2.88-45.89,9.37-71.67,18.63-143.29,30.56-214.58,6.32-37.79,13.38-75.55,18.31-113.57,2.24-17.3,3-34.55,4.25-51.93a118,118,0,0,1,1.75-14.36,71,71,0,0,1,3.39-12.08c4.32-11.27,11.26-21.38,18.44-31L3415.69,1720s173.85,0,218.06,32.41,50.53,86.41,50.53,86.41C3689.35,1865.64,3688.45,1889.35,3678.27,1914.83Z"/><path class="cls-16" d="M2929.5,2361.31l63,16.15q-31.45-6.48-62.5-15.89l-2.91-.88,2.38.62Z"/><path class="cls-16" d="M3005.5,2380l-.21.73-12.77-3.27Q2999,2378.8,3005.5,2380Z"/><path class="cls-16" d="M3089.75,2390.89A761.78,761.78,0,0,1,3005.5,2380q27.28-93,54.54-185.95c16.63-56.69,26.56-158,76.53-200.33-.25,1.44-.31,2.94-.45,4.31-.85,8.49-1.36,17-2.12,25.53-1.64,18.65-3.54,37.26-5.48,55.88-3.75,36-8.79,71.71-13.82,107.52-4.9,34.86-10.09,69.69-12.93,104.8-2.46,30.43-1.36,63.77-10,93.36A52.47,52.47,0,0,1,3089.75,2390.89Z"/><path class="cls-16" d="M3678.27,1914.83c-7.66,19.17-18.08,40.62-34.47,53.87-13.77,11.15-32.31,14.86-49.33,17.63-32.23,5.23-65.25,6.11-97.84,5.86-71.35-.56-142.05-5.78-213.42-1.64-16.87,1-33.78,2.4-50.69,1.06-15.92-1.28-31.59-4.5-47.47-6.18-11.25-1.18-23.19-2.26-34.52-.75,6.2-2.52,13-3.58,19.73-4.58,66.28-9.87,132.35-9.17,195.68-32.08,50.4-18.23,39.44-50.49,4.94-79.27-40.64-33.9-98.58-43.16-149.3-23.87-33.71,12.81-63.72,22-100.91,19-29.46,15-52.29,42.27-84.55,49.44-20.9,4.65-43.15,5.65-64,1.2a71,71,0,0,1,3.39-12.08c4.32-11.27,11.26-21.38,18.44-31L3415.69,1720s173.85,0,218.06,32.41,50.53,86.41,50.53,86.41C3689.35,1865.64,3688.45,1889.35,3678.27,1914.83Z"/><g class="cls-17"><path class="cls-14" d="M3629.13,1190.84a50.24,50.24,0,0,1-17.55,2.32c-2.08,9.35-6.13,14.41-9.14,17.21-3.5,3.25-12.86,6.46-31.6,12.19-20.89,6.39-19.1,7.9-25.86,8.48-21.24,1.82-39.06-18.68-61.09-44a303.49,303.49,0,0,1-23.26-30.94c2.92-5.8,4.95-11.56,4.93-17.18a121.57,121.57,0,0,1,26.85-76.17c4.31-5.33,9.28-10.43,15.63-13,12-4.81,26.28.94,34.58,10.83s11.66,23,13.27,35.83,1.71,25.86,4.66,38.42a87,87,0,0,0,13.14,29.52c8.09,11.67,22.12,22,35.58,17.5C3617,1179.25,3624.14,1183.65,3629.13,1190.84Z"/></g><path class="cls-1" d="M3603.89,1248.54c7.78,10.65,12.69,23.65,17.68,35.73,6.29,15.23,11.95,30.71,17.23,46.31a746.59,746.59,0,0,1,26,96.35c13.64,70.12,16.39,141.64,20.78,212.76,4.71,76.28,16.7,157.89,8.84,233.9-.75,7.27-86.69-9-94.35-13.46,8.83-34.59,11-75.49,13.74-110.56-16,20.85-30.44,43.23-45.42,64.93-3.87,5.61-8.08,11.51-14.38,14.13-5.35,2.23-11.39,1.74-17.14,1.07a330.1,330.1,0,0,1-182.29-83.14c76.17-47.79,55.48-94.58,44.87-174.22-7.3-54.84-5.32-112.57,10.66-166.32a312.68,312.68,0,0,1,35.37-78.52c16.1-25.35,38.62-48.15,57.16-72l88.89-19.15Z"/><g class="cls-18"><path class="cls-19" d="M3418.87,1684.44c21.6-16,47.91-25.11,63.23-47.52,13.68-20,21.32-43.11,28.83-66,13.26-40.31,34.67-76,42.7-118.49,5.17-27.29.79-55.68,5.65-83-1.38,7.78,19.53,36.67,23.14,45.33a334.53,334.53,0,0,1,17.72,56c13.13,59,9.48,133.43-9.6,191a21.29,21.29,0,0,1-3.88,7.7,23,23,0,0,1-6.41,4.46c-19.71,10.58-30.38,16.33-40.91,35.55-12.05,22-23.56,44.43-38.81,64.43-13.72,18-26,37.91-29.86,60.2-33.91-.23-60.9-10.84-87-32.44-8.8-7.28-17.73-15.54-20.78-26.55-2.78-10.08-.12-20.91,4-30.52C3377.47,1720,3397.31,1700.39,3418.87,1684.44Z"/><path class="cls-19" d="M3608.3,1766.23l25-40.94c-.09,25.73-9.84,65.06-.16,89.15,14.74,36.68,32.1-5.1,36.66-23.46,14.48-58.35-1.88-121.41-5.56-181.21-4.67-76-7.74-151.16-7.74-227.36,33.73,5.23,64,46.71,75.56,78.84,42.31,118,43.82,250.2,4.23,369.14-11.52,34.61-1.63,62.11-27.93,87.38s-65.48,36.38-101.14,28.68c-20.33-4.38-41.78-18-43.29-38.77-.57-7.92,1.89-15.72,4.56-23.19a389.2,389.2,0,0,1,29-63"/></g><path class="cls-2" d="M3519,1622c-2.57,22.18-10.13,44.14-19,64.53-4.42,10.13-10,19.55-18.09,27.2-13.58,12.89-31.48,21.07-48.35,28.63-58.95,26.38-38,18.69-76,31.34-75.26,25.08-165,43.79-189.35,48.76-27.19,28.61-49.16,34.69-57.68,36.37a186.1,186.1,0,0,1-30.34,3.73c-8.63.31-17.38-.37-25.94,1.11-13.05,2.26-24.47,9.67-37.22,13-11.4,3-25.2-.53-27.1-14.08-.89-6.38,2.71-11.77,7-16.15,20-20.58,44.63-30.73,47.46-31.68,30.85-10.28,65.47-21.29,104.21-32.32,70.61-47.24,122.2-75.5,161.61-93.77,20.31-9.41,61.71-26.27,90-68.88a206.22,206.22,0,0,0,15.14-26.26Z"/><g class="cls-20"><path class="cls-12" d="M3455.38,1671.49c-2.21-15.9-22.82-29.84-34-37.49-3.5-2.39-35.84-25.91-39.22-17.53,6.26-15.94,21.2-31.15,31.58-45.24l95.31,32.65c24.74,8.48,27.55,17.07,31.67,44.45a166.26,166.26,0,0,1-17.61,102.83c-30.24,56.07-89.8,89.46-148.47,114.27A993.11,993.11,0,0,1,3114,1936.1c-34.28,4.38-70.61,6.6-101.94-8s-54.86-51.35-43.38-83.95c4.35-12.38,15.68-24,28.7-22.35,6,.75,11.24,4.12,16.61,6.85,26.05,13.26,57.59,12,85.4,2.95s52.7-25.09,77.23-41c45.06,8,85-15.35,126.25-31.95a854.79,854.79,0,0,0,90.56-42.75c14.8-8.08,50.89-16.7,59.32-31.39A20.08,20.08,0,0,0,3455.38,1671.49Z"/></g><path class="cls-2" d="M3485.74,1256.63c-.92-10.93-2.57-22-5.78-32-4.1-12.88-5.31-10.36-17.1-5.84-14.47,5.55-47.56,15.18-49.54-9.48-.07-.91-8.1-47.52-8.74-48.29-2.91-3.5-9.62-2.91-13.51-4.28-21.9-7.77,6.89-39.07,12.11-47.29,4.58-7.23-1-22.67-.91-30.7.09-4.9,2.68-9.21,4.4-13.67,2-5.25,2.29-10.41,2.55-16,.17-3.71.64-7.33,1.11-11,6.29,3.32,4.22-.78,11-.65,7.75.15,9.82,7.2,12.06,13.59,3.85,11,7.15,19.75,15.63,28,7.33,7.12,14,13,16,23.38.67,3.45-2.34,40.89,11.38,31.68,7.4-5,5.56-18.15,9.87-25.39a21.45,21.45,0,0,1,10.47-9.31c6.49-2.45,14.26-.45,19.17,4.44a22.15,22.15,0,0,1,5.81,19.15c-2.24,13.28-15.68,23.57-24.71,32.63,8.56,9.88,16.5,21.32,29.45,25.63,9.72,2.83,18,.67,27.1,6s15,14.2,19.86,23.24l15,28.1c-22.32-10.78-40.32-14.67-59.74.33-9.73,7.52-42.6,19.31-42.08,35C3486.51,1268.24,3486.23,1262.45,3485.74,1256.63Z"/><g class="cls-21"><path class="cls-12" d="M3420.7,1220.68c-3.23,4.53,52.46,3.56,77.79-29.78-8.9,24.95-55.43,66.06-55.43,66.06Z"/><path class="cls-12" d="M3592.54,1105.82c-10.76-6.78-23-7.75-34.44-12.08-10.22-3.88-19.37-9-30.27-11.21-21.35-4.37-43.78-.17-54.44,20.78-4.57,9-2.42,21.74,2.67,30.45a29.32,29.32,0,0,0,20.58-16.31c1.13-2.49,1.94-5.2,3.7-7.31s4.9-3.42,7.3-2.09a7.65,7.65,0,0,1,2.38,2.39,39.61,39.61,0,0,1,5.67,33.81c-2,6.56-6.61,10.71-10.11,16.6a6.42,6.42,0,0,0-1.23,3.5c.08,1.46,1.13,2.66,2.07,3.79a105.05,105.05,0,0,1,17.33,29.19c3.11,8.29,4.23,17.63,1.33,26-8.51,24.49-39.89,27.68-55.45,48.42-9.52,2.26-4.18,6.42-1.09,15.71s11.62,15.76,20.56,19.75a70.93,70.93,0,0,0,38,5.5c27.31-3.64,50.09-22.88,67.28-44.41,19.11-23.93,33.67-52.61,35.36-83.18S3618.43,1122.15,3592.54,1105.82Z"/></g><path class="cls-19" d="M3616.21,1260.71c-3.61-14.91-8.78-30.9-18.32-39.46-9.17-8.24-22.55.09-33.57,2.06-11.36,2-22.67,4-32.81,9.91-17.47,10.14-33.41,22.67-49.36,35-13.56,10.5-25.13,23-38.88,33.15-1.78,1.32-3.71,2.74-4.36,4.86a11.26,11.26,0,0,0-.23,3.76c.41,11-2.46,26.22-4.94,37,2.11-9.19,19.31-23.12,25.45-31,14.45-18.53,32-32.73,52.28-44.52,22-12.24,43.73-22.43,70-16,14.69,3.58,31.92,11.28,39.26,25.39C3619.39,1275.09,3618,1268,3616.21,1260.71Z"/><path class="cls-1" d="M3565.52,1656.24c-20.78,10.9-46.22,9.71-68.42,2.1s-41.84-21-61.19-34.3l-40.41-27.71c33.74-78.35,31.57-169,61.35-249.45,2.43-6.56,5.09-13,7.85-19.45l73.37,32.75c33.57,15,29.43,44.75,37.8,74.84,10.45,37.58,9,73.82,3.14,112.9C3576.91,1561.83,3575.43,1651,3565.52,1656.24Z"/><path class="cls-22" d="M3442.5,1179.41c-.2,9.64-16.42,13.27-23,7.27-.17-.15-.34-.32-.51-.5a10.48,10.48,0,0,1-1.76-2.46c-3.67-7.27,6.59-13.31,13.35-14,5-.46,10.55,2.37,11.7,7.24A9.66,9.66,0,0,1,3442.5,1179.41Z"/><path class="cls-23" d="M3442.5,1179.41c-.2,9.64-16.42,13.27-23,7.27a22.49,22.49,0,0,1,23-7.27Z"/><path class="cls-22" d="M3454.5,1072.43a51.6,51.6,0,0,0-23.07-6.56,43,43,0,0,0-18.12,3.32c-2.21.93-7.21,2.3-5.77,5.81,1.27,3.1,5.56,1.84,7.89,1.09,3.87-1.24,7.86-2.52,11.82-3.5A54.91,54.91,0,0,1,3454.5,1072.43Z"/><ellipse class="cls-22" cx="3422.04" cy="1100.68" rx="8.3" ry="6.08" transform="translate(2196.96 4480.18) rotate(-87.9)"/><path class="cls-22" d="M3438.21,1092.79a28.3,28.3,0,0,0-2.72-2c-.94-.61-1.89-1.17-2.86-1.69a25.49,25.49,0,0,0-6.07-2.34,26.24,26.24,0,0,0-3.2-.63,8.5,8.5,0,0,0-3.28.27,10.42,10.42,0,0,0-3.13,1.52,9.78,9.78,0,0,0-2.56,2.78l.13.28c1.07-.32,2-.62,3-.83s1.94-.33,2.89-.43l2.89-.27a14,14,0,0,1,3,0,23.69,23.69,0,0,1,3,.48,29.89,29.89,0,0,1,3,.8,36.51,36.51,0,0,1,5.85,2.39Z"/><rect class="cls-19" x="3463.06" y="2062.65" width="31.21" height="447.28"/><rect class="cls-1" x="3438.09" y="2267.03" width="81.16" height="152.96"/><path class="cls-1" d="M3205.43,2524.93c36.34-24.16,137.22-84.31,279-82.64,134.91,1.58,230.71,58.22,267.44,82.64v-25.35c-38.63-24.56-134.25-78.08-267.44-79.59-140-1.59-240.67,55.2-279,79.59Z"/><path class="cls-19" d="M3717,2524.93a34.95,34.95,0,1,1,34.95,34.94A34.94,34.94,0,0,1,3717,2524.93Z"/><path class="cls-19" d="M3170.49,2524.93a34.94,34.94,0,1,1,34.94,34.94A34.94,34.94,0,0,1,3170.49,2524.93Z"/><path class="cls-19" d="M3445.67,2524.93a33,33,0,1,1,33,33A33,33,0,0,1,3445.67,2524.93Z"/><path class="cls-24" d="M3654.08,2013.88v20.89a27.88,27.88,0,0,1-27.87,27.89H3280.64a27.89,27.89,0,0,1-27.89-27.89v-20.89a27.89,27.89,0,0,1,27.89-27.88h345.57a27.87,27.87,0,0,1,27.87,27.88Z"/><path class="cls-24" d="M3751.06,1548.62c-.2,5.26-.38,10.51-.51,15.76-.56,19.38-.79,38.74-.84,58.08-.12,40.13.53,80.27.53,120.71,0,17.11-11.45,31-25.58,31h-12.12c-14.13,0-25.58-13.88-25.58-31q-2.48-196.79-4.94-393.58a44.4,44.4,0,0,1,3.59-9.69c1.83-3.5,4.42-6.8,8-8.35l0,0c37.18-16.14,49.74,69.48,52.5,88.22C3752.38,1462.37,3752.71,1505.65,3751.06,1548.62Z"/><path class="cls-25" d="M3318.72,2066.23h308.11a132,132,0,0,0,132-132V1522.36a7,7,0,1,0-13.93,0v411.83a118.13,118.13,0,0,1-118.11,118.11H3318.72a7,7,0,1,0,0,13.93Z"/><path class="cls-26" d="M3652.36,2004.23a2704,2704,0,0,0-346.18,58.43h-25.54a27.89,27.89,0,0,1-27.89-27.89v-20.89a27.89,27.89,0,0,1,27.89-27.88h345.57A27.84,27.84,0,0,1,3652.36,2004.23Z"/><path class="cls-26" d="M3750.24,1743.17c0,17.11-11.45,31-25.58,31h-12.12c-14.13,0-25.58-13.88-25.58-31q-2.48-196.79-4.94-393.58a44.4,44.4,0,0,1,3.59-9.69,155.69,155.69,0,0,0,.82,16.43q7.86,82.38,23,163.86c7.13,38.39,22.11,70.8,40.28,102.27C3749.59,1662.59,3750.24,1702.73,3750.24,1743.17Z"/><polygon class="cls-27" points="2711.69 1646.76 2909.63 1646.76 2836.32 1334.31 2638.38 1334.31 2711.69 1646.76"/><polygon class="cls-28" points="2893.14 1646.76 2695.19 1646.76 2621.88 1334.31 2819.83 1334.31 2877.3 1579.25 2893.14 1646.76"/><rect class="cls-27" x="2737.35" y="1637.42" width="363.37" height="33.05" transform="translate(5838.06 3307.9) rotate(180)"/><rect class="cls-27" x="2710.04" y="1637.42" width="209" height="33.05" transform="translate(5629.07 3307.9) rotate(180)"/><path class="cls-4" d="M2735.2,1496.49c-2.88-17.26,1-33.93,8.61-37.22s16.16,8,19.05,25.31-1,33.93-8.6,37.22S2738.09,1513.76,2735.2,1496.49Z"/><path class="cls-29" d="M2893.14,1646.76h-39c-77.28-106.15-176-241.47-228.35-312.45h97.09l154.44,244.94Z"/><polygon class="cls-27" points="1793.11 1648.71 1668.29 1648.71 1714.52 1336.26 1839.34 1336.26 1793.11 1648.71"/><polygon class="cls-28" points="1849.73 1336.26 1803.52 1648.72 1678.69 1648.72 1724.92 1336.26 1849.73 1336.26"/><rect class="cls-27" x="1401.99" y="1639.37" width="363.37" height="33.05"/><path class="cls-29" d="M1834.39,1336.26l-77.54,312.46h-72.12l-4.87-3.72s65.79-201.56,100.46-308.74Z"/><rect class="cls-27" x="1583.68" y="1639.37" width="209" height="33.05"/><path class="cls-4" d="M1782.6,1498.45c2.89-17.27-1-33.94-8.6-37.23s-16.17,8-19.06,25.31,1,33.93,8.61,37.22S1779.72,1515.71,1782.6,1498.45Z"/><path class="cls-12" d="M3176.45,1663.08q21.12-9.51,41.38-20.8a99.33,99.33,0,0,1-20.14,16.15,98.19,98.19,0,0,1-35.46,13.06c-8.29,1.25-15.14,1.56-27.76.82-2.4-.13-4.8-.36-7.2-.58Z"/><rect class="cls-26" x="1513.61" y="1696.26" width="30.77" height="849.93"/><path class="cls-27" d="M2366.74,903.08c-9.76-13.69-19.91-27.76-34.23-36.57a67.47,67.47,0,0,0-17.86-7.62,72.42,72.42,0,0,0-56,8.27c-.66,6.77-.14,15.22,1.94,21.7s6.24,12.46,12.19,15.76c4,2.21,8.55,3.13,13.06,3.85a177.57,177.57,0,0,0,32.25,2.13"/><rect class="cls-30" x="2230.02" y="1982.57" width="64.55" height="88.98"/><rect class="cls-31" x="2232.93" y="2006.84" width="56.2" height="432.31"/><polygon class="cls-32" points="2567.16 2521.03 2297.99 2377.53 2297.99 2442.91 2491 2521.03 2491 2535.38 2567.16 2535.38 2567.16 2521.03"/><polygon class="cls-32" points="2297.99 2442.91 2225 2442.91 2225 2377.53 2225 2324.92 2297.99 2324.92 2297.99 2442.91"/><polygon class="cls-32" points="1955.83 2521.03 2225 2377.53 2225 2442.91 2031.99 2521.03 2031.99 2535.38 1955.83 2535.38 1955.83 2521.03"/><polygon class="cls-32" points="2236.93 2377.53 2236.93 2535.38 2218.91 2535.38 2218.91 2546.54 2297.99 2546.54 2297.99 2535.38 2281.26 2535.38 2286.51 2377.53 2236.93 2377.53"/><path class="cls-33" d="M2379.26,1764.76H2111.72l-73.5-455c-13.21-81.74,49.92-155.87,132.71-155.87h149.13c82.79,0,145.9,74.13,132.71,155.87Z"/><polygon class="cls-34" points="2075.25 1538.95 1965.45 1582.5 2032.88 1863.46 2062.39 1859.09 2030.05 1614.36 2088.42 1589.26 2075.25 1538.95"/><polygon class="cls-34" points="2408.44 1538.95 2502.44 1604.16 2486.81 1877.99 2448.89 1870.95 2462.15 1634.8 2386.84 1590.63 2408.44 1538.95"/><path class="cls-24" d="M2530.68,1908.7H2030.05v-49.61h451a49.62,49.62,0,0,1,49.62,49.61Z"/><path class="cls-35" d="M2385.08,959.58c1.76.27-4.23,69.28-5.13,75.75-4.24,30.67-9.19,78.13,9.89,104.73,14.21,19.8,41.08,27.89,54.18,48.44,13.51,21.21,8.43,48.59,6.91,73.68s4.74,55.56,28.32,64.27c-7,6.85-10.7,16.45-17.48,23.5-11.3,11.74-29.11,14.5-45.37,13.5-27.81-1.7-54.23-12.26-79.93-23s-51.88-22.44-70.12-43.32c-12.3-14.1-20.12-31.5-31.11-46.65-13.07-18-26.93-25.71-48-28.1-18-2-44.49-4.4-58.8-17.12-20-17.73,67.47-106.64,71.56-151.41C2210.58,937.42,2384.33,959.49,2385.08,959.58Z"/><path class="cls-2" d="M2382.45,1526.7l-4.28,134.2s63.59,12.06,81.13,5.33c9.73-3.73,11.57-70.59,8.51-147.9C2434.51,1515.54,2413.88,1515.42,2382.45,1526.7Z"/><path class="cls-36" d="M2466.68,1515.72c18.3-7.78,53.61-26.5,44.6-34-20.55-17.08-32.15-42.72-39-68.55s-9.55-52.58-16.07-78.49c-8.89-35.33-25.37-74.65-43.29-106.14a236.66,236.66,0,0,0-31-42.29c-1.46-1.59-11.81-9.79-11.8-11.87l-1.83,334.1,1.46,22.32c30.31-10.87,56.66-8.81,87.13-11.63C2458.21,1519.06,2461.86,1517.77,2466.68,1515.72Z"/><path class="cls-37" d="M2395.71,1908.7H2139.14s-76.76-85.53-76.76-144.55c0-21.58,14-51.52,31.15-84.24,29.75-56.79,68.92-122,60.57-166.33-4.93-26.19-9.07-73.27-12.32-124.23-.79-12.41-1.54-25.07-2.21-37.69-4-73.93-6.17-147.29-6.17-170.72,0-10.19,2.35-17.68,7-23.17,8.91-10.5,26.29-13.72,52-14.57,8.31-.29,17.51-.31,27.57-.25q4.56,0,9.33.07c10.17.08,21.15.2,32.91.2a269.23,269.23,0,0,1,46.93,3.64h0c56.93,10.1,90.59,42.78,99.37,116.49,11,92.09,9,224.3-10.7,320.79s19.73,46.06,48.24,113.49c.38.91.75,1.83,1.09,2.77C2472.55,1768.92,2395.71,1908.7,2395.71,1908.7Z"/><path class="cls-38" d="M2444.47,1787.5c-15.59,60.84-48.76,121.2-48.76,121.2H2139.14s-76.76-85.53-76.76-144.55c0-21.58,14-51.52,31.15-84.24a526.88,526.88,0,0,1,115.39-12.5,607.73,607.73,0,0,1,227.15,29.12c3.72,1.22,7.45,2.5,11.16,3.87C2455.91,1723.9,2452.58,1755.76,2444.47,1787.5Z"/><path class="cls-39" d="M2444.47,1787.5c-15.59,60.84-48.76,121.2-48.76,121.2H2139.16s-8.09-99.76,55.11-153.89c35.68-30.55,85.12-35.84,130.06-29.46a287,287,0,0,1,67.14,18.33C2404.25,1748.86,2449.56,1767.62,2444.47,1787.5Z"/><path class="cls-2" d="M2437.2,1826.44c-1,47.42-223.17,487.58-233,537.4s-13.66,63.91-21.93,86.89c-37,102.82-70.17,95.05-70.17,90.88-31-32.72-44.13-77.56,1.42-146.23,21.62-25.13,42.06-55.76,52.42-100,2.55-10.9,6.92-30.4,12.54-55.4,26.39-117.44,80.65-356.41,106.87-397.48q1.61-2.52,3.29-5.09c31.15-47,68.12-78.37,96.57-73.26a114.89,114.89,0,0,1,12.51,2.88c13.75,4,27.45,11.7,34.56,28.69C2435.57,1803.7,2437.45,1813.74,2437.2,1826.44Z"/><path class="cls-12" d="M2432.24,1795.72c-9.56-1.51-31.21-1.11-34.27,0-10.57,3.94-21.18,14-28,22.86-19.36,24.93-26.27,54.68-37.66,83.29-34.13,85.77-77.7,167.17-113.14,252.5-13.85,33.37-22.63,61.24-40.71,85.59,26.39-117.44,80.65-356.41,106.87-397.48q1.61-2.52,3.29-5.09c31.15-47,68.12-78.37,96.57-73.26a114.89,114.89,0,0,1,12.51,2.88C2411.43,1771.07,2425.13,1778.73,2432.24,1795.72Z"/><path class="cls-2" d="M2315,1800.58c-18.07-43.87-37.78-52.28-54.32-52.28-29.93,0-77.3,16.49-97.58,68.35-21.52,55-104.84,390.78-119.4,452.89-10.38,44.24-30.8,74.86-52.42,100-45.56,68.68-32.4,112.8-1.42,145.53,0,4.16,33.17,12.64,70.17-90.18,8.26-23,12.07-37.07,21.92-86.88S2333,1844.46,2315,1800.58Z"/><path class="cls-38" d="M2055.83,2436.13c-12.09,7.62-41.35,25.26-53,25.26-11.29,0-26.88-33.32-33.66-49.19-16.76,46.56-3.45,81.34,20.66,106.81C1994.37,2524.34,2020.56,2527.36,2055.83,2436.13Z"/><path class="cls-38" d="M2172.14,2476.46c-14.47,4.86-29.62,8.21-41.51,6.24-23.48-3.91-27.75-42.93-27.88-69.58-32.35,59.31-18.92,101.9,9.31,131.73C2117.32,2547.76,2139.41,2552.72,2172.14,2476.46Z"/><path class="cls-2" d="M2069,1577.57c-17.57-4.18,22.21-82.57,5.18-100.69-14.24-15.15-53-11.55-72-12.32-17.39,43.4-16.89,81.26-19.11,127.92-.74,15.5-9.64,73,7,83.92,26.33,17.39,245.23-53.88,267.35-53.88s11.16,10.26,44.05,10.26c19.38,0,32.88-3.63,40.71-6.61a9,9,0,0,0,5.21-11.76c-4.85-12.56-14.91-36.57-24-45.7-12.63-12.61-31.77,4.48-49.31,10S2092,1583.05,2069,1577.57Z"/><path class="cls-12" d="M2070,1526.81c.93-4.16,2-8.5,3-13a196.5,196.5,0,0,0-83-8.2c-1.13,10.83-2.16,21.5-3.09,31.9C2003.26,1534.41,2043.58,1527.18,2070,1526.81Z"/><path class="cls-36" d="M2148.22,1314.27c-.82,9.53-4,22.44-8.65,37.39-3.62,11.58-8.17,24.39-13.27,37.79-16,42-37.51,89.85-53.27,124.38.87-1.93-35.42-1.44-39.26-1.64a128.14,128.14,0,0,1-43.78-10.67c-26.24-11.54-46.36-32.42-55.89-59.6,21.6-22.94,33.07-50.84,45.3-78.58,5.69-12.94,11.54-25.85,18.66-38.19,21.61-37.49,39.15-79,68.87-111.13,7-7.6,73.63-55.48,73-60.13,0,0,.2,1.37.54,3.88C2142.89,1176.42,2153.05,1258.23,2148.22,1314.27Z"/><path class="cls-40" d="M2239.88,1657.46h157.86S2289.42,1622.45,2239.88,1657.46Z"/><path class="cls-41" d="M2549.11,1657.46H2397.74s58.33-12.21,97.67-12.21S2549.11,1657.46,2549.11,1657.46Z"/><polygon class="cls-42" points="2229.55 1657.46 2397.74 1657.46 2238.64 1653.75 2229.55 1657.46"/><path class="cls-2" d="M2299.61,1114.94c3,34.84,25.5,109.67,2.29,137.29-8.32,9.91-22.44,15.25-34.79,11.4-8.4-2.61-15.13-8.93-20.71-15.72a110.83,110.83,0,0,1-22.17-44.65c-4.61-19.42-10.93-30.22-10.8-49.87.12-19,4.28-38.8,6.36-57.69l7.61-69Z"/><path class="cls-12" d="M2299.61,1114.94l4.93,56.61a37.58,37.58,0,0,1-16.53-4.73c-45.79-24.67-52.54-92.56-53.35-131.25Z"/><path class="cls-2" d="M2359.35,1068.89s0,0,0,0a283,283,0,0,1-13.94,28.31c-7.05,12.57-17.17,23.75-31.46,27.76-21.38,6-46.63-2.42-63.53-15.89-10.57-8.43-22.14-16-28.59-28.4-5-9.5-4.51-19.12-5.52-29.49-1.63-16.37-6.54-32.07-8.67-48.36a159.54,159.54,0,0,1-1-30c1.63-26,9.94-54.14,32.19-64.24a84,84,0,0,1,20.36-6.19l.88-.15c17.11-2.85,35.18-1,52.13,3.35,2.25.57,4.49,1.2,6.71,1.87A82,82,0,0,1,2340,917c14.14,9.32,23.8,24.36,29.29,40.38C2381.81,993.87,2374.25,1033.65,2359.35,1068.89Z"/><path class="cls-36" d="M2315.51,1274.53c-2.62,21.39-4.55,43.77-10.22,64.63-.53,2-5.55,24.65-10.47,16.77-20.28-32.43-40.88-64.64-61.4-96.92-8.46-13.33-19-26.4-28.76-39.84-11.23-15.4-21.5-31.27-26.62-48.56-1.51-5.08-3-10.74-.6-15.47,1.57-3.15,4.57-5.29,7.51-7.22,2.48-1.63,5-3.21,7.52-4.72q3.47-2.09,7-4a209.3,209.3,0,0,1,19.75-9.48,130.86,130.86,0,0,0,.8,13.26,100.39,100.39,0,0,0,1.77,10.82,75.1,75.1,0,0,0,7.49,20.23c16,28.87,82.73,49.06,85.46,0,.51-9.29-2-18.48-5.55-27.12-.12-.3-.25-.6-.36-.89.13.3.25.6.38.89C2326.38,1187.8,2321.05,1229.4,2315.51,1274.53Z"/><path class="cls-12" d="M2016.77,1631.56c12.07-1.25,25.9-1,25.9,6.81,0,13.83-43.51,24.18-43.51,13C1999.44,1650.67,1999.66,1633.33,2016.77,1631.56Z"/><path class="cls-12" d="M2359.35,1068.89s0,0,0,0a87.28,87.28,0,0,0-7.57-16c-7.86-13.18-17.83-25.54-21.52-40.41-3-12-1.58-24.54-1.9-36.87-.37-13.86-5.26-33.32-17.5-41.86-8.83-6.17-2.54-5.26-12.32-1.38-5.08,2-11.4,8.44-15.6,12-8.66,7.38-17.18,19.79-22.23,29.94-6.6,13.23-15.66,27.29-30.12,30.62-4.56,1.06-11.2-1.08-10.27-5.64-1.66,4.84-6.09-2.21-8-6.94a93.09,93.09,0,0,1-5.39-18.32c1.68-26.56,10.25-55.3,33.08-65.63a86.85,86.85,0,0,1,19.24-6l.88-.15c17.11-2.85,35.18-1,52.13,3.35,2.25.57,4.49,1.2,6.71,1.87A82,82,0,0,1,2340,917c14.14,9.32,23.8,24.36,29.29,40.38C2381.81,993.87,2374.25,1033.65,2359.35,1068.89Z"/><path class="cls-38" d="M2234.08,1348.05c-9.38,14.72-34.35,22.4-50,30.1a113.94,113.94,0,0,1-42.28,11.2,121.16,121.16,0,0,1-15.48.1c5.1-13.4,9.65-26.21,13.27-37.79,4.68-15,7.83-27.86,8.65-37.39,4.83-56-5.33-137.85-7.8-156.5,8.91-10.5,26.29-13.72,52-14.57-2.55,1.51-5,3.09-7.52,4.72-2.94,1.93-5.94,4.07-7.51,7.22-2.37,4.73-.91,10.39.6,15.47,5.12,17.29,15.39,33.16,26.62,48.56-4.95,16.33-23.09,19.4-34.42,33-20.16,24.29,1,34.86,13.61,53.37C2194.28,1320.92,2220.49,1334.21,2234.08,1348.05Z"/><path class="cls-26" d="M2148.22,1314.27c-.82,9.53-4,22.44-8.65,37.39-3.62,11.58-8.17,24.39-13.27,37.79-1,0-2-.12-2.93-.2-11.33-.92-21.32-4.56-32.22-7-13.39-3-13.39-.3-26.13.15-18.44.64-37.2,1.26-55.06-3.37-11.12-2.87-22-8.09-30.56-15.64,5.69-12.94,11.54-25.85,18.66-38.19,21.61-37.49,39.15-79,68.87-111.13,7-7.6,73.63-55.48,73-60.13,0,0,.2,1.37.54,3.88C2142.89,1176.42,2153.05,1258.23,2148.22,1314.27Z"/><path class="cls-26" d="M2205.89,1207.82a33.89,33.89,0,0,1-1.23,11.35c-11.23-15.4-21.5-31.27-26.62-48.56-1.51-5.08-3-10.74-.6-15.47,1.57-3.15,4.57-5.29,7.51-7.22,2.48-1.63,5-3.21,7.52-4.72q3.47-2.09,7-4a209.3,209.3,0,0,1,19.75-9.48,130.86,130.86,0,0,0,.8,13.26,100.39,100.39,0,0,0,1.77,10.82C2202.54,1169.55,2204.67,1180.79,2205.89,1207.82Z"/><path class="cls-43" d="M2337.7,913.28c-3.16.65-30-9.41-72.47,25.35-11.47,9.4-10.73,31.84-15.39,44.74a18.81,18.81,0,0,1-4.9,7.5c-7.62,7.15-20.61,7.46-30.39,4.74-.76,5.69.82,11.88.22,17.87-.47,4.84-1.32,9.82-1.32,14.7,0,10.81-.95,17.84,3.12,28,7.48,18.73,24.09,55,6.7,72.65-5.25,5.32-12.2,8.52-18.87,11.9s-13.41,7.28-17.64,13.45c-7.24,10.57-5.19,25-.33,36.85,3.34,8.16,8,16.67,6.06,25.28-2.2,9.93-12.18,15.91-21.53,19.9s-19.74,7.76-25.1,16.41c-3.54,5.72-4.25,12.81-3.57,19.51.81,8,3.66,16.07,9.32,21.78a24.46,24.46,0,0,0,4,3.26c5.36,3.47,12.09,4.85,18.08,2.81-.12.36-.28.72-.42,1.06-8.16,19.65-30.61,19.62-48.7,17.68-9.29-1-19.27-3-27.17-8.27-3.45-2.31-14.57-12.84-11.21-18.14-12.27,19.28-11.56,97.46,29,76.67-23.06,12.15-52.21,12-75.08-.5-8.76-4.78-17-11.87-19.56-21.5-6.43-24.42,25.63-43,28.17-68.09,1.92-18.85-13-34.54-23.36-50.4-7.93-12.14-13.68-26.14-13.62-40.63s6.68-29.42,19-37.06c11.07-6.86,24.82-7.12,37.72-9.06,52.64-7.9,42-52.68,32.68-92.07-5.9-24.85-6-51.91,7.62-74.57,12.33-20.51,36.8-30.45,55.25-44.25,12.82-9.6,16.7-24.8,25.56-38.39a79,79,0,0,1,60.23-35.12c21.7-1.36,41.54,6.95,57.85,20.77C2311.62,881.5,2337.61,913.28,2337.7,913.28Z"/><path class="cls-27" d="M2216.57,1056.2c7.48,18.73,24.09,55,6.7,72.65-5.25,5.32-12.2,8.52-18.87,11.9s-13.41,7.28-17.64,13.45c-7.24,10.57-5.19,25-.33,36.85,3.34,8.16,8,16.67,6.06,25.28-2.2,9.93-12.18,15.91-21.53,19.9s-19.74,7.76-25.1,16.41c-3.54,5.72-4.25,12.81-3.57,19.51.81,8,3.66,16.07,9.32,21.78a24.46,24.46,0,0,0,4,3.26c-21,.24-39-9.68-30.83-34.44,3.32-10,6.4-39.06,3.76-49.23-3.93-15.23-19.25-27.78-12-44.28,6.95-15.69,34-20.2,46.53-30,28.85-22.59,5.54-65,8.3-95,3.48-38,28.67-54.77,66.15-50.34,2.18-2.89,4.67-3.7,7.35-3.07-7.62,7.15-20.61,7.46-30.39,4.74-.76,5.69.82,11.88.22,17.87-.47,4.84-1.32,9.82-1.32,14.7C2213.4,1039,2212.5,1046,2216.57,1056.2Z"/><path class="cls-2" d="M2222.82,1021s1.15-27.16-13-24.87c-13.47,2.18-20.32,17.21-19.31,29.62,1.11,13.8,15,21.44,26.07,27.83C2217.14,1042.13,2222.06,1032.05,2222.82,1021Z"/><path class="cls-12" d="M2214.45,1023.22s1.92-16.64-4.3-18.18-12.73,11.48-11.39,20.09S2213.5,1033.17,2214.45,1023.22Z"/><path class="cls-43" d="M2420.3,1168.36A39.53,39.53,0,0,1,2382,1174c-15.1-6-28.1-14.77-25.42-33.19,3.45-23.64,25.6-30.61,38.44-47.64,17.61-23.34,1.88-44.82-20.15-57.4-11.58-6.6-21.49-14.47-26.24-25.5a36.68,36.68,0,0,1-3-13.43c-.83-20.5,4.52-38.43-7.56-57.07a50,50,0,0,0-50.72-22.28,47.93,47.93,0,0,0-6.65,1.67c.56-22.35,31.67-31.45,49.55-31,23.81.51,50.63,8.55,60.31,32.71,12.79,32-13.21,71.55,3.95,101.4,6.39,11.14,17.9,18.71,23.92,30,10.43,19.65,1.61,43.46-6,64.37-2.73,7.55-3.73,15.49-6.69,22.88C2401.21,1150.79,2408.5,1165.27,2420.3,1168.36Z"/><path class="cls-22" d="M2308.42,1022.11c1.88,3.69,3.68,7.42,5.52,11.13l2.71,5.6,2.67,5.61c.23.44.44,1,.66,1.51a12.82,12.82,0,0,1,.54,1.62,11.68,11.68,0,0,1,.37,1.68,10.9,10.9,0,0,1,.17,1.72,12.9,12.9,0,0,1-1.56,6.69,13.38,13.38,0,0,1-4.62,5c-.5.27-1,.55-1.48.8s-1,.41-1.55.58a6.65,6.65,0,0,1-3.25.31c-.07-.31,0-.09,0-.16h0l0,0,.09-.05.17-.09.35-.18.68-.34,1.29-.78,1.18-.88,1.08-1a14.82,14.82,0,0,0,3.12-4.6,15.93,15.93,0,0,0,1.26-5.29,9,9,0,0,0,0-1.37,8,8,0,0,0-.15-1.38,7.05,7.05,0,0,0-.31-1.36,14.12,14.12,0,0,0-.47-1.38l-2.26-5.78-2.23-5.8c-1.44-3.89-2.93-7.75-4.33-11.66Z"/><path class="cls-22" d="M2231.8,997.26a58.3,58.3,0,0,1,23.41-13.44,48.2,48.2,0,0,1,20.7-1.3c2.66.41,8.5.54,7.89,4.77-.55,3.73-5.58,3.52-8.32,3.34-4.57-.3-9.28-.62-13.87-.6A61.83,61.83,0,0,0,2231.8,997.26Z"/><path class="cls-22" d="M2374.33,987.41a3.27,3.27,0,0,1,.53,2.18c-7-1.12-13.69-2.32-20.89-2.26-5,0-10.06.39-15,.72-3,.21-8.4.47-9.38-3-1.09-3.91,5.24-4.11,8.09-4.53a61.63,61.63,0,0,1,22.58,1C2363.78,982.32,2372.11,984,2374.33,987.41Z"/><ellipse class="cls-22" cx="2269.14" cy="1020.2" rx="6.84" ry="7.64" transform="translate(-89.28 227.95) rotate(-5.64)"/><ellipse class="cls-22" cx="2342.32" cy="1015.94" rx="5.73" ry="7.05" transform="translate(-80.16 209.59) rotate(-5.04)"/><circle class="cls-12" cx="2245.6" cy="1045.97" r="9.78"/><circle class="cls-12" cx="2354.84" cy="1043.05" r="9.78"/><path class="cls-22" d="M2267.37,1068.52a42.64,42.64,0,0,0,5,14.56,6.65,6.65,0,0,0,.33.58c7.64,13.22,21.67,21.16,34.38,17.53l.21-.06a15.22,15.22,0,0,0,2.35-.92c6.4-3.09,12.62-10.73,16.24-17.48C2311,1083.53,2283.9,1079.81,2267.37,1068.52Z"/><path class="cls-23" d="M2272.66,1083.66c7.64,13.22,21.67,21.16,34.38,17.53l.21-.06a15.22,15.22,0,0,0,2.35-.92A76.65,76.65,0,0,0,2272.66,1083.66Z"/><path class="cls-22" d="M2250.59,1014.15a30.32,30.32,0,0,1,2.92-2.43c1-.75,2-1.45,3.08-2.1a29.64,29.64,0,0,1,6.66-3,30.34,30.34,0,0,1,3.55-.93,9.66,9.66,0,0,1,3.71.08,11.59,11.59,0,0,1,3.63,1.48,11.28,11.28,0,0,1,3.07,2.95l-.14.32c-1.22-.28-2.33-.54-3.44-.72a30.71,30.71,0,0,0-3.27-.28l-3.27-.1a15.54,15.54,0,0,0-3.33.17,26,26,0,0,0-3.32.75,34.31,34.31,0,0,0-3.29,1.1,41.4,41.4,0,0,0-6.41,3.09Z"/><path class="cls-22" d="M2354.57,1007.54a31.88,31.88,0,0,0-6.12-1,25.75,25.75,0,0,0-3-.06,21.15,21.15,0,0,0-3,.26,14.17,14.17,0,0,0-2.86.82l-2.75,1.05a25.85,25.85,0,0,0-2.71,1.21c-.9.49-1.79,1.06-2.76,1.68l-.18-.27a11.83,11.83,0,0,1,1.94-3.62,11.17,11.17,0,0,1,2.74-2.44A8.15,8.15,0,0,1,2339,1004a21.88,21.88,0,0,1,3.22-.18,23.15,23.15,0,0,1,6.33.89c1,.3,2.06.65,3.08,1a24.94,24.94,0,0,1,3,1.41Z"/><path class="cls-2" d="M1478.61,1521.78s23.05,4.25,32.56,6.09,14.58,13.35,16.22,31.05-12.32,21.92-12.32,21.92c-.4,10.23-9.9,12-9.9,12-15.5,15.31-29.18,13.91-30.49,8.59s15.5-15.31,15.5-15.31-34.44-7.38-50.64,13-48.75,21.46-48.75,21.46l-44.59,13.81c-30.31-25.82-15.6-64.89-15.6-64.89l47.37-.57s33.18-28.06,52.83-44.42a34.45,34.45,0,0,1,30.22-7Z"/><g class="cls-44"><path class="cls-45" d="M1516.78,1588.09l-1.59-7.15s-4.59-35.24-7-36.44-28.5-9.61-28.5-9.61,33.33,6,34.44,10.44.48,39.86,13.05,27.34S1516.78,1588.09,1516.78,1588.09Z"/><path class="cls-45" d="M1504.34,1599.76l1-6.79s1.07-7.64-2.87-25.92c0,0-.39-9.57-4.4-11.86s-22.07-9.14-22.07-9.14,25.46,6.59,26.68,10.22,7.51,39.11,13.19,32.55S1504.34,1599.76,1504.34,1599.76Z"/><path class="cls-45" d="M1485.76,1587.21c.25,1.34,10.53-4.15,10.53-4.15s-9,5.24-9.33-1.3c0,0-3.87,2.92-18.66.42s-30.86,10.39-39.67,20.84-38.87,8.84-38.87,8.84-58.45,22.11-67-6.34-12,27.3-12,27.3L1342,1653.2l60.65-16.18,52.25-30.33Z"/><path class="cls-45" d="M1488.11,1520.93l-9.21.88-7.88-2.4s77-30.77,79.94-45.92-17.81,37.73-17.81,37.73l-18.76,7.33-25,2.14"/><path class="cls-12" d="M1517.08,1527.14s6.36,11.07-7.87,15c0,0-.17,13.78-9.56,11.78,0,0-11.51,16.3-30.06,12.85s-49.74,18.56-65.58,29.76-80.65,13.81-65.55-41.6-57.85,20.89-57.85,20.89l22.84,59.42,58.71,22.48,73-5.8L1521,1607.7l21.67-46.71-3.35-25.55Z"/></g><path class="cls-12" d="M1503.24,2136.93c34.38,53.93,52.7,115.77,83.5,171.81,31-28.53,82.71-17.92,116.25-42.57,8.52-6.26-80.06-112.22-98.87-137.85S1503.24,2136.92,1503.24,2136.93Z"/><path class="cls-13" d="M1867.11,2265.37c-.59,10.71-60.57,47.85-90.31,59.5s-76.67,9.68-92.34,14-8.21,18.5-11.72,20.34c-7.85,4.13-67,26.26-67,26.26s-13.9-13.6-29-39.07c-7.39-12.38-11.39-23.39-13.24-33-3.88-20,1.42-34.22,5-42.83,0,0,10.87.75,26.81,8.31s70.23-29,70.23-29,.11-5.55-7.1-11.72,8.85-28.62,23.82-30.51,18.31,17.81,32.6,22.22,101-1.3,123.78-7.31c9.7-2.55,16.37,3.69,20.81,12.2C1865.4,2246.17,1867.33,2261.7,1867.11,2265.37Z"/><path d="M1867.11,2265.37c-.59,10.71-60.57,47.85-90.31,59.5s-76.67,9.68-92.34,14-8.21,18.5-11.72,20.34c-7.85,4.13-67,26.26-67,26.26s-13.9-13.6-29-39.07c-7.39-12.38-11.39-23.39-13.24-33,100.63,21.09,221.5-7,295.9-78.59C1865.4,2246.17,1867.33,2261.7,1867.11,2265.37Z"/><path class="cls-12" d="M1390.89,2288c9.62,58.18,2.75,117.24,8.57,175.91,36.66-12.95,76.61,14.76,114,6,9.49-2.22-27.24-124.14-33.9-152.69S1390.89,2288,1390.89,2288Z"/><path class="cls-13" d="M1652.88,2528.71c-4.38,8.86-68.68,18.64-98.12,17.75s-68.51-19.56-83.35-21.6-13.66,12.71-17.3,13c-8.15.65-66.28-2-66.28-2s-6.86-16.57-10.46-43.64c-1.78-13.17-1.18-23.95.74-32.81,4-18.37,13.6-28.51,19.71-34.52,0,0,9,4.57,19.72,16.75s70,.89,70,.89,2.1-4.67-1.78-12.51,17.87-21.06,31.25-17.24,9.07,21.73,19.59,30.64,86.12,35.48,107.6,38.63c9.14,1.35,12.55,9.06,13.23,17.88C1658.38,2511.81,1654.39,2525.68,1652.88,2528.71Z"/><path d="M1652.88,2528.71c-4.38,8.86-68.68,18.64-98.12,17.75s-68.51-19.56-83.35-21.6-13.66,12.71-17.3,13c-8.15.65-66.28-2-66.28-2s-6.86-16.57-10.46-43.64c-1.78-13.17-1.18-23.95.74-32.81,77.69,54.32,190.36,74.24,279.35,40.52C1658.38,2511.81,1654.39,2525.68,1652.88,2528.71Z"/><path class="cls-2" d="M921.07,1204.92c-2.13,3.11,53,56.77,58.74,61.7,19.6,16.88,29.66,33.46,42.77,56.47-1.28-13.22-6.84-67.66-3-107.66,2.79-28.71,10.44-50,28-43.24,16.86,6.46,55.37,17.66,57.67-11,.09-1.05,11.91-52.14,12.66-53,3.39-4.07,11.2-3.38,15.73-5,25.51-9-8-45.49-14.1-55.06-5.33-8.42-1.27-29.61-1.42-39-.1-5.71-3.12-10.73-5.12-15.92-6.44-16.77,2.63-37.93-22.5-29.91-21.94,7-43.34,17.18-64.76,25.66-10.07,4-20.26,8-31,9.43-9.83,1.3-20.56.58-28.74,6.18-10.94,7.49-12.54,22.73-12.92,36q-.82,29-.55,58.07C952.94,1136.25,942.78,1173.4,921.07,1204.92Z"/><g class="cls-46"><path class="cls-12" d="M1096.73,1174.44c3.77,5.26-61.09,4.13-90.59-34.69,10.37,29,64.55,76.93,64.55,76.93Z"/></g><polygon class="cls-47" points="1112.22 1949.08 1261.9 1978.04 1357.01 1940.24 1261.9 1841.7 1112.22 1949.08"/><polygon class="cls-27" points="1011.97 1235.21 1037.22 1254.01 1046.21 1288.46 1010.09 1271.9 1011.97 1235.21"/><path class="cls-15" d="M1107.13,998.68c-23.47,10.57-44.21,11.64-68.72,6.09-5.74-1.3-12.36-3.72-17.92-.48-10.57,6.15-13.82,27.31-10,37.83,3,8.17,9.46,15.67,8.67,24.2,0,.24,0,.48-.08.71-5.24-2-10.42-2.51-15.27-5-5.08-2.6-8.61-6.78-14.43-8.4s-12.6-.54-16.36,4a17,17,0,0,0-3.24,7.66,32.85,32.85,0,0,0,14.85,33.52c-6.85,10.16-12,53.92-26.94,53.92-10,0-27.21-30.39-40.33-55.9-4.23-8.22-8-16-11-22-18.57-37.14-24.85-89.4-1.5-126,12.66-19.83,37.19-32.48,59.8-36.75a50.07,50.07,0,0,1,6-.7c19.79-1.32,48.6,4.15,33.92-25.87-.26-.54-.54-1.08-.83-1.64-3.48-6.7-10.11-9.65-17.39-8.59,13.75-5.6,45.61-6.91,60.44-1.4,7.78,2.91,14.53,10.39,20.63,17.42,12.49,14.41,22.27,27,32.64-5.14.54-1.7,1.1-3.51,1.65-5.46A56.07,56.07,0,0,1,1128,897.34C1154.06,926.74,1146.43,981,1107.13,998.68Z"/><g class="cls-48"><path class="cls-14" d="M1019.17,1066.32c0,.24,0,.48-.08.71-5.24-2-10.42-2.51-15.27-5-5.08-2.6-8.61-6.78-14.43-8.4s-12.6-.54-16.36,4a17,17,0,0,0-3.24,7.66,32.85,32.85,0,0,0,14.85,33.52c-6.85,10.16-12,53.92-26.94,53.92-10,0-27.21-30.39-40.33-55.9,9.38-9.39,11.66-23.5,14.59-36.45s8.17-27.22,20.26-32.88c11.17-5.24,24.65-1.22,35,5.53s18.85,16,29.22,22.69Z"/></g><path class="cls-26" d="M1504.37,2399.13c-4,9-38.88,27.51-49.79,33.27-27.13,14.31-59.13,16.25-89.5,17-10.34.25-25.89-131.7-30.73-144.32-21.91-57-25.18-119.13-37.1-179-1.18-6-2.47-12-3.87-18-7-29.81-13.22-59.51-22.68-88.5a347.42,347.42,0,0,0-13.23-34.64c-19-42.53-36-45.14-84.08-52.16,41.54-25.58,142.75-45.82,183-10.94,23.54,20.36,42.67,60.29,54.51,87.65a1209.22,1209.22,0,0,1,44.86,121A1193.57,1193.57,0,0,1,1487,2253.63,1178.09,1178.09,0,0,1,1505.45,2387C1505.78,2391.07,1506.05,2395.34,1504.37,2399.13Z"/><path class="cls-39" d="M1487,2253.63c-71.77-27.46-137-71.68-189.74-127.6-1.18-6-2.47-12-3.87-18-7-29.81-13.22-59.51-22.68-88.5a347.42,347.42,0,0,0-13.23-34.64c-19-42.53-36-45.14-84.08-52.16,41.54-25.58,142.75-45.82,183-10.94,23.54,20.36,42.67,60.29,54.51,87.65a1209.22,1209.22,0,0,1,44.86,121A1193.57,1193.57,0,0,1,1487,2253.63Z"/><path class="cls-26" d="M1653.47,2204.86a39.89,39.89,0,0,1-4.23,8.92c-19.11,30.75-81.87,59.21-106.34,68.8-5.42,2.11-57.93-84.53-67.25-96.94-28.6-38.14-57.29-77-85-116.56q-53.85-76.75-107.6-153.59s-108.63,51.17-191.78,51.17c-35.12,0-73.16-35.38-105.4-76.27-44.1-56-77.35-122.2-77.35-122.2,3.55-4.1,50.94-9.89,113.3-15.57,37.07-3.38,79.42-6.71,121-9.64,79.07-5.57,155.31-9.65,187-9.65,55,0,105.65,88.83,134.11,135,52.57,85.34,102.55,172.76,150.91,261.33C1630.08,2157.56,1664,2172,1653.47,2204.86Z"/><path class="cls-49" d="M832.35,1764.52c-.13-1.5-.28-3-.4-4.41-5.3-61.46-22-548.87,63.95-548.91,42.51,0,82.06,34,119.69,49.8,42.69,18,54.41,86.13,66,126.33,18,62.49,22.09,125.75,30.88,189.65,9.68,70.42,14.47,142.56,12.08,213.62C1027.64,1829,919.11,1826.51,832.35,1764.52Z"/><path class="cls-28" d="M928.83,1169.44c8.47,0,95.12,83.53,95.12,83.53l7.47,48-135.51-63.3Z"/><g class="cls-50"><path class="cls-39" d="M1649.24,2213.78c-19.11,30.75-81.87,59.21-106.34,68.8-5.42,2.11-57.93-84.53-67.25-96.94-28.6-38.14-57.29-77-85-116.56q-53.85-76.75-107.6-153.59s-108.63,51.17-191.78,51.17c-35.12,0-73.16-35.38-105.4-76.27a615.62,615.62,0,0,1,35.95-137.77c37.07-3.38,79.42-6.71,121-9.64,10.55,28.29,26.24,54.91,44.55,79,12.53,16.49,23.73,36,39.41,49.79,26.77,23.51,64.72,14.36,89.89,41.22,44.06,47,72.5,108,122.31,149.71a1599.52,1599.52,0,0,0,177.38,128.86C1628.77,2199.35,1640,2206.27,1649.24,2213.78Z"/></g><path class="cls-51" d="M1166.75,1991c-6.45-21.92-96-8.92-112.5-4.4-32.94,9-68.19,11.38-103,9.76a528.76,528.76,0,0,1-55.13-5.56,32.12,32.12,0,0,1-9.24-2.4c-4.24-2.07-7.36-5.82-10.28-9.54-37-47.32-46.16-101.87-55.89-160.15-21-125.81-31.78-263.75-18.66-390.76,3.34-32.39,8.72-65,17.58-96.61,7.68-27.43,18-54,31.89-78.94,10.44-18.71,20.81-39.49,44.38-41,.31,0,.62,0,.93-.06,8.89-.38,57.13,13.38,58.72,19.82,9.48,38.36,62.56,127,86.21,221.54,13,52,38.81,115.76,54.21,169.19,5.52,19.1,9.7,36.89,11.5,52.37,5.85,50.55,15.38,93.94,18.71,123.62.56,5.12,1.26,10.51,2.07,16.08C1138.4,1884.47,1165.39,1986,1166.75,1991Z"/><path class="cls-52" d="M952.92,1993.81a528.76,528.76,0,0,1-55.13-5.57,31.8,31.8,0,0,1-9.24-2.4c-4.24-2.07-7.36-5.82-10.28-9.53-37-47.33-46.16-101.88-55.89-160.15-21-125.81-31.78-263.76-18.66-390.76,3.34-32.4,8.72-65.05,17.58-96.62l12.6,53.2c-.07,98.16-.11,196.78,14.86,293.79s45.7,193.14,102.3,273.34C962.22,1964.93,960.93,1979.91,952.92,1993.81Z"/><path class="cls-36" d="M939.37,1198.35l82.24,70,82.63,399.53S1009.55,1502.1,1012,1485s17.09-32.27,17.09-32.27S939.37,1227.83,939.37,1198.35Z"/><polygon class="cls-36" points="911.55 1178.85 939.37 1198.35 949.7 1239.28 884.16 1214.52 911.55 1178.85"/><path class="cls-52" d="M1128.25,1814c-47.14-16.63-94.25-34.74-134.26-64.51-65.89-49-106.67-126-127-205.5s-22.21-162.54-23.28-244.65c59.19,94,130.86,197.37,207.52,277.77,14.55,15.24,29.71,30,44.78,44.82,5.52,19.1,9.7,36.89,11.5,52.37,5.85,50.55,15.38,93.94,18.71,123.62C1126.74,1803,1127.44,1808.4,1128.25,1814Z"/><path class="cls-51" d="M924.79,1250.15c38.38,9.09,84.25,37.27,109.55,113.56s50.69,182.27,84.53,198c37,17.24,97.64,6.57,136.88,5s78.74-3.06,117.61-7.09c8.14,35.93-3.41,70.61,11,107.59-17.26,12.92-39.58,16.64-61,18.76-43.07,4.25-77.65,7.31-118.87,18.19-39.85,10.52-89.06,22.83-130.64,18.27-59.9-6.56-106.92-93.19-133.26-139.63-32.48-57.26-56.41-118.92-78-181C840.44,1337.92,818.62,1225,924.79,1250.15Z"/><g class="cls-53"><path class="cls-54" d="M924.78,1250.15c108.37,33.13,103.89,146.27,151.61,262.64,7.61,17.73,22.2,48.57,40.47,55.5,4.08-.06,27.22,20.74,256.57-8.46-76.82,1.71-234,7.15-254.38-6-30.67-21.09-57.35-133.32-81.35-197.21-9.51-25.36-23.12-49.77-42.45-69.12S951.13,1254.69,924.78,1250.15Z"/></g><path class="cls-22" d="M1059.33,1031.78a51.8,51.8,0,0,1,23-6.71,42.92,42.92,0,0,1,18.15,3.21c2.2.91,7.22,2.25,5.8,5.77-1.25,3.11-5.55,1.87-7.88,1.14-3.88-1.21-7.88-2.47-11.85-3.42A54.9,54.9,0,0,0,1059.33,1031.78Z"/><ellipse class="cls-22" cx="1091.98" cy="1059.82" rx="6.08" ry="8.3" transform="translate(-44.67 48.06) rotate(-2.47)"/><path class="cls-22" d="M1075.76,1052a25.74,25.74,0,0,1,2.71-2c.93-.61,1.87-1.19,2.84-1.71a28,28,0,0,1,9.25-3,8.54,8.54,0,0,1,3.29.25,10.4,10.4,0,0,1,3.14,1.5,9.77,9.77,0,0,1,2.58,2.76l-.14.28c-1.07-.31-2-.6-3-.81a26.44,26.44,0,0,0-2.89-.41l-2.89-.25a14.64,14.64,0,0,0-3,0,21.81,21.81,0,0,0-3,.5q-1.5.33-3,.81a37.19,37.19,0,0,0-5.84,2.43Z"/><rect class="cls-19" x="993.52" y="2025.81" width="31.21" height="447.28"/><rect class="cls-1" x="968.55" y="2230.19" width="81.16" height="152.96"/><path class="cls-1" d="M1282.37,2488.09c-36.34-24.15-137.23-84.31-279-82.64-134.91,1.58-230.71,58.22-267.44,82.64v-25.34c38.63-24.57,134.25-78.08,267.44-79.6,140-1.59,240.67,55.2,279,79.6Z"/><path class="cls-19" d="M770.84,2488.09a34.95,34.95,0,1,0-35,34.95A34.94,34.94,0,0,0,770.84,2488.09Z"/><path class="cls-19" d="M1317.31,2488.09a34.95,34.95,0,1,0-34.94,34.95A34.94,34.94,0,0,0,1317.31,2488.09Z"/><path class="cls-19" d="M1042.13,2488.09a33,33,0,1,0-33,33A33,33,0,0,0,1042.13,2488.09Z"/><path class="cls-24" d="M1235,1977v20.89a27.89,27.89,0,0,1-27.88,27.89H861.59a27.88,27.88,0,0,1-27.87-27.89V1977a27.87,27.87,0,0,1,27.87-27.88h345.57A27.88,27.88,0,0,1,1235,1977Z"/><path class="cls-24" d="M805.78,1312.75q-2.46,196.8-4.94,393.58c0,17.11-11.45,31-25.58,31H763.14c-14.14,0-25.59-13.88-25.59-31,0-59.94,1.42-119.19-.3-178.79q-.21-7.87-.51-15.76c-1.65-43-1.32-86.25,5-128.87,2.76-18.74,15.31-104.36,52.5-88.21h0C801.36,1297.84,804.57,1308,805.78,1312.75Z"/><path class="cls-25" d="M1169.08,2029.4H861a132.06,132.06,0,0,1-132.05-132.05V1485.52a7,7,0,0,1,13.94,0v411.83A118.1,118.1,0,0,0,861,2015.46h308.11a7,7,0,1,1,0,13.94Z"/><rect class="cls-24" x="1346.99" y="1696.26" width="30.76" height="849.93"/><rect class="cls-24" x="2975.83" y="1694.82" width="30.76" height="846.45"/><rect class="cls-26" x="2689.31" y="1694.82" width="30.76" height="849.93"/><rect class="cls-24" x="1220.94" y="1660.38" width="1935.33" height="56.11"/><rect class="cls-27" x="2018.93" y="1322.45" width="395.08" height="312.45"/><rect class="cls-28" x="2031.56" y="1322.45" width="415.37" height="312.45"/><rect class="cls-27" x="2033.13" y="1634.9" width="400.91" height="23.71"/><path class="cls-4" d="M2264.82,1478.68a31.24,31.24,0,1,0-31.24,31.24A31.24,31.24,0,0,0,2264.82,1478.68Z"/><path class="cls-29" d="M2415.19,1634.9h-137c-51.84-75.92-146.37-214.26-213.7-312.45H2167Z"/><path class="cls-29" d="M2446.93,1553.47v51.69c-44.24-61.13-178.39-246.49-204.86-282.71h26.22Z"/><path class="cls-22" d="M1107.08,1132.45c-2.33,2.17-3.33.68-4.71.32-.65-.32-1.29-.64-1.91-1s-1.21-.77-1.8-1.18c-2.33-1.68-4.48-3.55-6.67-5.31a66,66,0,0,1-11.41-12.22l.78-.62a53.17,53.17,0,0,0,5.82,5.71,60.62,60.62,0,0,0,6.51,4.8,35.68,35.68,0,0,0,7.22,3.51c.63.23,1.25.47,1.85.74s1.21.51,1.81.8,1.19.55,1.77.87,1,1,1.1,2.64Z"/><path class="cls-27" d="M2348.61,1010.25a36.68,36.68,0,0,1-3-13.43c-.83-20.5,4.52-38.43-7.56-57.07a50,50,0,0,0-50.72-22.28,9.71,9.71,0,0,1,1-1.48c4.39-5.37,10.6-9,17.11-11.39a36.87,36.87,0,0,1,15.62-2.53c17.72,1.51,29.25,20.44,30.87,38.16s-3.55,35.3-4.39,53.07A73.93,73.93,0,0,0,2348.61,1010.25Z"/><path class="cls-26" d="M1236.71,1974.45v20.89a27.88,27.88,0,0,1-27.88,27.88h-64.89a406.82,406.82,0,0,0-149.05-76.65h213.94A27.88,27.88,0,0,1,1236.71,1974.45Z"/><path class="cls-26" d="M807.45,1310.16q-2.46,196.78-4.94,393.58c0,17.1-11.45,31-25.58,31H764.81c-14.14,0-25.59-13.88-25.59-31,0-60,1.42-119.19-.3-178.8a572.87,572.87,0,0,0,57-232.83C803,1295.25,806.24,1305.38,807.45,1310.16Z"/><path class="cls-14" d="M1025.11,911c-5.47,11.7-22.39,11.46-34.45,6.81a138.11,138.11,0,0,1-18.42-9c19.79-1.32,48.6,4.15,33.92-25.87a35.52,35.52,0,0,1,3.62,1C1020.83,887.82,1030.07,900.44,1025.11,911Z"/><path class="cls-14" d="M1106.47,924.37c-4.51,4.63-12.17,4.3-18.14,1.83-14.1-5.84-22.62-22.57-19.32-37.41,12.49,14.41,22.27,27,32.64-5.15,4.72,5.54,6.86,14.37,7.92,22C1110.46,912.15,1111.05,919.66,1106.47,924.37Z"/><path class="cls-55" d="M3938.2,1676.55c-20.62,50.47-21.45,106.47-23.61,161-3.88,97.74-14.21,199.07-62.59,283.73q-2.22,3.89-4.54,7.71a121.15,121.15,0,0,1-45.05,42.92c-.57-35.78-2.3-71.55-1.81-107.33,1.29-93.61,19.47-189.24,59.83-273C3880.6,1749.65,3906.3,1710.76,3938.2,1676.55Z"/><path class="cls-56" d="M3799.85,2172c-2.23-49.45,11.82-89.32,26.7-131.52,10.49-29.76,21.34-60.54,26.28-95.49,13.57-96,34.47-202.64,86.62-265l3.92,3.29c-51.31,61.34-72,167.06-85.47,262.39-5,35.46-16,66.48-26.52,96.48-14.71,41.72-28.6,81.13-26.41,129.59Z"/><path class="cls-56" d="M3852,2121.23q-2.22,3.89-4.54,7.71a121.15,121.15,0,0,1-45.05,42.92c-.57-35.78-2.3-71.55-1.81-107.33,1.29-93.61,19.47-189.24,59.83-273A974.22,974.22,0,0,1,3852,2121.23Z"/><path class="cls-55" d="M3845,1905.58c-1.63,31.07-5.42,62.14-9.21,93a146.45,146.45,0,0,0-9-39.92c-9.2-25-24.2-48.17-40.33-69.57-38.79-51.49-47.93-109.08-58.77-171.43q-1.83-10.52-3.74-21-4.66-25.9-9.79-51.71-1.42-7.2-2.89-14.39-4.41-21.72-9.13-43.37c-1.75-8-3-34-8.83-39.31,80.74,74.69,139.86,176,150.55,285.45A483.51,483.51,0,0,1,3845,1905.58Z"/><path class="cls-56" d="M3805.82,2057.57l-5.12-.23c3.75-83.1,7.62-169-4.21-252.8-13.33-94.33-45-171.9-94-230.56l3.93-3.29c49.69,59.4,81.72,137.84,95.19,233.14C3813.46,1888.07,3809.58,1974.24,3805.82,2057.57Z"/><g class="cls-48"><path class="cls-56" d="M3845,1905.58c-1.63,31.07-5.42,62.14-9.21,93a146.45,146.45,0,0,0-9-39.92c-9.2-25-24.2-48.17-40.33-69.57-38.79-51.49-47.93-109.08-58.77-171.43q-1.83-10.52-3.74-21a419.47,419.47,0,0,1,92.24,117.1C3831.72,1843.06,3840.21,1873.92,3845,1905.58Z"/></g><path class="cls-55" d="M3829,2096.28c-1.36,5.83-2.91,11.71-4.8,17.47-4.75,14.47-11.67,28.12-23,38-14.49,12.6-40.3,19.06-49.72-.66-9.16-19.23-8.19-52.75-12.11-73.88q-13.58-73.05-27.11-146.11-2.94-15.81-5.87-31.62c-9.68-52.16-19.37-104.38-32.86-155.69-5.4-20.51-11.54-41.2-23.07-59,21,32.43,60.44,45.75,86.54,73.75a373.64,373.64,0,0,1,67.1,101.59C3837.09,1933.51,3847.28,2017.62,3829,2096.28Z"/><path class="cls-56" d="M3779.8,2207.13l-5.12-.23c3.75-83.1,7.62-169-4.22-252.8-13.33-94.33-45-171.91-94-230.56l3.93-3.29c49.69,59.4,81.72,137.84,95.18,233.14C3787.44,2037.63,3783.56,2123.8,3779.8,2207.13Z"/><path class="cls-56" d="M3824.23,2113.75c-4.75,14.47-11.67,28.12-23,38-14.49,12.6-40.3,19.06-49.72-.66-9.16-19.23-8.19-52.75-12.11-73.88q-13.58-73.05-27.11-146.11c11.13,38.05,24,75.65,44.1,109.66C3773.18,2069.18,3796,2096,3824.23,2113.75Z"/><path class="cls-57" d="M3917.8,2159.92l-27.75,184.39a17.8,17.8,0,0,1-17.56,15.14l-101,.24-42.94.1a17.78,17.78,0,0,1-17.61-15.06l-28.62-184.26a17.8,17.8,0,0,1,17.53-20.53l151.9-.34,48.47-.12A17.79,17.79,0,0,1,3917.8,2159.92Z"/><path class="cls-35" d="M3917.8,2159.92l-27.75,184.39a17.8,17.8,0,0,1-17.56,15.14l-101,.24a636.77,636.77,0,0,1,80.26-220.09l48.47-.12A17.79,17.79,0,0,1,3917.8,2159.92Z"/><polygon class="cls-15" points="3688.73 2202.06 3686.75 2189.27 3913.46 2188.74 3911.53 2201.54 3688.73 2202.06"/><path class="cls-15" d="M3930.23,2568.62a10.17,10.17,0,0,1-10.06-8.64l-53.89-354.2a10.16,10.16,0,1,1,20.09-3.06l53.9,354.2a10.17,10.17,0,0,1-8.52,11.58A9.83,9.83,0,0,1,3930.23,2568.62Z"/><path class="cls-15" d="M3672.88,2569.22a11.22,11.22,0,0,1-1.52-.11,10.17,10.17,0,0,1-8.57-11.54L3715,2203.12a10.16,10.16,0,0,1,20.11,3l-52.25,354.44A10.16,10.16,0,0,1,3672.88,2569.22Z"/><path class="cls-15" d="M3801.55,2568.92a10.16,10.16,0,0,1-10.18-10.14l-.83-354.33a10.17,10.17,0,0,1,20.33,0l.82,354.33A10.16,10.16,0,0,1,3801.55,2568.92Z"/></g></g></svg>